
<svg xmlns="http://www.w3.org/2000/svg" version="1.1" xmlns:xlink="http://www.w3.org/1999/xlink" preserveAspectRatio="none" x="0px" y="0px" width="360px" height="45px" viewBox="0 0 360 45">
<defs>
<g id="Layer1_0_MEMBER_0_FILL">
<path fill="#E3E9D1" stroke="none" d="
M 290.6 21
Q 289.35 20.65 287.9 21.3 286.25 22.1 285.75 23
L 301.45 31.75
Q 302.15 32.15 302.15 32.85
L 302.15 45.05 306.55 45.05 306.55 29.95
Q 306.55 29.5 306.1 29.25
L 290.6 21
M 319.95 24.15
Q 319.95 23.85 319.5 23.5
L 304 15.2
Q 302.7 14.85 301.4 15.6 299.7 16.35 299.25 17.25
L 314.9 26
Q 315.6 26.3 315.6 27.1
L 315.6 45.05 320.3 45.05
Q 319.95 44.85 319.95 44.25
L 319.95 24.15
M 333.35 18.5
Q 333.35 17.95 332.9 17.8
L 317.45 9.5
Q 316.25 9.15 314.8 9.9 313.15 10.65 312.7 11.55
L 328.3 20.3
Q 329 20.6 329 21.4
L 329 42.5
Q 329 43.3 328.3 43.55 328.1 43.7 327.7 43.7 327.2 43.7 326.95 43.55
L 323.25 41.25 323.25 44.25
Q 323.25 44.75 322.85 45.05
L 360 45.05 360 0 0 0 0 45.1 284.2 45.1
Q 283.2 44.45 283.2 43.85
L 283 23.75
Q 283 22.55 283.5 21.75 284.65 19.95 287.45 18.75 290.15 17.55 291.9 18.4
L 296.45 20.75 296.4 18
Q 296.4 16.85 296.95 15.95 297.95 14.3 300.8 13 303.65 11.8 305.25 12.65
L 309.8 15 309.8 12.2
Q 309.8 11.3 310.3 10.2 311.55 8.45 314.25 7.25 317.05 6.05 318.7 6.9
L 335.95 15.8
Q 336.65 16.2 336.65 16.9
L 336.65 38.45
Q 336.65 39.1 336.15 39.4 335.75 39.85 335.1 39.85 333.35 39.85 333.35 38.5
L 333.35 18.5
M 131.8 20.55
Q 132.9 21.65 132.9 23.5
L 132.9 30.75 130.25 30.75 129.55 29.3 129.45 29.3
Q 128.75 30.25 127.9 30.6 127.15 30.9 125.8 30.9 124.3 31 123.35 30.05 122.45 29.15 122.45 27.4 122.45 25.7 123.7 24.75 124.95 23.95 127.25 23.8
L 129.1 23.75 129.1 23.6
Q 129.1 22.2 127.75 22.2 126.65 22.25 124.65 23.05
L 123.55 20.5
Q 125.65 19.5 128.5 19.5 130.6 19.5 131.8 20.55
M 102.05 21
Q 103.4 19.5 106.05 19.55 108.5 19.55 109.95 20.85 111.3 22.2 111.3 24.65
L 111.3 26.25 104.45 26.25
Q 104.45 27.3 105.15 27.75 105.7 28.25 106.9 28.25
L 108.75 28.05 110.55 27.4 110.55 30.15
Q 109.65 30.75 108.7 30.75
L 106.45 30.9
Q 103.7 31.05 102.15 29.5 100.6 28.15 100.6 25.3 100.6 22.55 102.05 21
M 120.45 23.25
L 119.15 22.75 117.95 22.55
Q 117.05 22.55 116.5 23.3 116 23.95 116 25.35 116 28 117.95 28 119.6 28 121.15 27
L 121.15 30
Q 119.65 30.9 117.65 30.9 114.95 31.05 113.5 29.5 112.05 28.15 112.05 25.3 112.05 22.6 113.65 21.05 115.1 19.5 117.95 19.5 119.85 19.6 121.55 20.4
L 120.45 23.25
M 88 20.25
Q 89.15 20.95 89.9 22.25 90.55 23.5 90.55 25.25 90.55 28.05 89.15 29.5 87.65 30.95 85.05 30.95 82.55 31.05 81.05 29.45 79.55 27.95 79.55 25.25 79.55 22.55 81 21 82.5 19.5 85.05 19.5 86.75 19.6 88 20.25
M 91.75 22.55
L 91.75 21 93.4 19.8 94.4 17.5 96.9 17.5 96.9 19.75 99.6 19.75 99.6 22.55 96.9 22.55 96.9 26.9
Q 96.9 27.95 97.9 27.95 98.65 28 99.75 27.55
L 99.75 30.35 98.3 30.8 96.65 30.95
Q 94.75 30.95 93.9 30.05 93.05 29.1 93.05 27.2
L 93.05 22.55 91.75 22.55
M 62.25 19.5
Q 64 19.5 65.15 21.1 66.2 22.6 66.2 25.25 66.2 27.8 65.15 29.5 64.1 30.95 62.2 30.95
L 61.1 30.85 60.25 30.5 59.35 29.75 59.15 29.75 58.5 30.75 55.55 30.75 55.55 15.6 59.35 15.6 59.2 21.15 59.3 21.15
Q 59.9 20.3 60.6 19.9 61.4 19.5 62.25 19.5
M 77.55 16.95
Q 77.55 18.65 75.5 18.65 73.4 18.75 73.4 16.95 73.4 16.2 73.9 15.7 74.45 15.25 75.5 15.25 76.55 15.25 77.05 15.7 77.55 16.2 77.55 16.95
M 73.55 19.75
L 77.4 19.75 77.4 30.75 73.55 30.75 73.55 19.75
M 68.05 15.65
L 71.85 15.65 71.85 30.75 68.05 30.75 68.05 15.65
M 48.95 17
Q 48.95 16.1 49.45 15.75 49.9 15.3 51 15.3 52.05 15.3 52.5 15.75 53 16.1 53 17 53 18.7 51 18.7 48.95 18.7 48.95 17
M 45.25 23.25
L 45.25 23.3
Q 46.55 23.7 47.15 24.45 47.75 25.4 47.75 26.6 47.75 28.6 46.25 29.65 44.85 30.75 42.25 30.75
L 36.75 30.75 36.75 16.5 41.75 16.5
Q 44.65 16.6 46 17.4 47.5 18.3 47.5 20.1 47.4 21.4 46.8 22.15 46.3 23 45.25 23.25
M 49 19.75
L 52.85 19.75 52.85 30.75 49 30.75 49 19.75
M 43.25 25.25
Q 42.8 24.8 41.85 24.8
L 40.55 24.8 40.55 27.8 42 27.8
Q 43.75 27.85 43.75 26.25 43.85 25.6 43.25 25.25
M 40.55 19.4
L 40.55 22 41.75 22
Q 42.6 22 43 21.65 43.45 21.35 43.45 20.65 43.45 19.4 41.65 19.4
L 40.55 19.4
M 59.35 25.35
Q 59.35 26.75 59.75 27.3 60.1 27.95 60.95 27.95 61.6 27.95 62 27.25 62.35 26.4 62.35 25.25 62.35 22.5 60.9 22.5 60.15 22.6 59.75 23.05 59.3 23.75 59.3 24.8 59.35 24.8 59.35 25.35
M 85.05 22.4
Q 84.2 22.4 83.75 23.15 83.4 23.95 83.4 25.25 83.4 26.6 83.75 27.45 84.2 28.2 85.05 28.2 86 28.2 86.3 27.45 86.65 26.75 86.65 25.25 86.75 23.8 86.3 23.15 86 22.4 85.05 22.4
M 104.5 23.9
L 107.8 23.9
Q 107.8 23 107.3 22.65 106.95 22.15 106.15 22.15 105.6 22.15 105.05 22.6 104.65 22.95 104.5 23.9
M 129.1 26.75
L 129.1 25.85 128.25 25.85
Q 126.35 26 126.35 27.25 126.35 28.3 127.45 28.3 128.2 28.3 128.6 27.85 129.1 27.5 129.1 26.75 Z"/>
</g>

<g id="Layer1_0_MEMBER_1_FILL">
<path fill="#54656B" stroke="none" d="
M 52.85 19.75
L 49 19.75 49 30.75 52.85 30.75 52.85 19.75
M 45.25 23.35
L 45.25 23.25
Q 46.3 23 46.8 22.15 47.4 21.4 47.5 20.1 47.5 18.3 46 17.4 44.75 16.6 41.75 16.5
L 36.75 16.5 36.75 30.8 42.25 30.8
Q 44.75 30.8 46.25 29.7 47.75 28.6 47.75 26.6 47.75 25.25 47.15 24.5 46.55 23.65 45.25 23.35
M 40.55 22
L 40.55 19.4 41.7 19.4
Q 43.5 19.4 43.5 20.65 43.5 21.3 43 21.65 42.65 22 41.75 22
L 40.55 22
M 43.25 25.25
Q 43.85 25.6 43.75 26.3 43.75 27.85 42 27.85
L 40.55 27.85 40.55 24.85 41.85 24.85
Q 42.85 24.85 43.25 25.25
M 49.45 15.75
Q 48.95 16.1 48.95 17 48.95 18.7 51 18.7 53 18.7 53 17 53 16.1 52.5 15.75 52.05 15.3 51 15.3 49.9 15.3 49.45 15.75
M 71.85 15.65
L 68.05 15.65 68.05 30.75 71.85 30.75 71.85 15.65
M 73.4 16.95
Q 73.4 18.75 75.5 18.65 77.55 18.65 77.55 16.95 77.55 16.2 77.05 15.7 76.55 15.25 75.5 15.25 74.45 15.25 73.9 15.7 73.4 16.2 73.4 16.95
M 77.4 19.75
L 73.55 19.75 73.55 30.75 77.4 30.75 77.4 19.75
M 65.15 21.05
Q 64 19.5 62.25 19.5 61.35 19.5 60.6 19.95 59.9 20.3 59.3 21.2
L 59.15 21.2 59.3 15.65 55.5 15.65 55.5 30.75 58.45 30.75 59.1 29.7 59.3 29.7 60.25 30.45 61.05 30.8 62.2 30.9
Q 64.15 30.9 65.15 29.45 66.2 27.95 66.2 25.2 66.2 22.75 65.15 21.05
M 59.3 25.35
L 59.3 24.8
Q 59.3 23.75 59.7 23.1 60.15 22.55 60.85 22.55 62.3 22.55 62.3 25.25 62.3 26.5 62 27.25 61.6 27.95 60.95 27.95 60.15 27.95 59.75 27.3 59.4 26.8 59.3 25.35
M 93.4 19.8
L 91.75 21 91.75 22.55 93.05 22.55 93.05 27.15
Q 93.05 29.1 93.9 30.05 94.8 30.95 96.65 30.9
L 98.3 30.8 99.75 30.35 99.75 27.55
Q 98.65 28 97.9 27.95 96.9 27.95 96.9 26.9
L 96.9 22.6 99.6 22.6 99.6 19.75 96.9 19.75 96.9 17.5 94.4 17.5 93.4 19.8
M 89.9 22.25
Q 89.15 20.95 88 20.25 86.75 19.6 85.05 19.5 82.5 19.5 81 21 79.55 22.55 79.55 25.25 79.55 27.95 81.05 29.45 82.55 31.05 85.05 30.95 87.65 30.95 89.15 29.5 90.55 28.05 90.55 25.25 90.55 23.5 89.9 22.25
M 83.75 23.15
Q 84.2 22.4 85.05 22.4 86 22.4 86.3 23.15 86.75 23.8 86.65 25.25 86.65 26.75 86.3 27.45 86 28.2 85.05 28.2 84.2 28.2 83.75 27.45 83.4 26.6 83.4 25.25 83.4 23.95 83.75 23.15
M 119.15 22.75
L 120.45 23.25 121.55 20.4
Q 119.85 19.6 117.95 19.5 115.1 19.5 113.65 21.05 112.05 22.6 112.05 25.3 112.05 28.15 113.5 29.5 114.95 31.05 117.65 30.9 119.75 30.9 121.15 30
L 121.15 26.95
Q 119.7 27.95 117.95 27.95 116 27.95 116 25.3 116 23.95 116.5 23.25 117.05 22.5 117.95 22.5
L 119.15 22.75
M 111.3 24.6
Q 111.3 22.15 109.95 20.8 108.5 19.6 106.05 19.5 103.4 19.5 102.05 21 100.65 22.5 100.55 25.35 100.55 28.1 102.15 29.55 103.65 31.05 106.45 30.95
L 108.7 30.8
Q 109.65 30.75 110.55 30.2
L 110.55 27.45 108.75 28.05 106.9 28.25
Q 105.7 28.25 105.15 27.75 104.45 27.3 104.45 26.25
L 111.3 26.25 111.3 24.6
M 107.3 22.65
Q 107.8 23 107.8 23.9
L 104.5 23.9
Q 104.65 22.9 105.05 22.6 105.45 22.15 106.15 22.15 106.95 22.15 107.3 22.65
M 131.8 20.55
Q 130.5 19.5 128.5 19.55 125.45 19.55 123.6 20.55
L 124.7 23.1
Q 126.65 22.25 127.8 22.25 129.15 22.25 129.15 23.65
L 129.15 23.8 127.3 23.85
Q 124.9 23.95 123.75 24.8 122.5 25.6 122.5 27.45 122.5 29.15 123.4 30.05 124.25 30.95 125.8 30.95 127.05 30.95 127.9 30.6 128.65 30.35 129.5 29.3
L 129.6 29.3 130.3 30.75 132.9 30.75 132.9 23.5
Q 132.9 21.65 131.8 20.55
M 129.1 25.9
L 129.1 26.75
Q 129.1 27.4 128.6 27.85 128.2 28.3 127.45 28.3 126.35 28.3 126.35 27.25 126.35 26.05 128.25 25.9
L 129.1 25.9 Z"/>
</g>
</defs>

<g transform="matrix( 1, 0, 0, 1, 0,0) ">
<use xlink:href="#Layer1_0_MEMBER_0_FILL"/>
</g>

<g transform="matrix( 1, 0, 0, 1, 0,0) ">
<use xlink:href="#Layer1_0_MEMBER_1_FILL"/>
</g>
</svg>
