
<svg xmlns="http://www.w3.org/2000/svg" version="1.1" xmlns:xlink="http://www.w3.org/1999/xlink" preserveAspectRatio="none" x="0px" y="0px" width="360px" height="45px" viewBox="0 0 360 45">
<defs>
<g id="icone_6_svg_0_Layer0_0_MEMBER_0_FILL">
<path fill="#E3E9D1" stroke="none" d="
M 305.25 41.5
L 318 44.3 321.9 26.5 309.15 23.7 305.25 41.5
M 318.5 28.65
L 318 30.9 310.85 29.25 311.35 27 318.5 28.65
M 317.5 33.55
L 317 35.85 309.85 34.25 310.35 31.95 317.5 33.55
M 316.25 38.6
L 315.8 40.8 308.65 39.25 309.15 37 316.25 38.6
M 324.1 25.05
Q 324.75 26 324.5 27.05
L 320.55 44.85 320.4 45.05 360 45.05 360 0 0 0 0 45.05 309.6 45.05 304.7 44
Q 303.65 43.8 303.05 42.85 302.5 41.9 302.7 40.95
L 306.7 23.1
Q 306.95 21.95 307.85 21.45 308.65 20.85 309.8 21.1
L 322.5 23.95
Q 323.65 24.25 324.1 25.05
M 186.4 20.65
Q 187.65 21.7 187.55 23.55
L 187.55 30.8 184.95 30.8 184.25 29.35 184.15 29.35
Q 183.35 30.35 182.6 30.65 181.8 30.95 180.5 30.95 178.95 31 178.05 30.1 177.15 29.2 177.15 27.45 177.15 25.75 178.4 24.8 179.55 24 181.95 23.85
L 183.8 23.8 183.8 23.65
Q 183.8 22.25 182.45 22.25 181.2 22.35 179.35 23.15
L 178.25 20.6
Q 180.1 19.6 183.1 19.6 185.3 19.6 186.4 20.65
M 164.25 15.75
Q 164.75 16.25 164.75 17 164.75 18.75 162.65 18.75 160.6 18.75 160.6 17 160.6 16.25 161.1 15.75 161.55 15.35 162.65 15.35 163.7 15.35 164.25 15.75
M 172.6 19.55
Q 174.4 19.6 176.2 20.4
L 175.1 23.25 173.75 22.8 172.55 22.6
Q 171.7 22.6 171.1 23.35 170.6 24.1 170.6 25.4 170.6 28 172.55 28 174.3 28 175.75 27
L 175.75 30.05
Q 174.35 30.95 172.25 30.95 169.65 31.1 168.1 29.55 166.75 28.2 166.75 25.35 166.75 22.6 168.3 21.1 169.75 19.55 172.6 19.55
M 164.6 19.75
L 164.6 30.8 160.75 30.8 160.75 19.75 164.6 19.75
M 151.1 19.75
L 151.55 21.15 151.8 21.15
Q 152.25 20.4 153.15 19.95 154.1 19.55 155.1 19.55 157 19.55 158 20.65 159.05 21.85 159.05 23.65
L 159.05 30.85 155.15 30.85 155.15 24.85
Q 155.15 23.75 154.85 23.2 154.55 22.6 153.85 22.6 152.95 22.6 152.5 23.4 152.05 24.05 152.05 26
L 152.05 30.8 148.25 30.8 148.25 19.75 151.1 19.75
M 143.65 20.25
Q 144.7 20.85 145.65 22.25 146.3 23.7 146.3 25.25 146.3 28 144.85 29.5 143.35 31 140.75 31 138.25 31.1 136.75 29.5 135.25 28 135.25 25.25 135.25 22.6 136.65 21.05 138.15 19.55 140.8 19.55 142.4 19.65 143.65 20.25
M 145.15 18.5
L 145.15 18.75 142.7 18.75 140.75 17.25 138.85 18.75 136.3 18.75 136.3 18.5 137.75 17 138.85 15.55 142.65 15.55 145.15 18.5
M 121.65 19.55
Q 124.15 19.65 125.55 20.9 126.9 22.2 126.9 24.65
L 126.9 26.3 120.05 26.3
Q 120.05 27.35 120.75 27.8 121.3 28.3 122.5 28.3
L 124.35 28.1 126.15 27.45 126.15 30.2
Q 125.25 30.8 124.3 30.8
L 122.05 30.95
Q 119.3 31.1 117.75 29.55 116.2 28.2 116.2 25.35 116.2 22.6 117.65 21.05 119 19.55 121.65 19.55
M 128.8 22.65
L 127.3 22.65 127.3 20.75 128.85 19.8 128.85 19.65
Q 128.85 17.35 129.75 16.5 130.7 15.55 132.6 15.55
L 134.05 15.65 135.65 16.05 134.8 18.5 133.4 18.35
Q 133 18.35 132.8 18.6 132.6 18.85 132.6 19.45
L 132.6 19.75 134.95 19.75 134.95 22.6 132.6 22.6 132.6 30.8 128.8 30.8 128.8 22.65
M 104.65 19.6
Q 107.1 19.6 108.55 20.9 109.9 22.25 109.9 24.65
L 109.9 26.3 103.05 26.3
Q 103.05 27.35 103.75 27.8 104.3 28.3 105.5 28.3
L 107.35 28.1 109.15 27.5 109.15 30.25
Q 108.25 30.8 107.3 30.85
L 105.05 31
Q 102.25 31.1 100.75 29.6 99.2 28.2 99.2 25.4 99.2 22.65 100.65 21.1 102 19.6 104.65 19.6
M 111.15 15.65
L 115 15.65 115 30.8 111.15 30.8 111.15 15.65
M 99.55 16.55
L 99.55 19.75 96.05 19.75 96.05 30.8 92.25 30.8 92.25 19.7 88.75 19.7 88.75 16.55 99.55 16.55
M 82.25 20.65
Q 83.4 21.7 83.4 23.55
L 83.4 30.8 80.75 30.8 80.05 29.35 79.95 29.35
Q 79.2 30.3 78.35 30.65 77.6 30.95 76.25 30.95 74.8 31 73.8 30.1 72.95 29.15 72.95 27.45 72.95 25.75 74.2 24.8 75.35 24 77.75 23.85
L 79.6 23.8 79.6 23.65
Q 79.6 22.25 78.25 22.25 77.05 22.35 75.1 23.15
L 74 20.6
Q 75.95 19.6 78.9 19.6 81.05 19.6 82.25 20.65
M 66.9 17.55
L 69.4 17.55 69.4 19.75 72.1 19.75 72.1 22.65 69.45 22.65 69.45 27
Q 69.35 28 70.45 28 71.3 28.1 72.3 27.65
L 72.3 30.4 70.8 30.85 69.2 30.95
Q 67.3 31 66.45 30.1 65.55 29.2 65.55 27.2
L 65.55 22.6 64.25 22.6 64.25 21.05 65.9 19.85 66.9 17.55
M 61 19.8
L 63 20.5 61.95 22.95 60.3 22.4 58.95 22.15
Q 58.05 22.15 58.05 22.6 58.05 22.95 58.35 23.1
L 62 24.85
Q 62.6 25.35 62.8 25.95 63.1 26.55 63.1 27.5 63.1 29.2 61.85 30.1 60.65 31 58.4 31
L 56.25 30.85 54.35 30.4 54.35 27.4 56.3 28 58.25 28.25
Q 59.5 28.25 59.5 27.7 59.45 27.5 59.1 27.15
L 57.05 26.25
Q 55.5 25.7 55 24.85 54.35 24.15 54.35 22.85 54.35 21.35 55.55 20.45 56.75 19.55 58.95 19.55
L 61 19.8
M 47.95 17
Q 47.95 16.2 48.45 15.75 48.85 15.35 50 15.35 51 15.35 51.5 15.75 52 16.2 52 17 52 18.75 50 18.75 47.95 18.75 47.95 17
M 48 19.75
L 51.85 19.75 51.85 30.8 48 30.8 48 19.75
M 46.05 27.75
L 46.05 30.8 36.75 30.8 36.75 16.55 40.55 16.55 40.55 27.75 46.05 27.75
M 314.75 9.7
Q 320.45 8.9 321.75 11
L 323.1 13.05 323.55 14.05
Q 323.85 14.85 323.8 15.3
L 323.45 16.35
Q 323.3 16.95 322.65 17.45 322.05 18 321 18.5 319.25 19.35 318.15 19.6 316.95 19.85 316.2 19.25 315.25 18.5 315.05 18.25
L 313.95 16.65
Q 312.75 14.75 305.55 19.25 298.6 23.85 299.7 25.7
L 299.9 26.05
Q 300.75 27.2 301 28.1 301.3 28.9 300.75 30.05 300.15 31.4 298.25 32.8 297.15 33.7 296.65 33.95 295.9 34.25 295.25 34.25
L 294.25 34.05
Q 293.9 34 293.25 33.35
L 292.55 32.5 291.25 30.45
Q 290 28.25 293 23.55 296.05 18.85 302.65 14.65 309.25 10.45 314.75 9.7
M 79.55 25.9
L 78.75 25.9
Q 76.8 26.05 76.8 27.3 76.8 28.35 77.95 28.35 78.6 28.35 79.05 27.9 79.55 27.55 79.55 26.75
L 79.55 25.9
M 106.4 23.9
Q 106.4 23.1 105.9 22.65 105.5 22.15 104.75 22.15 104.25 22.15 103.65 22.65 103.25 23 103.1 23.9
L 106.4 23.9
M 123.4 23.9
Q 123.4 23.1 122.9 22.65 122.5 22.15 121.75 22.15 121.25 22.15 120.65 22.65 120.25 23 120.1 23.9
L 123.4 23.9
M 140.8 22.4
Q 139.9 22.4 139.5 23.15 139.1 23.95 139.1 25.25 139.1 26.7 139.5 27.5 139.9 28.25 140.8 28.25 141.7 28.25 142.05 27.5 142.4 26.65 142.4 25.25 142.4 23.85 142.05 23.15 141.7 22.4 140.8 22.4
M 181.05 27.3
Q 181.05 28.4 182.15 28.35 182.9 28.35 183.3 27.95 183.8 27.45 183.8 26.8
L 183.8 25.95 182.9 25.95
Q 181.05 26.05 181.05 27.3 Z"/>
</g>

<g id="icone_6_svg_0_Layer0_0_MEMBER_1_FILL">
<path fill="#54656B" stroke="none" d="
M 142.75 18.75
L 145.2 18.75 145.2 18.5 142.7 15.55 138.9 15.55 137.8 17 136.35 18.5 136.35 18.75 138.9 18.75 140.8 17.25 142.75 18.75
M 46.05 27.75
L 40.55 27.75 40.55 16.55 36.75 16.55 36.75 30.85 46.05 30.85 46.05 27.75
M 51.85 19.75
L 48 19.75 48 30.8 51.85 30.8 51.85 19.75
M 48.45 15.75
Q 47.95 16.2 47.95 17 47.95 18.75 50 18.75 52 18.75 52 17 52 16.2 51.5 15.75 51.1 15.35 50 15.35 48.85 15.35 48.45 15.75
M 66.9 17.55
L 65.9 19.9 64.25 21.1 64.25 22.65 65.55 22.65 65.55 27.25
Q 65.55 29.15 66.4 30.1 67.25 31 69.15 31
L 70.8 30.85 72.25 30.4 72.25 27.65
Q 71.1 28.05 70.4 28 69.4 28 69.4 27
L 69.4 22.65 72.1 22.65 72.1 19.75 69.4 19.75 69.4 17.55 66.9 17.55
M 63 20.5
L 61 19.8 58.9 19.6
Q 56.75 19.6 55.55 20.5 54.35 21.35 54.35 22.9 54.35 24.1 54.95 24.9 55.55 25.7 57.05 26.3
L 59.1 27.2
Q 59.45 27.45 59.5 27.75 59.5 28.25 58.25 28.25
L 56.3 28 54.4 27.4 54.4 30.4 56.25 30.9 58.35 31
Q 60.55 31 61.8 30.15 63.15 29.25 63.05 27.5 63.05 26.45 62.75 25.95 62.65 25.45 62 24.9
L 58.35 23.15
Q 58.05 22.95 58.05 22.65 58.05 22.15 58.95 22.15
L 60.3 22.4 61.95 23 63 20.5
M 99.55 16.55
Q 99.55 16.6 88.75 16.6
L 88.75 19.75 92.25 19.75 92.25 30.8 96.05 30.8 96.05 19.7 99.55 19.7 99.55 16.55
M 83.35 23.6
Q 83.35 21.7 82.25 20.65 81 19.55 78.9 19.6 75.95 19.6 74 20.6
L 75.1 23.15
Q 77.1 22.3 78.25 22.3 79.6 22.3 79.6 23.7
L 79.6 23.85 77.75 23.9
Q 75.35 24 74.2 24.85 72.95 25.75 72.95 27.5 72.95 29.3 73.8 30.15 74.65 31 76.25 31 77.6 31 78.35 30.7 79.1 30.4 79.95 29.4
L 80.05 29.4 80.75 30.85 83.35 30.85 83.35 23.6
M 78.75 25.9
L 79.55 25.9 79.55 26.8
Q 79.55 27.45 79.05 27.95 78.7 28.35 77.95 28.35 76.8 28.35 76.8 27.3 76.8 26.05 78.75 25.9
M 115 15.65
L 111.15 15.65 111.15 30.8 115 30.8 115 15.65
M 109.9 24.65
Q 109.9 22.2 108.55 20.9 107.1 19.6 104.6 19.6 102.05 19.6 100.6 21.1 99.2 22.65 99.15 25.4 99.15 28.15 100.75 29.6 102.25 31.1 105.05 31
L 107.3 30.85
Q 108.25 30.8 109.15 30.25
L 109.15 27.5 107.3 28.1 105.5 28.3
Q 104.3 28.3 103.75 27.8 103.05 27.35 103.05 26.3
L 109.9 26.3 109.9 24.65
M 104.75 22.15
Q 105.5 22.15 105.9 22.65 106.4 23.15 106.4 23.9
L 103.1 23.9
Q 103.25 22.95 103.65 22.65 104.1 22.15 104.75 22.15
M 127.3 20.75
L 127.3 22.65 128.8 22.65 128.8 30.85 132.6 30.85 132.6 22.65 134.95 22.65 134.95 19.8 132.6 19.8 132.6 19.5
Q 132.6 18.85 132.8 18.65 133.05 18.35 133.4 18.4
L 134.8 18.55 135.65 16.1 134.05 15.7 132.6 15.6
Q 130.65 15.6 129.75 16.5 128.85 17.5 128.85 19.65
L 128.85 19.8 127.3 20.75
M 125.55 20.85
Q 124.1 19.65 121.65 19.55 119 19.55 117.6 21.1 116.2 22.65 116.15 25.4 116.15 28.15 117.75 29.6 119.25 31.1 122.05 31
L 124.3 30.85
Q 125.25 30.8 126.15 30.25
L 126.15 27.5 124.3 28.1 122.5 28.3
Q 121.3 28.3 120.75 27.8 120.05 27.35 120.05 26.3
L 126.9 26.3 126.9 24.65
Q 126.9 22.2 125.55 20.85
M 121.75 22.15
Q 122.5 22.15 122.9 22.65 123.4 23.15 123.4 23.9
L 120.1 23.9
Q 120.25 22.95 120.65 22.65 121.1 22.15 121.75 22.15
M 151.1 19.75
L 148.25 19.75 148.25 30.8 152.05 30.8 152.05 26
Q 152.05 24.2 152.5 23.35 153 22.55 153.9 22.55 154.6 22.55 154.9 23.2 155.2 23.75 155.2 24.8
L 155.2 30.8 159.05 30.8 159.05 23.65
Q 159.05 21.8 158 20.65 157 19.55 155.15 19.55 154.1 19.55 153.2 19.95 152.3 20.4 151.85 21.15
L 151.6 21.15 151.1 19.75
M 145.6 22.25
Q 144.75 20.9 143.65 20.25 142.4 19.65 140.75 19.55 138.15 19.55 136.65 21.05 135.3 22.6 135.2 25.25 135.2 28 136.7 29.5 138.2 31.1 140.7 31 143.4 31 144.8 29.5 146.25 28.05 146.25 25.25 146.25 23.55 145.6 22.25
M 139.5 23.15
Q 139.9 22.4 140.8 22.4 141.7 22.4 142.05 23.15 142.4 23.85 142.4 25.25 142.4 26.65 142.05 27.5 141.7 28.25 140.8 28.25 139.9 28.25 139.5 27.5 139.1 26.7 139.1 25.25 139.1 23.95 139.5 23.15
M 164.6 30.8
L 164.6 19.75 160.75 19.75 160.75 30.8 164.6 30.8
M 175.1 23.25
L 176.2 20.4
Q 174.4 19.6 172.6 19.55 169.75 19.55 168.3 21.1 166.75 22.6 166.75 25.35 166.75 28.25 168.15 29.55 169.6 31.1 172.3 30.95 174.4 30.95 175.8 30.05
L 175.8 27
Q 174.35 28 172.6 28 170.65 28 170.65 25.35 170.65 24 171.15 23.3 171.7 22.55 172.6 22.55
L 173.8 22.75 175.1 23.25
M 162.65 18.75
Q 164.75 18.75 164.75 17 164.75 16.25 164.25 15.75 163.8 15.35 162.65 15.35 161.55 15.35 161.1 15.75 160.6 16.25 160.6 17 160.6 18.75 162.65 18.75
M 186.4 20.65
Q 185.2 19.55 183.1 19.6 180.15 19.6 178.2 20.6
L 179.3 23.15
Q 181.3 22.3 182.4 22.3 183.75 22.3 183.75 23.7
L 183.75 23.85 181.9 23.9
Q 179.6 24 178.35 24.85 177.1 25.8 177.1 27.5 177.1 29.25 178 30.15 178.85 31 180.45 31 181.8 31 182.55 30.7 183.35 30.4 184.1 29.4
L 184.25 29.4 184.9 30.85 187.55 30.85 187.55 23.6
Q 187.55 21.65 186.4 20.65
M 182.15 28.35
Q 181.05 28.35 181.05 27.3 181.05 26.05 182.9 25.9
L 183.8 25.9 183.8 26.8
Q 183.8 27.35 183.3 27.95 182.9 28.35 182.15 28.35 Z"/>
</g>
</defs>

<g transform="matrix( 1, 0, 0, 1, 0,0) ">
<g transform="matrix( 1, 0, 0, 1, 0,0) ">
<use xlink:href="#icone_6_svg_0_Layer0_0_MEMBER_0_FILL"/>
</g>

<g transform="matrix( 1, 0, 0, 1, 0,0) ">
<use xlink:href="#icone_6_svg_0_Layer0_0_MEMBER_1_FILL"/>
</g>
</g>
</svg>
