
<svg xmlns="http://www.w3.org/2000/svg" version="1.1" xmlns:xlink="http://www.w3.org/1999/xlink" preserveAspectRatio="none" x="0px" y="0px" width="360px" height="45px" viewBox="0 0 360 45">
<defs>
<g id="icone_4_svg_0_Layer0_0_MEMBER_0_FILL">
<path fill="#E3E9D1" stroke="none" d="
M 325 45.05
L 331.75 19.85 307.25 13.25 299.6 41.85 311.75 45.05 325 45.05
M 325 29
L 324.4 31 316.25 28.8 316.75 26.75 325 29
M 326.6 22.9
L 325.55 26.95 317.35 24.75 318.45 20.65 326.6 22.9
M 310.25 18.5
L 316.4 20.1 314.2 28.25 308.05 26.6 310.25 18.5
M 323.85 33.05
L 323.3 35.1 313.05 32.35 313.6 30.3 323.85 33.05
M 311.1 31.8
L 307 30.75 307.5 28.65 311.65 29.75 311.1 31.8
M 305.85 34.8
L 306.4 32.75 316.6 35.5 316.05 37.55 305.85 34.8
M 322.25 39.2
L 318.1 38.1 318.65 36.05 322.75 37.2 322.25 39.2
M 321.65 41.25
L 321.15 43.25 304.75 38.85 305.3 36.85 321.65 41.25
M 360 45.05
L 360 0 0 0 0 45.05 296.95 45.05
Q 296.35 44.65 296 44 295.1 42.4 295.55 40.75
L 303.2 12.15
Q 303.65 10.5 305.2 9.6 306.8 8.75 308.35 9.2
L 332.85 15.8
Q 334.5 16.25 335.5 17.75 336.3 19.25 335.85 21
L 329.35 45.05 360 45.05
M 227.75 19.55
Q 229.3 19.6 230.65 20.25 231.8 20.95 232.6 22.25 233.25 23.7 233.25 25.25 233.25 28 231.8 29.5 230.3 31 227.65 31 225.15 31.1 223.65 29.5 222.15 28 222.15 25.25 222.25 22.6 223.6 21.05 225.1 19.55 227.75 19.55
M 206.6 18.75
Q 204.55 18.75 204.55 17 204.55 16.2 205.05 15.75 205.45 15.35 206.6 15.35 207.7 15.35 208.15 15.75 208.65 16.25 208.65 17 208.65 18.75 206.6 18.75
M 203.25 19.75
L 203.25 22.65 200.55 22.65 200.55 27
Q 200.45 28 201.55 28 202.4 28.1 203.4 27.65
L 203.4 30.4 201.95 30.85 200.3 30.95
Q 198.4 31 197.55 30.1 196.7 29.25 196.7 27.2
L 196.7 22.6 195.35 22.6 195.35 21.05 197.05 19.85 198.05 17.55 200.55 17.55 200.55 19.75 203.25 19.75
M 204.6 19.75
L 208.5 19.75 208.5 30.8 204.6 30.8 204.6 19.75
M 218.05 19.75
L 222.05 19.75 217.8 30.8 214.05 30.8 209.85 19.75 213.8 19.75 215.65 26.3 215.65 26.5 215.8 26.75 215.85 27.15 215.85 27.45 215.95 27.45 216.1 26.3 218.05 19.75
M 190.65 23.8
L 190.65 23.65
Q 190.65 22.25 189.3 22.25 188.25 22.3 186.2 23.1
L 185.1 20.55
Q 187.2 19.55 190 19.55 192.1 19.55 193.3 20.6 194.45 21.7 194.45 23.55
L 194.45 30.8 191.8 30.8 191.1 29.35 191 29.35
Q 190.3 30.3 189.45 30.65 188.7 30.95 187.35 30.95 185.85 31.05 184.9 30.1 184 29.2 184 27.45 184 25.8 185.25 24.8 186.5 24 188.8 23.85
L 190.65 23.8
M 164.1 23.3
L 162.8 23.15
Q 161.6 23.15 161 23.75 160.4 24.35 160.4 25.4
L 160.4 30.8 156.6 30.8 156.6 19.75 159.45 19.75 160.05 21.55 160.2 21.55
Q 160.7 20.75 161.55 20.1 162.5 19.55 163.25 19.55
L 164.2 19.65 164.45 19.7 164.1 23.3
M 171.6 23.2
Q 171.3 22.6 170.65 22.6 169.8 22.6 169.3 23.4 168.9 24.2 168.9 26
L 168.9 30.8 165.1 30.8 165.1 19.75 168 19.75 168.5 21.15 168.75 21.15
Q 169.2 20.4 170 19.95 170.9 19.55 171.9 19.55 174.25 19.65 175.25 21
L 175.55 21
Q 176 20.4 176.85 19.95 177.8 19.55 178.7 19.55 180.7 19.65 181.6 20.55 182.55 21.65 182.55 23.65
L 182.55 30.8 178.65 30.8 178.65 24.8
Q 178.65 23.75 178.35 23.15 178.15 22.55 177.4 22.55 176.55 22.55 176.1 23.3 175.75 24.05 175.75 25.65
L 175.75 30.85 171.85 30.85 171.85 24.85
Q 171.85 23.65 171.6 23.2
M 143.35 19.75
L 143.35 22.6 141 22.6 141 30.8 137.15 30.8 137.15 22.65 135.65 22.65 135.65 20.75 137.25 19.8 137.25 19.65
Q 137.25 17.4 138.1 16.5 139.15 15.55 141 15.55
L 142.4 15.65 144.05 16.05 143.15 18.5 141.8 18.35
Q 141.4 18.35 141.15 18.6 141 18.9 141 19.45
L 141 19.75 143.35 19.75
M 145.05 21.05
Q 146.55 19.55 149.15 19.55 150.7 19.6 152.05 20.25 153.2 20.95 154 22.25 154.65 23.7 154.65 25.25 154.65 28 153.2 29.5 151.7 31 149.1 31 146.6 31.1 145.1 29.5 143.6 28 143.6 25.25 143.6 22.6 145.05 21.05
M 127.7 21.15
Q 128.2 20.35 129.05 19.95 129.95 19.55 131 19.55 132.85 19.55 133.85 20.65 134.9 21.8 134.9 23.65
L 134.9 30.8 131.05 30.8 131.05 24.8
Q 131.05 23.95 130.75 23.15 130.45 22.55 129.75 22.6 128.8 22.6 128.35 23.4 127.9 24.15 127.9 26
L 127.9 30.8 124.05 30.8 124.05 19.75 126.95 19.75 127.45 21.15 127.7 21.15
M 121.65 16.55
L 121.65 30.8 117.75 30.8 117.75 16.55 121.65 16.55
M 110.05 20.55
Q 111 21.65 111 23.65
L 111 30.8 107.15 30.8 107.15 24.8
Q 107.15 23.85 106.8 23.15 106.6 22.55 105.9 22.55 105.1 22.55 104.55 23.3 104.2 24.05 104.2 25.65
L 104.2 30.85 100.3 30.85 100.3 24.85
Q 100.3 23.65 100.05 23.2 99.75 22.6 99.15 22.6 98.3 22.6 97.8 23.4 97.4 24.05 97.4 26
L 97.4 30.8 93.55 30.8 93.55 19.75 96.4 19.75 96.9 21.15 97.15 21.15
Q 97.7 20.4 98.4 19.95 99.35 19.55 100.3 19.55 102.75 19.65 103.65 21
L 104 21
Q 104.45 20.4 105.3 19.95 106.25 19.55 107.15 19.55 109.15 19.65 110.05 20.55
M 86.9 17
Q 86.9 16.25 87.4 15.75 87.85 15.35 89 15.35 90 15.35 90.55 15.75 91.05 16.25 91.05 17 91.05 18.75 89 18.75 86.9 18.75 86.9 17
M 87.05 19.75
L 90.9 19.75 90.9 30.8 87.05 30.8 87.05 19.75
M 61.5 15.65
L 65.3 15.65 65.3 30.8 61.5 30.8 61.5 15.65
M 72 19.55
Q 74.5 19.65 75.85 20.9 77.25 22.15 77.25 24.65
L 77.25 26.35 70.35 26.35
Q 70.4 27.3 71.05 27.85 71.8 28.35 72.8 28.35
L 74.65 28.15 76.5 27.45 76.5 30.2
Q 75.6 30.8 74.65 30.8
L 72.4 30.95
Q 69.65 31.1 68.1 29.55 66.55 28.2 66.55 25.35 66.55 22.6 68 21.05 69.35 19.55 72 19.55
M 45.25 23.25
L 45.25 23.4
Q 46.55 23.7 47.1 24.5 47.75 25.4 47.75 26.65 47.75 28.65 46.25 29.7 44.85 30.8 42.25 30.8
L 36.75 30.8 36.75 16.55 41.75 16.55
Q 44.6 16.6 46 17.4 47.5 18.3 47.5 20.15 47.4 21.45 46.8 22.15 46.25 23.1 45.25 23.25
M 57 20.25
Q 58.15 20.95 58.95 22.25 59.55 23.6 59.55 25.25 59.55 28.05 58.1 29.5 56.7 31 54 31 51.5 31.1 50 29.5 48.5 28 48.5 25.25 48.6 22.55 50 21.05 51.5 19.55 54.05 19.55 55.65 19.6 57 20.25
M 85.6 19.75
L 85.6 22.65 82.95 22.65 82.95 27
Q 82.85 28 83.95 28 84.8 28.1 85.8 27.65
L 85.8 30.4 84.3 30.85 82.7 30.95
Q 80.8 31 79.95 30.1 79.05 29.2 79.05 27.2
L 79.05 22.6 77.75 22.6 77.75 21.05 79.4 19.85 80.4 17.55 82.9 17.55 82.9 19.75 85.6 19.75
M 54.05 22.4
Q 53.2 22.4 52.75 23.15 52.45 23.9 52.45 25.25 52.45 26.75 52.75 27.5 53.2 28.25 54.05 28.25 55 28.25 55.3 27.5 55.7 26.7 55.7 25.25 55.7 23.8 55.3 23.15 55 22.4 54.05 22.4
M 41.85 24.9
L 40.55 24.9 40.55 27.85 42 27.85
Q 43.75 27.9 43.75 26.3 43.85 25.7 43.25 25.25 42.85 24.9 41.85 24.9
M 41.7 19.5
L 40.55 19.5 40.55 22.1 41.75 22.1
Q 42.65 22 43 21.75 43.5 21.35 43.5 20.7 43.5 19.5 41.7 19.5
M 73.3 22.65
Q 72.8 22.15 72.15 22.15 71.55 22.15 71.05 22.65 70.55 23.05 70.5 23.9
L 73.8 23.9
Q 73.7 23.05 73.3 22.65
M 150.35 23.15
Q 150.05 22.4 149.1 22.4 148.25 22.4 147.8 23.15 147.45 24.05 147.45 25.25 147.45 26.65 147.8 27.5 148.25 28.25 149.1 28.25 150.05 28.25 150.35 27.5 150.75 26.7 150.75 25.25 150.75 23.8 150.35 23.15
M 190.65 26.75
L 190.65 25.9 189.8 25.9
Q 187.9 26.05 187.9 27.3 187.9 28.35 189.05 28.35 189.7 28.35 190.15 27.9 190.65 27.55 190.65 26.75
M 227.75 22.4
Q 226.85 22.4 226.4 23.15 226.05 24.05 226.05 25.25 226.05 26.65 226.4 27.5 226.85 28.25 227.75 28.25 228.65 28.25 229 27.5 229.35 26.65 229.35 25.25 229.35 23.85 229 23.15 228.65 22.4 227.75 22.4 Z"/>
</g>

<g id="icone_4_svg_0_Layer0_0_MEMBER_1_FILL">
<path fill="#54656B" stroke="none" d="
M 58.95 22.25
Q 58.2 21.05 57 20.25 55.65 19.6 54.05 19.55 51.55 19.55 49.95 21.05 48.6 22.6 48.5 25.25 48.5 28 50 29.5 51.5 31.1 54 31 56.7 31 58.1 29.5 59.55 28.05 59.55 25.25 59.55 23.6 58.95 22.25
M 52.75 23.15
Q 53.2 22.4 54.05 22.4 55 22.4 55.3 23.15 55.7 23.8 55.7 25.25 55.7 26.7 55.3 27.5 55 28.25 54.05 28.25 53.2 28.25 52.75 27.5 52.45 26.75 52.45 25.25 52.45 23.9 52.75 23.15
M 45.25 23.4
L 45.25 23.25
Q 46.25 23.1 46.8 22.15 47.4 21.45 47.5 20.15 47.5 18.3 46 17.4 44.6 16.6 41.75 16.55
L 36.75 16.55 36.75 30.8 42.25 30.8
Q 44.85 30.8 46.25 29.7 47.75 28.65 47.75 26.65 47.75 25.4 47.1 24.5 46.55 23.7 45.25 23.4
M 43 21.75
Q 42.55 22.05 41.75 22.1
L 40.55 22.1 40.55 19.5 41.7 19.5
Q 43.5 19.5 43.5 20.7 43.5 21.35 43 21.75
M 40.55 27.9
L 40.55 24.9 41.85 24.9
Q 42.85 24.9 43.25 25.3 43.85 25.65 43.75 26.35 43.75 27.9 42 27.9
L 40.55 27.9
M 75.85 20.85
Q 74.45 19.65 72 19.55 69.4 19.55 67.95 21.1 66.55 22.65 66.5 25.4 66.5 28.15 68.05 29.6 69.55 31.1 72.4 31
L 74.65 30.85
Q 75.6 30.8 76.5 30.25
L 76.5 27.5 74.7 28.1 72.8 28.3
Q 71.7 28.3 71.05 27.8 70.4 27.3 70.4 26.3
L 77.25 26.3 77.25 24.65
Q 77.25 22.25 75.85 20.85
M 71.05 22.65
Q 71.4 22.15 72.15 22.15 72.8 22.15 73.3 22.65 73.75 23.25 73.8 23.9
L 70.5 23.9
Q 70.6 23.05 71.05 22.65
M 65.3 15.65
L 61.5 15.65 61.5 30.8 65.3 30.8 65.3 15.65
M 90.9 19.75
L 87.05 19.75 87.05 30.8 90.9 30.8 90.9 19.75
M 85.65 19.75
Q 85.65 19.8 82.9 19.8
L 82.9 17.6 80.4 17.6 79.4 19.9 77.75 21.1 77.75 22.65 79.05 22.65 79.05 27.25
Q 79.05 29.15 79.9 30.1 80.75 31 82.65 31
L 84.3 30.85 85.75 30.4 85.75 27.65
Q 84.6 28.05 83.9 28 82.9 28 82.9 27
L 82.9 22.65 85.65 22.65 85.65 19.75
M 89 15.35
Q 87.85 15.35 87.4 15.75 86.9 16.25 86.9 17 86.9 18.75 89 18.75 91.05 18.75 91.05 17 91.05 16.25 90.55 15.75 90.1 15.35 89 15.35
M 110.05 20.55
Q 109 19.6 107.15 19.6 106.1 19.6 105.3 20 104.45 20.4 104 21
L 103.65 21
Q 102.75 19.65 100.3 19.55 99.35 19.55 98.4 19.95 97.7 20.4 97.15 21.15
L 96.9 21.15 96.4 19.75 93.55 19.75 93.55 30.8 97.35 30.8 97.35 26
Q 97.35 24.25 97.75 23.35 98.2 22.65 99.1 22.55 99.75 22.55 100.05 23.2 100.3 23.65 100.3 24.8
L 100.3 30.8 104.15 30.8 104.15 25.7
Q 104.15 24.2 104.55 23.3 105 22.55 105.85 22.55 106.55 22.55 106.8 23.2 107.1 23.75 107.1 24.8
L 107.1 30.8 111 30.8 111 23.7
Q 111 21.65 110.05 20.55
M 121.65 30.8
L 121.65 16.55 117.75 16.55 117.75 30.8 121.65 30.8
M 131 19.55
Q 129.95 19.55 129.05 19.95 128.15 20.4 127.7 21.15
L 127.45 21.15 126.95 19.75 124.1 19.75 124.1 30.8 127.9 30.8 127.9 26
Q 127.9 24.2 128.35 23.35 128.75 22.55 129.75 22.55 130.45 22.55 130.75 23.15 131.05 23.95 131.05 24.8
L 131.05 30.8 134.9 30.8 134.9 23.65
Q 134.9 21.8 133.85 20.65 132.85 19.55 131 19.55
M 149.15 19.55
Q 146.55 19.55 145.05 21.05 143.65 22.55 143.55 25.25 143.55 28 145.05 29.5 146.55 31.1 149.05 31 151.75 31 153.15 29.5 154.6 28.05 154.6 25.25 154.6 23.6 154 22.25 153.2 20.95 152.05 20.25 150.7 19.6 149.15 19.55
M 147.8 23.15
Q 148.25 22.4 149.1 22.4 150.05 22.4 150.35 23.15 150.75 23.8 150.75 25.25 150.75 26.7 150.35 27.5 150.05 28.25 149.1 28.25 148.25 28.25 147.8 27.5 147.45 26.65 147.45 25.25 147.45 24.05 147.8 23.15
M 143.35 22.65
L 143.35 19.75 141 19.75 141 19.5
Q 141 18.9 141.15 18.65 141.4 18.3 141.8 18.4
L 143.15 18.5 144.05 16.05 142.4 15.65 141 15.55
Q 139.15 15.55 138.1 16.5 137.25 17.45 137.25 19.65
L 137.25 19.8 135.65 20.75 135.65 22.6 137.15 22.6 137.15 30.8 141 30.8 141 22.65 143.35 22.65
M 168.5 21.15
L 168 19.75 165.1 19.75 165.1 30.8 168.9 30.8 168.9 26
Q 168.9 24.25 169.3 23.35 169.75 22.65 170.65 22.55 171.3 22.55 171.6 23.2 171.85 23.65 171.85 24.8
L 171.85 30.8 175.7 30.8 175.7 25.7
Q 175.7 24.2 176.1 23.3 176.55 22.55 177.4 22.55 178.1 22.55 178.35 23.2 178.65 23.75 178.65 24.8
L 178.65 30.8 182.5 30.8 182.5 23.7
Q 182.5 21.55 181.55 20.6 180.7 19.6 178.7 19.6 177.65 19.6 176.85 20 176 20.4 175.55 21
L 175.25 21
Q 174.25 19.6 171.85 19.55 170.9 19.55 170 19.95 169.2 20.4 168.75 21.15
L 168.5 21.15
M 164.1 23.3
L 164.4 19.7 164.15 19.65 163.25 19.55
Q 162.5 19.55 161.55 20.1 160.7 20.7 160.15 21.55
L 160.05 21.55 159.4 19.75 156.55 19.75 156.55 30.8 160.35 30.8 160.35 25.45
Q 160.35 24.35 161 23.8 161.45 23.2 162.8 23.2
L 164.1 23.3
M 190.65 23.65
L 190.65 23.85 188.8 23.9
Q 186.5 24 185.25 24.85 184 25.8 184 27.5 184 29.25 184.9 30.15 185.75 31 187.35 31 188.7 31 189.45 30.7 190.25 30.4 191 29.4
L 191.1 29.4 191.8 30.85 194.45 30.85 194.45 23.6
Q 194.45 21.65 193.3 20.65 192.1 19.6 190 19.6 187.05 19.6 185.1 20.6
L 186.2 23.15
Q 188.15 22.3 189.3 22.25 190.65 22.25 190.65 23.65
M 190.65 25.9
L 190.65 26.8
Q 190.65 27.45 190.15 27.95 189.8 28.35 189.05 28.35 187.9 28.35 187.9 27.3 187.9 26.05 189.8 25.9
L 190.65 25.9
M 222.05 19.75
L 218.05 19.75 216.1 26.35 215.95 27.5 215.85 27.5 215.85 27.1 215.8 26.75 215.65 26.45 215.65 26.3 213.8 19.75 209.85 19.75 214.05 30.8 217.8 30.8 222.05 19.75
M 203.25 22.65
L 203.25 19.75 200.5 19.75 200.5 17.55 198 17.55 197 19.85 195.3 21.05 195.3 22.6 196.7 22.6 196.7 27.2
Q 196.7 29.25 197.55 30.1 198.4 31 200.3 30.95
L 201.95 30.85 203.4 30.4 203.4 27.65
Q 202.15 28.05 201.55 28 200.5 28 200.55 27
L 200.55 22.65 203.25 22.65
M 208.5 19.75
L 204.6 19.75 204.6 30.8 208.5 30.8 208.5 19.75
M 204.55 17
Q 204.55 18.75 206.6 18.75 208.6 18.75 208.65 17 208.65 16.25 208.15 15.75 207.7 15.35 206.6 15.35 205.45 15.35 205.05 15.75 204.55 16.2 204.55 17
M 227.75 19.55
Q 225.1 19.55 223.6 21.05 222.25 22.6 222.15 25.25 222.15 28 223.65 29.5 225.15 31.1 227.65 31 230.35 31 231.75 29.5 233.2 28.05 233.2 25.25 233.2 23.55 232.55 22.25 231.75 20.95 230.6 20.25 229.35 19.6 227.75 19.55
M 226.4 23.15
Q 226.85 22.4 227.75 22.4 228.65 22.4 229 23.15 229.35 23.85 229.35 25.25 229.35 26.65 229 27.5 228.65 28.25 227.75 28.25 226.85 28.25 226.4 27.5 226.05 26.65 226.05 25.25 226.05 24.05 226.4 23.15 Z"/>
</g>
</defs>

<g transform="matrix( 1, 0, 0, 1, 0,0) ">
<g transform="matrix( 1, 0, 0, 1, 0,0) ">
<use xlink:href="#icone_4_svg_0_Layer0_0_MEMBER_0_FILL"/>
</g>

<g transform="matrix( 1, 0, 0, 1, 0,0) ">
<use xlink:href="#icone_4_svg_0_Layer0_0_MEMBER_1_FILL"/>
</g>
</g>
</svg>
