
<svg xmlns="http://www.w3.org/2000/svg" version="1.1" xmlns:xlink="http://www.w3.org/1999/xlink" preserveAspectRatio="none" x="0px" y="0px" width="360px" height="45px" viewBox="0 0 360 45">
<defs>
<g id="icone_3_svg_0_Layer0_0_MEMBER_0_FILL">
<path fill="#E3E9D1" stroke="none" d="
M 303.8 15.35
Q 304.45 13.9 305.75 13.3 307.2 12.7 308.5 13.15
L 319.75 17.3 320.65 14.85 303.5 8.5 294.65 32.5 297.15 33.5 296.85 34.3 303.8 15.35
M 324 13.25
Q 324.7 14.65 324.1 16.1
L 323.2 18.6 321.9 18.15 325.7 19.55
Q 327.15 20.05 327.75 21.45 328.45 22.75 327.85 24.25
L 320.15 45.15 360 45.15 360 0 0 0 0 45.1 300.05 45.1 297.2 44.1
Q 295.75 43.55 295.15 42.15 294.5 40.85 295 39.4
L 295.9 36.95 293.4 36
Q 292.1 35.5 291.35 34.05 290.75 32.65 291.2 31.25
L 300.05 7.2
Q 300.65 5.8 302 5.2 303.45 4.55 304.75 5.1
L 322 11.4
Q 323.45 11.95 324 13.25
M 225.1 19.9
L 227.15 20.55 226.1 23 224.5 22.45 223.1 22.2
Q 222.2 22.2 222.2 22.65 222.2 23 222.5 23.15
L 226.15 24.9
Q 226.7 25.35 226.95 25.95 227.25 26.65 227.25 27.5 227.25 29.25 226 30.15 224.85 31 222.55 31
L 220.4 30.9 218.55 30.45 218.55 27.4 220.5 28.05 222.4 28.3
Q 223.65 28.3 223.65 27.75 223.6 27.5 223.3 27.2
L 221.25 26.3
Q 219.65 25.75 219.15 24.9 218.5 24.2 218.5 22.9 218.5 21.4 219.7 20.5 220.85 19.65 223.05 19.65
L 225.1 19.9
M 214.1 20.3
Q 215.3 21.1 216.05 22.3 216.7 23.75 216.7 25.3 216.7 28.05 215.25 29.55 213.8 31 211.15 31 208.65 31.15 207.15 29.5 205.65 28 205.65 25.3 205.65 22.65 207.1 21.1 208.6 19.6 211.2 19.6 212.75 19.65 214.1 20.3
M 204.6 20.5
L 203.5 23.35 202.15 22.85 201 22.65
Q 200.1 22.65 199.55 23.4 199.05 24.05 199.05 25.45 199.05 28.1 201 28.1 202.6 28.1 204.15 27.1
L 204.15 30.15
Q 202.85 31 201 31
L 200.9 31.15
Q 201.9 31.55 202.2 32.05 202.55 32.55 202.55 33.35 202.55 34.4 201.8 35.05 201.15 35.65 199.95 35.65 198.55 35.65 197.8 35.35
L 197.8 33.35 199.25 33.6
Q 199.75 33.6 199.75 33.15 199.75 32.9 199.4 32.6
L 198.35 32.25 199 30.9
Q 197.4 30.6 196.5 29.6 195.1 28.2 195.1 25.4 195.1 22.7 196.65 21.15 198.15 19.65 201 19.65 202.8 19.65 204.6 20.5
M 184.55 19.8
L 188.55 19.8 184.3 30.85 180.55 30.85 176.85 21.15 176.65 23.35 175.35 23.25
Q 174.1 23.25 173.55 23.85 172.9 24.35 172.9 25.5
L 172.9 30.9 169.1 30.9 169.1 19.8 172 19.8 172.6 21.6 172.75 21.6
Q 173.25 20.8 174.1 20.15 174.95 19.6 175.8 19.6
L 176.75 19.7 177 19.75 177 19.8 180.3 19.8 182.15 26.4 182.15 26.5 182.3 26.8 182.35 27.15 182.35 27.5 182.45 27.5 182.6 26.35 184.55 19.8
M 191.1 18.75
Q 189.05 18.8 189.05 17.05 189.05 16.25 189.55 15.8 190 15.35 191.1 15.35 192.15 15.35 192.65 15.8 193.15 16.3 193.15 17.05 193.15 18.75 191.1 18.75
M 189.1 19.8
L 193 19.8 193 30.85 189.1 30.85 189.1 19.8
M 162.6 19.65
Q 165.05 19.65 166.5 20.95 167.85 22.3 167.85 24.75
L 167.85 26.35 161 26.35
Q 161 27.4 161.7 27.85 162.25 28.35 163.45 28.35
L 165.3 28.15 167.1 27.5 167.1 30.25
Q 166.2 30.85 165.25 30.85
L 163 31
Q 160.25 31.15 158.7 29.6 157.15 28.25 157.15 25.45 157.15 22.7 158.6 21.15 159.95 19.65 162.6 19.65
M 151 19.5
Q 150.25 19.5 149.85 19.75 149.55 20.05 149.55 20.4 149.55 20.9 149.95 21.15
L 152.3 22.35
Q 154.15 23.25 154.9 24.15 155.6 25.15 155.6 26.55 155.65 27.85 155 28.9 154.35 29.9 153.05 30.5 151.85 31 150.05 31
L 147.65 30.85
Q 146.6 30.7 145.65 30.15
L 145.65 26.75 147.95 27.6
Q 149 27.95 150.15 27.95 151.05 27.95 151.4 27.65 151.8 27.4 151.8 26.85
L 151.65 26.35 151.1 25.9 149.2 25
Q 148 24.45 147.1 23.75 146.45 23.3 146.1 22.4 145.75 21.7 145.75 20.65 145.75 18.75 147.15 17.5 148.65 16.4 151.1 16.4 153.3 16.45 155.6 17.4
L 154.4 20.4
Q 152.45 19.5 151 19.5
M 123.9 15.7
L 127.75 15.7 127.75 30.9 124.9 30.9 124.05 29.55 123.9 29.55
Q 123 31.05 121 31.05 119.8 31.15 118.9 30.45 118.05 29.8 117.55 28.45 117.05 26.95 117.05 25.35 117.15 22.6 118.15 21.15 119.2 19.65 121.15 19.65 122.05 19.65 122.75 20 123.45 20.35 124.05 21.25
L 124.1 21.25 123.9 15.7
M 135.05 19.65
Q 137.5 19.65 138.9 20.9 140.3 22.25 140.3 24.75
L 140.3 26.4 133.45 26.4
Q 133.45 27.35 134.1 27.9 134.85 28.4 135.85 28.4
L 137.75 28.15 139.55 27.5 139.55 30.25
Q 138.65 30.85 137.7 30.85
L 135.45 31
Q 132.7 31.15 131.15 29.6 129.6 28.25 129.6 25.45 129.6 22.7 131.05 21.15 132.4 19.65 135.05 19.65
M 103.65 21.05
L 104 21.05
Q 104.45 20.45 105.3 20 106.15 19.65 107.15 19.65 109.15 19.65 110.05 20.65 111 21.7 111 23.75
L 111 30.85 107.15 30.85 107.15 24.85
Q 107.15 23.9 106.8 23.2 106.6 22.6 105.9 22.6 105.1 22.6 104.55 23.35 104.2 24.1 104.2 25.75
L 104.2 30.9 100.3 30.9 100.3 24.9
Q 100.3 23.7 100.05 23.25 99.75 22.65 99.15 22.65 98.3 22.65 97.8 23.45 97.4 24.1 97.4 26.05
L 97.4 30.85 93.55 30.85 93.55 19.8 96.4 19.8 96.9 21.2 97.15 21.2
Q 97.7 20.45 98.4 20 99.35 19.6 100.3 19.6 102.75 19.7 103.65 21.05
M 86.9 17.05
Q 86.9 16.3 87.4 15.8 87.95 15.35 89 15.35 90.05 15.35 90.55 15.8 91.05 16.3 91.05 17.05 91.05 18.75 89 18.75 86.9 18.85 86.9 17.05
M 82.9 19.8
L 85.6 19.8 85.6 22.65 82.9 22.65 82.9 27
Q 82.9 28.05 83.9 28.05 84.65 28.1 85.75 27.65
L 85.75 30.45 84.3 30.9 82.7 31
Q 80.8 31.05 79.95 30.15 79.05 29.25 79.05 27.25
L 79.05 22.65 77.75 22.65 77.75 21.1 79.4 19.9 80.4 17.6 82.9 17.6 82.9 19.8
M 87.05 19.8
L 90.9 19.8 90.9 30.85 87.05 30.85 87.05 19.8
M 61.5 15.7
L 65.3 15.7 65.3 30.9 61.5 30.9 61.5 15.7
M 72 19.65
Q 74.45 19.65 75.9 20.95 77.25 22.3 77.25 24.75
L 77.25 26.4 70.4 26.4
Q 70.4 27.35 71.05 27.9 71.8 28.4 72.8 28.4
L 74.7 28.15 76.5 27.5 76.5 30.25
Q 75.6 30.85 74.65 30.85
L 72.4 31
Q 69.65 31.15 68.1 29.6 66.55 28.25 66.55 25.45 66.55 22.7 68 21.15 69.35 19.65 72 19.65
M 45.25 23.3
L 45.25 23.45
Q 46.55 23.75 47.1 24.55 47.75 25.45 47.75 26.7 47.75 28.7 46.25 29.75 44.85 30.85 42.25 30.85
L 36.75 30.85 36.75 16.6 41.75 16.6
Q 44.6 16.65 46 17.45 47.5 18.35 47.5 20.15 47.4 21.5 46.8 22.2 46.25 23.15 45.25 23.3
M 54.05 19.6
Q 55.65 19.65 57 20.3 58.2 21.1 58.95 22.3 59.55 23.65 59.55 25.3 59.55 28.1 58.1 29.55 56.7 31 54 31 51.5 31.15 50 29.5 48.5 28 48.5 25.3 48.6 22.6 50 21.1 51.5 19.6 54.05 19.6
M 54.05 22.5
Q 53.2 22.5 52.75 23.25 52.45 23.95 52.45 25.35 52.45 26.8 52.75 27.55 53.2 28.3 54.05 28.3 55 28.3 55.3 27.55 55.7 26.75 55.7 25.35 55.7 23.85 55.3 23.25 55 22.5 54.05 22.5
M 42 27.95
Q 43.75 27.95 43.75 26.4 43.85 25.7 43.25 25.35 42.85 24.95 41.85 24.95
L 40.55 24.95 40.55 27.95 42 27.95
M 41.7 19.5
L 40.55 19.5 40.55 22.15 41.75 22.15
Q 42.7 22.05 43 21.75 43.5 21.4 43.5 20.75 43.5 19.5 41.7 19.5
M 73.3 22.75
Q 72.85 22.25 72.15 22.25 71.45 22.25 71.05 22.7 70.55 23.1 70.5 24
L 73.8 24
Q 73.7 23.1 73.3 22.75
M 134.1 22.7
Q 133.6 23.1 133.55 24
L 136.85 24
Q 136.75 23.1 136.35 22.75 135.9 22.25 135.2 22.25 134.55 22.25 134.1 22.7
M 123.8 23.3
Q 123.45 22.75 122.5 22.75 121.8 22.75 121.35 23.45 120.95 24.1 120.95 25.45 120.95 26.85 121.35 27.45 121.85 28.1 122.55 28.1 123.55 28.1 123.85 27.55 124.25 26.85 124.25 25.75
L 124.25 25.45
Q 124.25 23.95 123.8 23.3
M 163.85 22.75
Q 163.5 22.25 162.75 22.25 162.15 22.25 161.6 22.7 161.2 23.05 161.05 24
L 164.35 24
Q 164.35 23.15 163.85 22.75
M 201 30.85
L 199 30.85 199 30.9
Q 199.85 31.05 200.65 31
L 201 31 201 30.85
M 212.4 23.25
Q 212.1 22.5 211.15 22.5 210.3 22.5 209.85 23.25 209.5 24.05 209.5 25.35 209.5 26.7 209.85 27.55 210.3 28.3 211.15 28.3 212.1 28.3 212.4 27.55 212.8 26.75 212.8 25.35 212.8 23.85 212.4 23.25
M 310.6 45.15
L 316.3 45.15 324.5 23 307.3 16.65 298.45 40.7 310.6 45.15
M 316.9 32
L 315.75 35 306.15 31.55 307.3 28.45 316.9 32
M 319.35 25.25
L 318.2 28.25 308.55 24.75 309.7 21.75 319.35 25.25
M 304.75 35.2
L 314.35 38.75 313.25 41.75 303.6 38.25 304.75 35.2 Z"/>
</g>

<g id="icone_3_svg_0_Layer0_0_MEMBER_1_FILL">
<path fill="#54656B" stroke="none" d="
M 201 31
L 200.7 31
Q 199.85 31.05 199 30.9
L 198.35 32.25 199.4 32.6
Q 199.8 32.9 199.8 33.2 199.8 33.6 199.3 33.6
L 197.85 33.35 197.85 35.35
Q 198.75 35.7 199.95 35.7 201.05 35.7 201.85 35 202.6 34.4 202.6 33.3 202.6 32.7 202.25 32 201.85 31.5 200.9 31.15
L 201 31
M 203.5 23.35
L 204.6 20.5
Q 202.8 19.65 201 19.65 198.1 19.65 196.7 21.2 195.15 22.7 195.15 25.45 195.15 28.25 196.55 29.65 197.4 30.6 199 30.9
L 201.05 30.9 201 31
Q 202.85 31 204.15 30.15
L 204.15 27.05
Q 202.7 28.05 201 28.05 199.05 28.05 199.05 25.45 199.05 24.05 199.55 23.4 200.1 22.65 201 22.65
L 202.15 22.85 203.5 23.35
M 57 20.3
Q 55.65 19.65 54.05 19.6 51.45 19.6 49.95 21.1 48.6 22.65 48.5 25.3 48.5 28 50 29.5 51.5 31.15 54 31 56.7 31 58.1 29.55 59.55 28.1 59.55 25.3 59.55 23.65 58.95 22.3 58.2 21.1 57 20.3
M 52.75 23.25
Q 53.2 22.5 54.05 22.5 55 22.5 55.3 23.25 55.7 23.85 55.7 25.35 55.7 26.75 55.3 27.55 55 28.3 54.05 28.3 53.2 28.3 52.75 27.55 52.45 26.8 52.45 25.35 52.45 23.95 52.75 23.25
M 45.25 23.4
L 45.25 23.3
Q 46.25 23.15 46.8 22.25 47.4 21.5 47.5 20.2 47.5 18.4 46 17.5 44.6 16.65 41.75 16.65
L 36.75 16.65 36.75 30.85 42.25 30.85
Q 44.85 30.85 46.25 29.75 47.75 28.7 47.75 26.7 47.75 25.45 47.1 24.55 46.55 23.8 45.25 23.4
M 41.7 19.5
Q 43.5 19.5 43.5 20.75 43.5 21.4 43 21.75 42.7 22.05 41.75 22.15
L 40.55 22.15 40.55 19.5 41.7 19.5
M 43.25 25.35
Q 43.85 25.7 43.75 26.4 43.75 27.95 42 27.95
L 40.55 27.95 40.55 24.95 41.85 24.95
Q 42.85 24.95 43.25 25.35
M 75.85 20.9
Q 74.45 19.65 72 19.65 69.4 19.65 67.95 21.15 66.55 22.7 66.5 25.45 66.5 28.2 68.05 29.65 69.55 31.15 72.4 31
L 74.6 30.9
Q 75.65 30.85 76.5 30.25
L 76.5 27.5 74.65 28.15 72.8 28.35
Q 71.7 28.35 71.05 27.85 70.4 27.35 70.4 26.35
L 77.25 26.35 77.25 24.7
Q 77.25 22.3 75.85 20.9
M 71.05 22.7
Q 71.45 22.25 72.15 22.25 72.85 22.25 73.3 22.75 73.7 23.1 73.8 24
L 70.5 24
Q 70.6 23.1 71.05 22.7
M 65.3 15.7
L 61.5 15.7 61.5 30.9 65.3 30.9 65.3 15.7
M 90.9 19.8
L 87.05 19.8 87.05 30.85 90.9 30.85 90.9 19.8
M 85.6 19.8
L 82.9 19.8 82.9 17.65 80.4 17.65 79.4 19.9 77.7 21.15 77.7 22.65 79.05 22.65 79.05 27.25
Q 79.05 29.2 79.9 30.15 80.8 31.05 82.65 31
L 84.3 30.9 85.75 30.5 85.75 27.7
Q 84.6 28.1 83.9 28.05 82.9 28.05 82.9 27
L 82.9 22.65 85.6 22.65 85.6 19.8
M 89 15.35
Q 87.95 15.35 87.4 15.8 86.9 16.3 86.9 17.05 86.9 18.85 89 18.75 91.05 18.75 91.05 17.05 91.05 16.3 90.55 15.8 90.05 15.35 89 15.35
M 104.55 23.4
Q 105 22.65 105.85 22.65 106.6 22.65 106.8 23.25 107.1 23.8 107.1 24.85
L 107.1 30.85 111 30.85 111 23.75
Q 111 21.7 110.05 20.65 109.15 19.65 107.15 19.65 106.15 19.65 105.3 20 104.45 20.45 104 21.05
L 103.65 21.05
Q 102.75 19.7 100.3 19.6 99.35 19.6 98.4 20 97.7 20.45 97.15 21.2
L 96.9 21.2 96.4 19.8 93.55 19.8 93.55 30.85 97.35 30.85 97.35 26.05
Q 97.35 24.25 97.75 23.45 98.25 22.65 99.1 22.65 99.75 22.65 100.05 23.25 100.3 23.7 100.3 24.85
L 100.3 30.85 104.15 30.85 104.15 25.75
Q 104.15 24.2 104.55 23.4
M 138.9 20.9
Q 137.5 19.65 135 19.65 132.45 19.65 131 21.15 129.6 22.7 129.55 25.45 129.55 28.2 131.1 29.65 132.6 31.15 135.4 31
L 137.65 30.9
Q 138.7 30.85 139.55 30.25
L 139.55 27.5 137.75 28.15 135.85 28.35
Q 134.75 28.35 134.1 27.85 133.5 27.4 133.4 26.35
L 140.3 26.35 140.3 24.7
Q 140.3 22.3 138.9 20.9
M 133.55 24
Q 133.65 23.1 134.1 22.7 134.55 22.25 135.2 22.25 135.9 22.25 136.35 22.75 136.75 23.1 136.85 24
L 133.55 24
M 127.75 15.7
L 123.9 15.7 124.15 21.25 124.1 21.25
Q 123.55 20.4 122.8 20 122.05 19.65 121.2 19.6 119.2 19.6 118.2 21.15 117.15 22.7 117.05 25.35 117.05 27 117.55 28.4 118.05 29.85 118.95 30.4 119.85 31.15 121.05 31 123 31 123.95 29.5
L 124.05 29.5 124.9 30.9 127.75 30.9 127.75 15.7
M 122.5 22.7
Q 123.45 22.7 123.8 23.3 124.35 24.05 124.25 25.4
L 124.25 25.7
Q 124.25 26.85 123.85 27.5 123.6 28.05 122.55 28.05 121.8 28.05 121.35 27.4 120.95 26.85 120.95 25.4 120.95 24.05 121.35 23.4 121.85 22.75 122.5 22.7
M 151.1 16.4
Q 148.65 16.4 147.15 17.5 145.8 18.7 145.7 20.65 145.7 21.55 146.05 22.4 146.4 23.25 147.05 23.75 147.85 24.4 149.15 25
L 151.1 25.9 151.65 26.4 151.8 26.9
Q 151.8 27.4 151.4 27.7 151.05 28 150.15 28 149.25 28 147.95 27.65
L 145.65 26.8 145.65 30.2
Q 146.55 30.65 147.65 30.9
L 150.05 31
Q 151.85 31 153.05 30.5 154.35 29.9 155 28.9 155.65 27.85 155.6 26.55 155.6 25.15 154.9 24.15 154.1 23.2 152.3 22.4
L 149.95 21.15
Q 149.55 20.9 149.55 20.4 149.55 20.15 149.85 19.75 150.25 19.5 151 19.5 152.45 19.5 154.4 20.4
L 155.6 17.4
Q 153.3 16.45 151.1 16.4
M 167.85 24.7
Q 167.85 22.35 166.5 20.9 165 19.65 162.6 19.65 160 19.65 158.55 21.15 157.15 22.7 157.1 25.45 157.1 28.2 158.65 29.65 160.15 31.15 163 31
L 165.25 30.9
Q 166.25 30.85 167.1 30.25
L 167.1 27.5 165.3 28.15 163.4 28.35
Q 162.3 28.35 161.65 27.85 161 27.35 161 26.35
L 167.85 26.35 167.85 24.7
M 162.75 22.25
Q 163.5 22.25 163.85 22.75 164.35 23.1 164.35 24
L 161.05 24
Q 161.2 23 161.6 22.7 162.15 22.25 162.75 22.25
M 193 19.8
L 189.1 19.8 189.1 30.85 193 30.85 193 19.8
M 189.55 15.8
Q 189.05 16.25 189.05 17.05 189.05 18.8 191.1 18.75 193.15 18.75 193.15 17.05 193.15 16.3 192.65 15.8 192.15 15.35 191.1 15.35 190 15.35 189.55 15.8
M 188.55 19.8
L 184.55 19.8 182.6 26.4 182.45 27.55 182.35 27.55 182.35 27.2 182.3 26.8 182.15 26.5 182.15 26.35 180.3 19.8 177 19.8 177 19.75 176.75 19.7 175.8 19.6
Q 175.05 19.6 174.1 20.15 173.25 20.8 172.75 21.6
L 172.6 21.6 172 19.8 169.1 19.8 169.1 30.85 172.9 30.85 172.9 25.5
Q 172.9 24.4 173.5 23.85 174.1 23.25 175.3 23.25
L 176.6 23.35 176.85 21.15 180.55 30.85 184.3 30.85 188.55 19.8
M 214.1 20.3
Q 212.75 19.65 211.15 19.6 208.55 19.6 207.05 21.1 205.7 22.65 205.6 25.3 205.6 28 207.1 29.5 208.6 31.15 211.1 31 213.8 31 215.25 29.55 216.65 28.1 216.65 25.3 216.65 23.65 216.05 22.3 215.25 21 214.1 20.3
M 211.15 22.5
Q 212.1 22.5 212.4 23.25 212.8 23.85 212.8 25.35 212.8 26.75 212.4 27.55 212.1 28.3 211.15 28.3 210.3 28.3 209.85 27.55 209.5 26.7 209.5 25.35 209.5 24.05 209.85 23.25 210.3 22.5 211.15 22.5
M 225.1 19.9
L 223.05 19.65
Q 220.9 19.65 219.7 20.55 218.5 21.4 218.5 22.95 218.5 24 219.1 24.95 219.8 25.8 221.25 26.3
L 223.3 27.2
Q 223.6 27.5 223.65 27.75 223.65 28.3 222.4 28.3
L 220.5 28.05 218.55 27.4 218.55 30.45 220.4 30.9 222.55 31
Q 224.85 31 226 30.15 227.25 29.25 227.25 27.5 227.25 26.6 226.95 26 226.75 25.4 226.15 24.95
L 222.5 23.2
Q 222.2 23 222.2 22.7 222.2 22.25 223.1 22.25
L 224.5 22.5 226.1 23 227.1 20.6 225.1 19.9 Z"/>
</g>
</defs>

<g transform="matrix( 1, 0, 0, 1, 0,-0.05) ">
<g transform="matrix( 1, 0, 0, 1, 0,0) ">
<use xlink:href="#icone_3_svg_0_Layer0_0_MEMBER_0_FILL"/>
</g>

<g transform="matrix( 1, 0, 0, 1, 0,0) ">
<use xlink:href="#icone_3_svg_0_Layer0_0_MEMBER_1_FILL"/>
</g>
</g>
</svg>
