
<svg xmlns="http://www.w3.org/2000/svg" version="1.1" xmlns:xlink="http://www.w3.org/1999/xlink" preserveAspectRatio="none" x="0px" y="0px" width="360px" height="45px" viewBox="0 0 360 45">
<defs>
<g id="icone_11_svg_0_Layer0_0_MEMBER_0_FILL">
<path fill="#E3E9D1" stroke="none" d="
M 360 45.05
L 360 0 0 0 0 45.05 296.65 45.05
Q 296.5 44.55 296.65 43.85
L 303.55 14.5
Q 303.8 13.4 304.8 12.8 305.9 12.2 306.85 12.45
L 307.85 18.8 324.85 22.75 328.5 17.5
Q 329.55 17.8 330.2 18.75 330.85 19.85 330.55 20.85
L 324.85 45.05 360 45.05
M 309.05 12.95
L 313.15 13.9 315.45 10.45 321.65 11.9 322.1 16 326.35 17 323.75 20.5 309.85 17.25 309.05 12.95
M 208.25 22.5
Q 209.3 21.3 211.15 21.35 212.95 21.35 214 22.55 215.05 23.75 215.05 25.8 215.05 27.85 214 29.05 212.95 30.2 211.05 30.2 209.9 30.2 209.05 29.7 208.25 29.1 207.65 28.15 207.15 27 207.15 25.75 207.15 23.7 208.25 22.5
M 205.3 21.5
L 206.65 21.5 203.4 30 201.9 30 198.65 21.5 200 21.5 202.6 28.85 202.65 28.85 205.3 21.5
M 187.15 24.4
Q 187.15 23.4 186.8 22.85 186.35 22.4 185.4 22.4 184.35 22.4 182.95 23.05
L 182.55 22.05 183.95 21.5 185.45 21.3
Q 186.95 21.4 187.75 22 188.5 22.75 188.5 24.2
L 188.5 30 187.5 30 187.25 28.8 187.2 28.8
Q 186.65 29.55 185.9 29.9
L 184.35 30.15
Q 183 30.25 182.35 29.5 181.6 28.9 181.6 27.65 181.6 25.1 185.75 24.95
L 187.15 24.9 187.15 24.4
M 190.9 21.3
L 191.5 19.5 192.25 19.5 192.25 21.5 194.75 21.5 194.75 22.5 192.25 22.5 192.25 27.55
Q 192.25 28.35 192.6 28.75 193 29.15 193.6 29.15
L 194.3 29.1 194.8 29 194.8 30 193.4 30.2
Q 190.9 30.2 190.9 27.55
L 190.9 22.45 189.65 22.45 189.65 21.85 190.9 21.3
M 196.55 18.5
L 197.1 18.3 197.65 18.5 197.85 19.15 197.65 19.8 197.1 20 196.55 19.8 196.35 19.15 196.55 18.5
M 196.4 21.5
L 197.75 21.5 197.75 30 196.4 30 196.4 21.5
M 163.85 22.75
Q 163.4 23 163.4 23.55
L 163.55 24.1 164.15 24.55 165.65 25.2
Q 167.3 25.85 167.7 26.3 168.2 26.8 168.2 27.75 168.25 28.9 167.35 29.6 166.45 30.2 164.85 30.2 163.05 30.2 162.2 29.7
L 162.2 28.5 163.5 29 164.85 29.15
Q 165.85 29.15 166.45 28.85 166.95 28.55 166.95 27.85 167.05 27.4 166.55 27
L 163.15 25.4 162.4 24.6 162.15 23.6
Q 162.25 22.55 163 21.95 163.9 21.35 165.35 21.35 166.7 21.35 168.05 21.9
L 167.6 22.95
Q 166.4 22.45 165.25 22.45 164.25 22.45 163.85 22.75
M 170.4 22.5
L 169.15 22.5 169.15 21.85 170.4 21.3 171 19.5 171.75 19.5 171.75 21.5 174.25 21.5 174.25 22.5 171.75 22.5 171.75 27.55
Q 171.75 28.35 172.1 28.75 172.5 29.15 173.1 29.15
L 173.8 29.1 174.3 29 174.3 30 172.9 30.2
Q 170.4 30.2 170.4 27.6
L 170.4 22.5
M 175.9 21.5
L 177 21.5 177.1 23.05 177.25 23.05
Q 177.7 22.25 178.35 21.75 179.05 21.3 179.8 21.3
L 180.85 21.4 180.65 22.6 179.75 22.5
Q 178.7 22.5 178 23.35 177.25 24.25 177.25 25.5
L 177.25 30 175.9 30 175.9 21.5
M 146 18.5
L 146.55 18.3 147.1 18.5 147.3 19.15 147.1 19.8 146.55 20 146 19.8
Q 145.8 19.65 145.8 19.15 145.8 18.75 146 18.5
M 142.2 24.45
Q 142.2 23.55 141.8 22.9 141.3 22.4 140.4 22.4 139.2 22.5 138.65 23.15 138.05 23.9 138.05 25.25
L 138.05 30 136.75 30 136.75 24.5
Q 136.75 23.5 136.3 22.95 135.85 22.45 134.95 22.45 133.75 22.45 133.15 23.2 132.6 23.8 132.6 25.55
L 132.6 30 131.3 30 131.3 21.45 132.35 21.45 132.55 22.65 132.65 22.65
Q 132.9 22.15 133.65 21.65 134.45 21.3 135.15 21.3 137.1 21.4 137.8 22.75
L 137.85 22.75
Q 138.15 22.2 138.95 21.7 139.75 21.3 140.6 21.3 142.05 21.3 142.8 22.05 143.5 22.85 143.5 24.5
L 143.5 30 142.2 30 142.2 24.45
M 149.5 21.5
L 150.55 21.5 150.7 22.7 150.8 22.7
Q 151.2 22.05 151.9 21.7 152.6 21.35 153.55 21.35 155.1 21.35 155.9 22.1 156.65 22.85 156.65 24.5
L 156.65 30 155.35 30 155.35 24.55
Q 155.35 23.5 154.9 22.95 154.4 22.45 153.4 22.45 152.1 22.45 151.4 23.2 150.8 23.9 150.8 25.55
L 150.8 30 149.5 30 149.5 21.5
M 145.85 21.5
L 147.2 21.5 147.2 30 145.85 30 145.85 21.5
M 159.15 18.5
L 159.75 18.3 160.3 18.5 160.5 19.15 160.3 19.8 159.75 20 159.15 19.8 159 19.15 159.15 18.5
M 159.1 21.5
L 160.4 21.5 160.4 30 159.1 30 159.1 21.5
M 122.1 22.5
Q 123.1 21.3 124.75 21.3 126.5 21.4 127.4 22.55
L 127.5 22.55 127.4 17.9 128.75 17.9 128.75 30.05 127.65 30.05 127.5 28.95 127.4 28.95
Q 126.45 30.2 124.75 30.2 123.1 30.2 122.1 29.05 121.2 28 121.2 25.75 121.2 23.7 122.1 22.5
M 115.25 18.55
L 116.3 18.55 120.8 30 119.5 30 118.05 26.4 113.5 26.4 112.05 30 110.75 30 115.25 18.55
M 91.15 17.4
L 90 20.4 88.35 19.75 86.65 19.5
Q 85.45 19.55 84.5 20.65 83.75 21.85 83.75 23.75 83.75 27.85 86.9 27.85 87.9 27.9 88.7 27.6
L 90.5 26.95 90.5 30.25
Q 88.8 30.95 86.45 30.95 83.3 31.1 81.5 29.15 79.8 27.3 79.8 23.75 79.8 21.6 80.65 19.9 81.5 18.25 83.05 17.25 84.55 16.4 86.75 16.4 89 16.4 91.15 17.4
M 63.75 17.75
Q 65.2 19 65.1 21.1 65.1 23.55 63.7 24.8 62.35 26.1 59.7 26.1
L 58.55 26.1 58.55 30.8 54.75 30.8 54.75 16.55 59.7 16.55
Q 62.25 16.55 63.75 17.75
M 69.4 16.5
L 74.55 16.5 79.25 30.8 75 30.8 74.25 28.2 69.65 28.2 68.9 30.8 64.75 30.8 69.4 16.5
M 42.75 22.3
Q 44.6 23.2 45.35 24.1 46.05 25.1 46.05 26.5 46.1 27.8 45.45 28.85 44.8 29.85 43.5 30.45 42.3 30.95 40.5 30.95
L 38.05 30.8
Q 36.95 30.6 36.05 30.1
L 36.05 26.7 38.35 27.55
Q 39.45 27.9 40.55 27.9 41.5 27.9 41.85 27.6 42.25 27.35 42.25 26.8
L 42.1 26.3 41.55 25.85 39.65 25
Q 38.55 24.45 37.55 23.75 36.9 23.2 36.55 22.4 36.2 21.7 36.2 20.6 36.2 18.65 37.6 17.5 39 16.4 41.55 16.4 43.7 16.4 46.05 17.35
L 44.85 20.35
Q 42.9 19.45 41.45 19.45 40.7 19.45 40.3 19.7 40 20 40 20.35 40 20.85 40.4 21.1
L 42.75 22.3
M 48.25 16.55
L 52.1 16.55 52.1 30.8 48.25 30.8 48.25 16.55
M 70.5 25
L 73.5 25 72 18.9 70.5 25
M 59.55 19.7
L 58.55 19.7 58.55 23 59.3 23
Q 60.2 23 60.7 22.5 61.2 22 61.2 21.15 61.2 19.7 59.55 19.7
M 113.9 25.25
L 117.6 25.25 115.75 20 113.9 25.25
M 126.8 23.15
Q 126.2 22.4 124.85 22.4 123.85 22.4 123.1 23.3 122.5 24.2 122.5 25.8 122.5 27.4 123.1 28.25 123.75 29.1 124.95 29.1 126.3 29.1 126.8 28.35 127.45 27.7 127.45 26.05
L 127.45 25.75
Q 127.45 24 126.8 23.15
M 187.15 26.65
L 187.2 25.8 185.9 25.85
Q 184.3 25.95 183.65 26.35 182.95 26.75 182.95 27.65 182.95 28.45 183.4 28.75 183.9 29.15 184.6 29.15 185.85 29.15 186.5 28.5 187.15 27.85 187.15 26.65
M 213.05 23.25
Q 212.45 22.4 211.1 22.4 209.9 22.5 209.2 23.25 208.55 24.1 208.55 25.75 208.55 27.3 209.2 28.25 209.9 29.15 211.1 29.15 212.45 29.15 213.05 28.25 213.7 27.45 213.7 25.75 213.8 24.1 213.05 23.25 Z"/>
</g>

<g id="icone_11_svg_0_Layer0_0_MEMBER_1_FILL">
<path fill="#54656B" stroke="none" d="
M 169.15 22.45
L 170.4 22.45 170.4 27.55
Q 170.4 30.25 172.9 30.15
L 174.3 29.95 174.3 28.95 173.8 29.05 173.1 29.1
Q 172.45 29.1 172.1 28.75 171.75 28.35 171.75 27.55
L 171.75 22.5 174.25 22.5 174.25 21.5 171.75 21.5 171.75 19.55 171 19.55 170.4 21.35 169.15 21.9 169.15 22.45
M 52.1 16.55
L 48.25 16.55 48.25 30.8 52.1 30.8 52.1 16.55
M 46.05 17.4
Q 43.75 16.4 41.55 16.4 39 16.4 37.6 17.5 36.2 18.65 36.2 20.6 36.2 21.7 36.55 22.4 36.9 23.2 37.55 23.75 38.2 24.3 39.65 25
L 41.55 25.9 42.1 26.35 42.25 26.85
Q 42.25 27.35 41.85 27.65 41.5 27.95 40.6 27.95 39.7 27.95 38.4 27.6
L 36.1 26.75 36.1 30.15
Q 37.25 30.7 38.1 30.85
L 40.5 31
Q 42.1 31 43.5 30.5 44.75 29.9 45.45 28.9 46.1 27.8 46.05 26.5 46.05 25.05 45.35 24.15 44.6 23.15 42.75 22.35
L 40.4 21.15
Q 40 20.8 40 20.4 40 20.05 40.3 19.75 40.7 19.45 41.45 19.5 43.05 19.5 44.85 20.4
L 46.05 17.4
M 65.1 21.15
Q 65.1 18.95 63.75 17.75 62.25 16.55 59.7 16.55
L 54.75 16.55 54.75 30.8 58.55 30.8 58.55 26.15 59.7 26.15
Q 62.25 26.15 63.7 24.85 65.1 23.45 65.1 21.15
M 59.3 23
L 58.55 23 58.55 19.65 59.55 19.65
Q 61.2 19.65 61.2 21.15 61.2 22 60.7 22.5 60.2 23 59.3 23
M 74.55 16.5
L 69.4 16.5 64.75 30.8 68.9 30.8 69.7 28.2 74.3 28.2 75 30.8 79.25 30.8 74.55 16.5
M 73.5 25
L 70.5 25 72 18.9 73.5 25
M 91.15 17.4
Q 89.05 16.4 86.75 16.4 84.6 16.4 83.1 17.3 81.55 18.2 80.65 19.9 79.85 21.5 79.85 23.8 79.85 27.35 81.55 29.2 83.3 31.1 86.5 31 88.7 31 90.55 30.3
L 90.55 27 88.75 27.65
Q 88.05 27.9 86.9 27.9 83.75 27.9 83.75 23.75 83.75 21.85 84.5 20.65 85.45 19.55 86.65 19.5
L 88.4 19.75 90 20.4 91.15 17.4
M 116.3 18.55
L 115.25 18.55 110.75 30 112.05 30 113.5 26.4 118.05 26.4 119.5 30 120.8 30 116.3 18.55
M 117.6 25.25
L 113.9 25.25 115.8 20 117.6 25.25
M 124.75 21.3
Q 123.15 21.3 122.1 22.5 121.2 23.8 121.2 25.75 121.2 28 122.1 29.05 123.15 30.25 124.75 30.15 126.5 30.15 127.4 28.9
L 127.5 28.9 127.65 30 128.75 30 128.75 17.85 127.4 17.85 127.5 22.55 127.4 22.55
Q 126.5 21.4 124.75 21.3
M 123.15 23.3
Q 123.85 22.4 124.9 22.4 126.3 22.4 126.8 23.15 127.35 23.9 127.45 25.8
L 127.45 26.1
Q 127.45 27.65 126.85 28.4 126.25 29.15 124.95 29.15 123.75 29.15 123.15 28.25 122.55 27.5 122.55 25.8 122.55 24.2 123.15 23.3
M 160.4 21.5
L 159.1 21.5 159.1 30 160.4 30 160.4 21.5
M 159.75 18.3
L 159.15 18.5 159 19.15 159.15 19.8 159.75 20 160.3 19.8 160.5 19.15 160.3 18.5 159.75 18.3
M 147.2 21.5
L 145.85 21.5 145.85 30 147.2 30 147.2 21.5
M 150.55 21.5
L 149.5 21.5 149.5 30 150.8 30 150.8 25.55
Q 150.8 23.9 151.4 23.15 152.1 22.4 153.4 22.4 154.3 22.4 154.9 22.9 155.35 23.5 155.35 24.5
L 155.35 30 156.65 30 156.65 24.5
Q 156.65 22.85 155.9 22.1 155.1 21.35 153.55 21.35 152.6 21.35 151.95 21.7 151.15 22.1 150.85 22.7
L 150.75 22.7 150.55 21.5
M 141.8 22.95
Q 142.15 23.45 142.15 24.5
L 142.15 30 143.5 30 143.5 24.45
Q 143.5 22.85 142.8 22.05 142.05 21.3 140.55 21.35 139.55 21.35 138.9 21.75 138.2 22.1 137.8 22.8
L 137.75 22.8
Q 137.15 21.35 135.1 21.35 134.3 21.35 133.6 21.7 133 22.1 132.6 22.7
L 132.5 22.7 132.3 21.5 131.25 21.5 131.25 30 132.55 30 132.55 25.55
Q 132.55 23.9 133.1 23.2 133.8 22.45 134.9 22.45 135.85 22.45 136.3 22.95 136.75 23.5 136.75 24.5
L 136.75 30 138.05 30 138.05 25.3
Q 138.05 23.9 138.65 23.15 139.2 22.45 140.4 22.45 141.35 22.45 141.8 22.95
M 146.55 18.3
L 146 18.5
Q 145.8 18.75 145.8 19.15 145.8 19.65 146 19.8
L 146.55 20 147.1 19.8 147.3 19.15 147.1 18.5 146.55 18.3
M 177 21.5
L 175.9 21.5 175.9 30 177.25 30 177.25 25.5
Q 177.25 24.25 178 23.4 178.75 22.5 179.75 22.55
L 180.65 22.65 180.85 21.45 179.8 21.35
Q 179.05 21.35 178.35 21.8 177.65 22.35 177.25 23.1
L 177.1 23.1 177 21.5
M 163.85 22.75
Q 164.25 22.4 165.3 22.4 166.15 22.4 167.65 22.9
L 168.1 21.85
Q 166.65 21.35 165.4 21.3 163.9 21.3 163.05 21.9 162.25 22.5 162.15 23.55
L 162.4 24.55 163.15 25.4 166.6 27
Q 167 27.35 167 27.85 167 28.5 166.5 28.85 165.9 29.15 164.9 29.15
L 163.55 29 162.25 28.5 162.25 29.7
Q 163.05 30.2 164.85 30.2 166.45 30.2 167.35 29.6 168.25 29 168.25 27.75 168.25 26.9 167.75 26.25 167.15 25.75 165.7 25.15
L 164.2 24.5 163.55 24.05 163.45 23.5
Q 163.45 23 163.85 22.75
M 197.75 21.5
L 196.4 21.5 196.4 30 197.75 30 197.75 21.5
M 197.1 18.3
L 196.55 18.5 196.35 19.15 196.55 19.8 197.1 20 197.65 19.8 197.85 19.15 197.65 18.5 197.1 18.3
M 191.5 19.5
L 190.9 21.3 189.65 21.85 189.65 22.45 190.9 22.45 190.9 27.55
Q 190.9 30.25 193.4 30.15
L 194.8 29.95 194.8 28.95 194.3 29.05 193.6 29.1
Q 192.95 29.1 192.6 28.75 192.25 28.25 192.25 27.5
L 192.25 22.5 194.75 22.5 194.75 21.5 192.25 21.5 192.25 19.5 191.5 19.5
M 186.8 22.9
Q 187.15 23.4 187.15 24.4
L 187.15 24.95 185.75 25
Q 181.6 25.1 181.6 27.7 181.6 28.9 182.35 29.55 183 30.2 184.35 30.2
L 185.9 29.95
Q 186.7 29.5 187.2 28.8
L 187.25 28.8 187.5 30 188.5 30 188.5 24.25
Q 188.5 22.75 187.75 22 186.95 21.4 185.45 21.3
L 183.95 21.5 182.55 22.05 182.95 23.05
Q 184.4 22.4 185.4 22.4 186.3 22.4 186.8 22.9
M 185.85 25.9
L 187.15 25.85 187.15 26.65
Q 187.15 27.85 186.45 28.5 185.85 29.15 184.55 29.15 183.95 29.15 183.35 28.8 182.9 28.45 182.9 27.7 182.9 26.8 183.6 26.4 184.45 25.9 185.85 25.9
M 211.15 21.35
Q 209.25 21.35 208.25 22.5 207.15 23.7 207.2 25.75 207.2 27.15 207.7 28.1 208.2 29.1 209.1 29.7 209.95 30.2 211.1 30.2 213 30.2 214.05 29.05 215.1 27.85 215.1 25.8 215.1 23.75 214.05 22.55 212.95 21.35 211.15 21.35
M 211.1 22.4
Q 212.45 22.4 213.05 23.25 213.8 24.1 213.7 25.75 213.7 27.45 213.05 28.25 212.45 29.15 211.1 29.15 209.9 29.15 209.2 28.25 208.55 27.3 208.55 25.75 208.55 24.1 209.2 23.25 209.9 22.5 211.1 22.4
M 206.65 21.5
L 205.3 21.5 202.7 28.85 202.65 28.85 200.05 21.5 198.65 21.5 201.9 30 203.4 30 206.65 21.5 Z"/>
</g>
</defs>

<g transform="matrix( 1, 0, 0, 1, 0,0) ">
<g transform="matrix( 1, 0, 0, 1, 0,0) ">
<use xlink:href="#icone_11_svg_0_Layer0_0_MEMBER_0_FILL"/>
</g>

<g transform="matrix( 1, 0, 0, 1, 0,0) ">
<use xlink:href="#icone_11_svg_0_Layer0_0_MEMBER_1_FILL"/>
</g>
</g>
</svg>
