
<svg xmlns="http://www.w3.org/2000/svg" version="1.1" xmlns:xlink="http://www.w3.org/1999/xlink" preserveAspectRatio="none" x="0px" y="0px" width="360px" height="45px" viewBox="0 0 360 45">
<defs>
<g id="icone_9_svg_0_Layer0_0_MEMBER_0_FILL">
<path fill="#E3E9D1" stroke="none" d="
M 360 45.15
L 360 0 0 0 0 45.15 294.25 45.15 294.65 40.5
Q 294.8 39.05 297.6 38.25 300 37.5 301.1 36.5 302 35.6 302.3 33.8 302.3 33.15 301.8 32.3 301.3 31.5 301.2 30.05 301.2 29.8 300.7 29.3 300.15 28.75 300.25 27.45 300.25 26.95 300.4 26.7
L 300.65 26.3 300.8 26.2 300.7 23.55
Q 300.8 21.9 302.1 20.35 303.45 18.75 306.3 19.05 309.25 19.35 310.2 21.15 311.25 22.95 310.95 24.55
L 310.4 27.2
Q 310.85 27.4 310.75 28.45 310.45 29.8 309.95 30.2 309.4 30.5 309.3 30.8 308.85 32.3 308.3 32.95 307.65 33.65 307.55 34.3 307.4 36.1 308.15 37.2 308.85 38.15 311.3 39.55 316.9 42.6 316.75 44.05
L 316.65 45.15 319.3 45.15 319.4 43.95
Q 319.65 42.25 318.65 41.25 317.9 40.3 314.05 37.95 315.4 37 315.6 35.3 315.6 34.85 315.2 34.2 314.8 33.55 314.8 32.55 314.8 32.25 314.4 31.95 314.05 31.65 314.1 30.6 314.1 29.8 314.55 29.65
L 314.45 27.7
Q 314.45 26.55 315.4 25.3 316.45 24.1 318.6 24.3 320.75 24.55 321.55 25.9 322.35 27.2 322.05 28.45
L 321.65 30.35
Q 322 30.65 322 31.35 321.75 32.5 321.35 32.7 321 32.85 320.85 33.15 320.55 34.25 320.1 34.7 319.6 35.35 319.6 35.75 319.45 37.1 320.05 37.85 320.65 38.7 322.35 39.7 325.8 41.45 326.3 42.6 326.45 43.05 326.4 44.6
L 326.4 45.15 360 45.15
M 315.85 10.6
Q 316.55 10.85 317.7 11.6
L 320 13.55 320.3 13.95
Q 317.85 12.3 315.6 12.6 313.5 12.75 310.25 14.45
L 311.95 17.75 303.9 15.5 306.85 7.8 308.35 10.7
Q 309.8 10.05 311.1 9.85 312.35 9.6 313.65 9.9 314.35 10 315.85 10.6
M 208.15 23.75
Q 208.15 22.3 206.85 22.3 205.7 22.35 203.75 23.15
L 202.65 20.65
Q 204.5 19.65 207.55 19.65 209.7 19.65 210.85 20.65 212 21.8 212 23.65
L 212 30.85 209.3 30.85 208.6 29.4 208.5 29.4
Q 207.8 30.35 206.95 30.7 206.2 31 204.85 31 203.35 31.1 202.4 30.15 201.5 29.25 201.5 27.5 201.5 25.85 202.75 24.85 204.05 24.05 206.3 23.95
L 208.15 23.85 208.15 23.75
M 188.05 24.65
L 188.05 19.8 191.85 19.8 191.85 30.9 188.95 30.9 188.5 29.5 188.25 29.5
Q 187.8 30.35 186.95 30.65 186.1 31 184.95 31 183.05 31.1 182.1 30 181.05 28.95 181.05 27
L 181.05 19.8 184.9 19.8 184.9 25.85
Q 184.9 27.05 185.2 27.5 185.5 28.05 186.2 28.05 187.25 28.05 187.6 27.3 188.05 26.55 188.05 24.65
M 194.15 22.65
L 192.8 22.65 192.8 21.1 194.5 19.9 195.5 17.6 198 17.6 198 19.8 200.7 19.8 200.7 22.65 198 22.65 198 27
Q 198 28.05 199 28.05 199.75 28.1 200.85 27.65
L 200.85 30.45 199.4 30.9 197.8 31
Q 195.9 31.05 195.05 30.15 194.15 29.25 194.15 27.25
L 194.15 22.65
M 167.1 22.65
Q 166.25 22.65 165.8 23.45 165.4 24.1 165.4 26.05
L 165.4 30.85 161.6 30.85 161.6 19.8 164.4 19.8 164.9 21.2 165.15 21.2
Q 165.7 20.45 166.4 20 167.35 19.6 168.3 19.6 170.75 19.7 171.65 21.05
L 172 21.05
Q 172.45 20.45 173.3 20 174.15 19.65 175.15 19.65 177.05 19.65 178.05 20.65 179 21.7 179 23.75
L 179 30.85 175.1 30.85 175.1 24.85
Q 175.1 23.8 174.8 23.2 174.6 22.6 173.85 22.6 173 22.6 172.55 23.35 172.2 24.1 172.2 25.75
L 172.2 30.85 168.3 30.85 168.3 24.85
Q 168.3 23.7 168.05 23.25 167.75 22.65 167.1 22.65
M 142.55 21.15
Q 143.9 19.65 146.55 19.65 149 19.65 150.45 20.95 151.8 22.3 151.8 24.75
L 151.8 26.4 144.95 26.4
Q 144.95 27.35 145.6 27.9 146.35 28.4 147.35 28.4
L 149.25 28.15 151.05 27.5 151.05 30.25
Q 150.15 30.85 149.2 30.85
L 146.95 31
Q 144.2 31.15 142.65 29.6 141.1 28.25 141.1 25.45 141.1 22.7 142.55 21.15
M 153.1 19.8
L 155.95 19.8 156.55 21.6 156.7 21.6
Q 157.2 20.8 158.05 20.15 159 19.6 159.75 19.6
L 160.7 19.7 160.95 19.75 160.6 23.35 159.3 23.25
Q 158.05 23.25 157.5 23.85 156.9 24.4 156.9 25.5
L 156.9 30.85 153.1 30.85 153.1 19.8
M 134.25 16.6
Q 136.95 16.6 138.3 17.8 139.65 19.05 139.7 21.15 139.7 23.5 138.25 24.85 136.95 26.15 134.25 26.15
L 133.15 26.15 133.15 30.85 129.3 30.85 129.3 16.6 134.25 16.6
M 123.25 24.75
L 123.25 26.35 116.4 26.35
Q 116.4 27.4 117.1 27.85 117.65 28.35 118.85 28.35
L 120.7 28.15 122.5 27.5 122.5 30.25
Q 121.6 30.85 120.65 30.85
L 118.4 31
Q 115.65 31.15 114.1 29.6 112.55 28.25 112.55 25.45 112.55 22.7 114 21.15 115.35 19.65 118 19.65 120.4 19.65 121.9 20.9 123.25 22.25 123.25 24.75
M 104.15 19.65
Q 105 19.65 105.7 20 106.4 20.35 107 21.25
L 107.05 21.25 106.9 15.7 110.75 15.7 110.75 30.9 107.9 30.9 107.05 29.55 106.9 29.55
Q 105.95 31.05 104 31.05 102.8 31.15 101.9 30.45 101.05 29.8 100.55 28.45 100.05 27.15 100.05 25.35 100.05 22.7 101.15 21.15 102.15 19.65 104.15 19.65
M 91.5 20.3
Q 92.5 20.95 93.45 22.3 94.05 23.65 94.05 25.3 94.05 28.1 92.65 29.55 91.2 31 88.55 31 86.05 31.15 84.55 29.5 83.05 28 83.05 25.3 83.05 22.65 84.5 21.1 86 19.6 88.55 19.6 90.15 19.7 91.5 20.3
M 81.55 27.05
L 81.55 30.1
Q 80.15 31 78.05 31 75.45 31.15 73.9 29.6 72.5 28.2 72.5 25.45 72.5 22.75 74.05 21.2 75.55 19.65 78.35 19.65 80.2 19.65 82 20.5
L 80.9 23.35 79.55 22.85 78.4 22.65
Q 77.5 22.65 76.95 23.4 76.45 24.05 76.45 25.45 76.45 28.05 78.4 28.05 80.1 28.05 81.55 27.05
M 67.15 23.25
Q 66.95 22.65 66.15 22.65 65.15 22.65 64.8 23.45 64.35 24.2 64.35 26.1
L 64.35 30.9 60.55 30.9 60.55 19.85 63.4 19.85 63.9 21.25 64.1 21.25
Q 64.55 20.45 65.5 20 66.25 19.65 67.4 19.65 69.35 19.65 70.25 20.75 71.3 21.75 71.3 23.75
L 71.3 30.85 67.5 30.85 67.5 24.85
Q 67.5 23.85 67.15 23.25
M 45.25 23.3
L 45.25 23.45
Q 46.55 23.75 47.1 24.55 47.75 25.45 47.75 26.7 47.75 28.7 46.25 29.75 44.85 30.85 42.25 30.85
L 36.75 30.85 36.75 16.6 41.75 16.6
Q 44.6 16.65 46 17.45 47.5 18.35 47.5 20.15 47.4 21.5 46.8 22.2 46.25 23.15 45.25 23.3
M 50.6 23.15
L 49.5 20.65
Q 51.45 19.65 54.45 19.65 56.6 19.65 57.75 20.65 58.9 21.8 58.9 23.65
L 58.9 30.85 56.2 30.85 55.5 29.4 55.4 29.4
Q 54.7 30.35 53.85 30.7 53.1 31 51.75 31 50.3 31.05 49.3 30.15 48.45 29.2 48.45 27.5 48.45 25.8 49.7 24.85 50.85 24.05 53.25 23.9
L 55.1 23.85 55.1 23.7
Q 55.1 22.3 53.75 22.3 52.65 22.35 50.6 23.15
M 313.05 21.5
Q 311.95 21.05 311.15 20.5
L 309.7 19.4 308.5 18.15
Q 311.05 19.8 313.2 19.5 315.4 19.25 318.55 17.65
L 316.85 14.35 325 16.5 322 24.25 320.5 21.35
Q 319.2 22 317.75 22.25 316.4 22.4 315.25 22.2 314.45 22.05 313.05 21.5
M 53.45 28.45
Q 54 28.45 54.55 28 55.05 27.5 55.05 26.85
L 55.05 26 54.25 26
Q 52.3 26.1 52.3 27.35 52.3 28.45 53.45 28.45
M 41.85 24.9
L 40.55 24.9 40.55 27.95 42 27.95
Q 43.75 27.95 43.75 26.35 43.85 25.75 43.25 25.3 42.75 24.9 41.85 24.9
M 40.55 19.5
L 40.55 22.15 41.75 22.15
Q 42.7 22.05 43 21.75 43.5 21.4 43.5 20.75 43.5 19.5 41.7 19.5
L 40.55 19.5
M 89.8 23.25
Q 89.5 22.5 88.55 22.5 87.7 22.5 87.25 23.25 86.9 24.05 86.9 25.35 86.9 26.7 87.25 27.55 87.7 28.3 88.55 28.3 89.5 28.3 89.8 27.55 90.2 26.75 90.2 25.35 90.2 23.85 89.8 23.25
M 105.5 22.75
Q 104.75 22.75 104.3 23.45 103.9 24.25 103.9 25.45 103.9 26.85 104.3 27.45 104.8 28.1 105.5 28.1 106.5 28.1 106.8 27.55 107.2 26.95 107.25 25.75
L 107.25 25.45
Q 107.25 24.05 106.8 23.35 106.35 22.75 105.5 22.75
M 119.8 24
Q 119.7 23.1 119.3 22.75 118.85 22.25 118.15 22.25 117.5 22.25 117.05 22.7 116.55 23.1 116.5 24
L 119.8 24
M 134.1 19.75
L 133.1 19.75 133.1 23.05 133.85 23.05
Q 134.75 23.05 135.25 22.55 135.75 22.05 135.75 21.2 135.75 19.75 134.1 19.75
M 145.6 22.65
Q 145.15 23.15 145.05 23.95
L 148.35 23.95
Q 148.25 23.1 147.85 22.7 147.35 22.2 146.7 22.2 146.15 22.2 145.6 22.65
M 208.15 26.85
L 208.15 26 207.3 26
Q 205.4 26.1 205.4 27.35 205.4 28.45 206.55 28.45 207.1 28.45 207.65 28 208.15 27.5 208.15 26.85 Z"/>
</g>

<g id="icone_9_svg_0_Layer0_0_MEMBER_1_FILL">
<path fill="#54656B" stroke="none" d="
M 155.95 19.8
L 153.05 19.8 153.05 30.85 156.85 30.85 156.85 25.5
Q 156.85 24.4 157.5 23.85 158.05 23.25 159.3 23.25
L 160.6 23.35 160.95 19.75 160.7 19.7 159.75 19.6
Q 159 19.6 158.05 20.15 157.2 20.8 156.7 21.6
L 156.55 21.6 155.95 19.8
M 49.5 20.65
L 50.6 23.2
Q 52.6 22.35 53.75 22.35 55.1 22.35 55.1 23.75
L 55.1 23.9 53.25 23.95
Q 50.85 24.05 49.7 24.9 48.45 25.8 48.45 27.55 48.45 29.35 49.3 30.2 50.15 31.05 51.75 31.05 53.1 31.05 53.85 30.75 54.6 30.45 55.45 29.45
L 55.5 29.45 56.25 30.9 58.85 30.9 58.85 23.65
Q 58.85 21.75 57.75 20.65 56.5 19.65 54.4 19.65 51.45 19.65 49.5 20.65
M 54.55 28
Q 54.1 28.4 53.45 28.45 52.3 28.45 52.3 27.35 52.3 26.15 54.25 26
L 55.05 26 55.05 26.85
Q 55.05 27.55 54.55 28
M 45.25 23.4
L 45.25 23.3
Q 46.25 23.15 46.8 22.25 47.4 21.5 47.5 20.2 47.5 18.4 46 17.5 44.6 16.65 41.75 16.65
L 36.75 16.65 36.75 30.85 42.25 30.85
Q 44.85 30.85 46.25 29.75 47.75 28.7 47.75 26.7 47.75 25.45 47.1 24.55 46.55 23.8 45.25 23.4
M 40.55 22.15
L 40.55 19.5 41.7 19.5
Q 43.5 19.5 43.5 20.75 43.5 21.4 43 21.75 42.7 22.05 41.75 22.15
L 40.55 22.15
M 40.55 24.9
L 41.85 24.9
Q 42.75 24.9 43.25 25.3 43.85 25.75 43.75 26.35 43.75 27.95 42 27.9
L 40.55 27.9 40.55 24.9
M 66.15 22.65
Q 66.95 22.65 67.15 23.2 67.5 23.9 67.5 24.85
L 67.5 30.85 71.35 30.85 71.35 23.7
Q 71.35 21.75 70.3 20.7 69.3 19.6 67.45 19.6 66.4 19.6 65.5 20 64.65 20.4 64.1 21.2
L 63.85 21.2 63.35 19.8 60.5 19.8 60.5 30.85 64.3 30.85 64.3 26.05
Q 64.3 24.4 64.75 23.4 65.2 22.65 66.15 22.65
M 81.55 30.1
L 81.55 27.05
Q 80.1 28.05 78.4 28.05 76.45 28.05 76.45 25.45 76.45 24.05 76.95 23.4 77.5 22.65 78.4 22.65
L 79.6 22.85 80.9 23.35 82 20.5
Q 80.2 19.65 78.4 19.65 75.5 19.65 74.1 21.2 72.55 22.7 72.55 25.45 72.55 28.25 73.95 29.65 75.4 31.15 78.05 31 80.25 31 81.55 30.1
M 91.5 20.3
Q 90.15 19.7 88.55 19.6 85.95 19.6 84.45 21.1 83.1 22.65 83 25.3 83 28 84.5 29.5 86 31.15 88.5 31 91.2 31 92.6 29.55 94.05 28.1 94.05 25.3 94.05 23.6 93.4 22.3 92.55 20.95 91.5 20.3
M 88.55 22.5
Q 89.5 22.5 89.8 23.25 90.2 23.85 90.2 25.35 90.2 26.75 89.8 27.55 89.5 28.3 88.55 28.3 87.7 28.3 87.25 27.55 86.9 26.7 86.9 25.35 86.9 24.05 87.25 23.25 87.7 22.5 88.55 22.5
M 105.75 20
Q 104.95 19.65 104.15 19.65 102.15 19.65 101.15 21.15 100.05 22.7 100.05 25.35 100.05 27.2 100.55 28.4 100.95 29.75 101.9 30.4 102.8 31.15 104 31 105.95 31 106.9 29.5
L 107.05 29.5 107.9 30.9 110.75 30.9 110.75 15.7 106.9 15.7 107.1 21.25 107.05 21.25
Q 106.5 20.4 105.75 20
M 104.3 23.45
Q 104.75 22.75 105.5 22.75 106.4 22.75 106.8 23.3 107.25 24.2 107.25 25.4
L 107.25 25.7
Q 107.2 26.9 106.8 27.5 106.55 28.05 105.5 28.05 104.75 28.05 104.3 27.45 103.9 26.75 103.9 25.45 103.9 24.1 104.3 23.45
M 139.65 21.15
Q 139.65 19 138.3 17.8 136.95 16.65 134.2 16.65
L 129.25 16.65 129.25 30.9 133.1 30.9 133.1 26.2 134.25 26.2
Q 136.85 26.2 138.25 24.9 139.65 23.5 139.65 21.15
M 134.1 19.75
Q 135.75 19.75 135.75 21.15 135.75 22.1 135.25 22.5 134.75 23.1 133.85 23
L 133.1 23 133.1 19.75 134.1 19.75
M 123.25 24.7
Q 123.25 22.25 121.9 20.9 120.4 19.65 117.95 19.65 115.4 19.65 113.95 21.15 112.55 22.7 112.5 25.45 112.5 28.2 114.05 29.65 115.55 31.15 118.4 31
L 120.65 30.9
Q 121.65 30.85 122.5 30.25
L 122.5 27.5 120.7 28.15 118.8 28.35
Q 117.7 28.35 117.05 27.85 116.4 27.35 116.4 26.35
L 123.25 26.35 123.25 24.7
M 119.3 22.75
Q 119.75 23.2 119.8 24
L 116.5 24
Q 116.6 23.1 117.05 22.7 117.45 22.25 118.15 22.25 118.85 22.25 119.3 22.75
M 151.8 24.7
Q 151.8 22.3 150.4 20.9 149 19.65 146.55 19.65 143.9 19.65 142.55 21.15 141.15 22.65 141.05 25.45 141.05 28.2 142.6 29.65 144.1 31.15 146.9 31
L 149.15 30.9
Q 150.2 30.85 151.05 30.25
L 151.05 27.5 149.25 28.15 147.35 28.35
Q 146.25 28.35 145.6 27.85 145 27.4 144.9 26.35
L 151.8 26.35 151.8 24.7
M 145.05 23.95
Q 145.15 23.15 145.6 22.65 145.95 22.3 146.7 22.2 147.35 22.2 147.85 22.7 148.25 23.1 148.35 23.95
L 145.05 23.95
M 167.1 22.65
Q 167.8 22.65 168.05 23.25 168.3 23.7 168.3 24.9
L 168.3 30.9 172.2 30.9 172.2 25.75
Q 172.2 24.1 172.55 23.4 173 22.65 173.85 22.65 174.6 22.65 174.8 23.25 175.1 23.8 175.1 24.85
L 175.1 30.85 179 30.85 179 23.75
Q 179 21.7 178.05 20.65 177.15 19.65 175.15 19.65 174.15 19.65 173.3 20 172.45 20.45 172 21.05
L 171.7 21.05
Q 170.7 19.65 168.3 19.6 167.35 19.6 166.45 20 165.65 20.45 165.2 21.2
L 164.95 21.2 164.45 19.8 161.55 19.8 161.55 30.85 165.35 30.85 165.35 26.05
Q 165.35 24.3 165.75 23.4 166.2 22.65 167.1 22.65
M 194.5 19.9
L 192.8 21.15 192.8 22.65 194.15 22.65 194.15 27.25
Q 194.15 29.25 195.05 30.15 195.9 31.05 197.8 31
L 199.4 30.9 200.85 30.5 200.85 27.7
Q 199.7 28.1 199 28.05 198 28.05 198 27
L 198 22.7 200.7 22.7 200.7 19.85 198 19.85 198 17.65 195.5 17.65 194.5 19.9
M 191.85 19.8
L 188.05 19.8 188.05 24.65
Q 188.05 26.45 187.55 27.3 187.25 28.05 186.2 28.05 185.5 28.05 185.2 27.5 184.9 27.05 184.9 25.85
L 184.9 19.8 181.05 19.8 181.05 27
Q 181.05 28.95 182.1 30 183.1 31.1 184.95 31 186.1 31 186.95 30.65 187.8 30.35 188.25 29.5
L 188.5 29.5 188.95 30.85 191.85 30.85 191.85 19.8
M 203.7 23.2
Q 205.7 22.35 206.8 22.35 208.15 22.35 208.15 23.75
L 208.2 23.75 208.2 23.85 206.3 23.95
Q 204.05 24.05 202.75 24.85 201.5 25.8 201.5 27.5 201.5 29.25 202.4 30.15 203.35 31.1 204.85 31 206.2 31 206.95 30.7 207.8 30.35 208.5 29.4
L 208.6 29.4 209.3 30.9 211.95 30.9 211.95 23.65
Q 211.95 21.7 210.8 20.7 209.6 19.65 207.5 19.65 204.55 19.65 202.6 20.65
L 203.7 23.2
M 208.15 26
L 208.15 26.85
Q 208.15 27.55 207.65 28 207.2 28.4 206.55 28.45 205.4 28.45 205.4 27.35 205.4 26.15 207.3 26
L 208.15 26 Z"/>
</g>
</defs>

<g transform="matrix( 1, 0, 0, 1, 0,-0.05) ">
<g transform="matrix( 1, 0, 0, 1, 0,0) ">
<use xlink:href="#icone_9_svg_0_Layer0_0_MEMBER_0_FILL"/>
</g>

<g transform="matrix( 1, 0, 0, 1, 0,0) ">
<use xlink:href="#icone_9_svg_0_Layer0_0_MEMBER_1_FILL"/>
</g>
</g>
</svg>
