
<svg xmlns="http://www.w3.org/2000/svg" version="1.1" xmlns:xlink="http://www.w3.org/1999/xlink" preserveAspectRatio="none" x="0px" y="0px" width="360px" height="45px" viewBox="0 0 360 45">
<defs>
<g id="icone_7_svg_0_Layer0_0_MEMBER_0_FILL">
<path fill="#E3E9D1" stroke="none" d="
M 360 45.15
L 360 0 0 0 0 45.15 360 45.15
M 325.85 19.3
L 325.85 20 303.25 42.45 293.35 44.6 295.5 34.6 318 12.2
Q 320.2 11.75 323.25 14.65 324.6 16 325.2 17.35 325.85 18.9 325.85 19.3
M 206.8 25.3
Q 206.8 28.05 205.35 29.55 203.9 31 201.25 31 198.75 31.15 197.25 29.5 195.75 28 195.75 25.3 195.75 22.65 197.2 21.1 198.7 19.6 201.3 19.6 202.85 19.65 204.2 20.3 205.35 21 206.15 22.3 206.8 23.75 206.8 25.3
M 163.1 19.65
Q 165.6 19.65 167.05 20.95 168.4 22.3 168.4 24.75
L 168.4 26.4 161.55 26.4
Q 161.55 27.35 162.25 27.9 162.9 28.4 164 28.4
L 165.85 28.15 167.65 27.5 167.65 30.25
Q 166.75 30.85 165.8 30.85
L 163.55 31
Q 160.8 31.15 159.25 29.6 157.7 28.25 157.7 25.45 157.7 22.7 159.1 21.15 160.55 19.65 163.1 19.65
M 168.85 22.65
L 168.85 21.1 170.55 19.9 171.55 17.6 174.05 17.6 174.05 19.8 176.75 19.8 176.75 22.65 174.05 22.65 174.05 27
Q 174.05 28.05 175.05 28.05 175.85 28.1 176.95 27.65
L 176.95 30.45 175.5 30.9 173.85 31
Q 171.95 31.05 171.1 30.15 170.25 29.3 170.25 27.25
L 170.25 22.65 168.85 22.65
M 180.15 15.4
Q 181.3 15.4 181.75 15.8 182.25 16.3 182.25 17.05 182.25 18.75 180.15 18.75 178.1 18.85 178.1 17.05 178.1 16.25 178.6 15.85 179.05 15.4 180.15 15.4
M 178.25 19.8
L 182.1 19.8 182.1 30.85 178.25 30.85 178.25 19.8
M 142.1 21.15
Q 143.55 19.65 146.15 19.65 148.6 19.65 150.05 20.95 151.4 22.3 151.4 24.75
L 151.4 26.4 144.55 26.4
Q 144.55 27.35 145.25 27.9 145.9 28.4 147 28.4
L 148.85 28.15 150.65 27.5 150.65 30.25
Q 149.75 30.85 148.8 30.85
L 146.55 31
Q 143.8 31.15 142.25 29.6 140.7 28.25 140.7 25.45 140.7 22.7 142.1 21.15
M 152.65 15.7
L 156.5 15.7 156.5 30.9 152.65 30.9 152.65 15.7
M 130.65 23.75
Q 130 23.25 129.65 22.4 129.3 21.55 129.3 20.6 129.35 18.75 130.75 17.5 132.25 16.4 134.7 16.4 136.9 16.45 139.2 17.4
L 138 20.4
Q 136.05 19.5 134.55 19.5 133.85 19.5 133.45 19.75 133.15 20.05 133.15 20.4 133.15 20.9 133.55 21.15
L 135.9 22.35
Q 137.75 23.25 138.5 24.15 139.2 25.15 139.2 26.55 139.3 27.9 138.55 28.9 138 29.9 136.6 30.5 135.45 31 133.6 31
L 131.25 30.85
Q 130.1 30.65 129.25 30.15
L 129.25 26.75 131.55 27.6
Q 132.6 27.95 133.75 27.95 134.65 27.95 135 27.65 135.35 27.45 135.35 26.85
L 135.25 26.35 134.65 25.9 132.8 25
Q 131.55 24.5 130.65 23.75
M 123.15 25.3
Q 123.15 28.1 121.75 29.55 120.3 31 117.65 31 115.15 31.15 113.65 29.5 112.15 28 112.15 25.3 112.15 22.65 113.55 21.1 115.05 19.6 117.7 19.6 119.3 19.7 120.55 20.3 121.7 21 122.5 22.3 123.15 23.6 123.15 25.3
M 102 22.9
Q 102 21.35 103.2 20.5 104.4 19.6 106.55 19.6
L 108.6 19.85 110.6 20.55 109.55 23 107.95 22.45 106.55 22.2
Q 105.65 22.2 105.65 22.65 105.65 22.95 105.9 23.2
L 109.55 24.95
Q 110.2 25.45 110.35 26 110.65 26.6 110.65 27.5 110.75 29.25 109.4 30.15 108.25 31 106 31
L 103.8 30.9 102 30.45 102 27.4 103.95 28.05 105.85 28.3
Q 107.1 28.3 107.1 27.75 107.05 27.5 106.75 27.2
L 104.7 26.3
Q 103.2 25.75 102.6 24.9 102 24.15 102 22.9
M 81.05 21.15
Q 82.5 19.65 85.05 19.65 87.5 19.65 89 20.9 90.25 22.15 90.35 24.75
L 90.35 26.35 83.5 26.35
Q 83.5 27.4 84.2 27.85 84.75 28.35 85.95 28.35
L 87.8 28.15 89.6 27.5 89.6 30.25
Q 88.7 30.85 87.75 30.85
L 85.5 31
Q 82.75 31.15 81.2 29.6 79.65 28.25 79.65 25.45 79.65 22.7 81.05 21.15
M 91.5 22.9
Q 91.5 21.4 92.65 20.5 93.85 19.6 96 19.6
L 98.05 19.85 100.05 20.55 99 23 97.4 22.5 96 22.25
Q 95.1 22.25 95.1 22.7 95.1 23 95.4 23.2
L 99.05 24.95
Q 99.7 25.45 99.85 26 100.15 26.6 100.15 27.5 100.25 29.25 98.9 30.15 97.75 31 95.5 31
L 93.3 30.9 91.5 30.45 91.5 27.4 93.45 28.05 95.35 28.3
Q 96.6 28.3 96.6 27.75 96.55 27.5 96.25 27.2
L 94.2 26.3
Q 92.7 25.8 92.05 24.9 91.5 24.2 91.5 22.9
M 62.2 19.65
Q 63.75 19.65 65.05 20.3 66.2 21 67 22.3 67.65 23.6 67.65 25.3 67.65 28.1 66.25 29.55 64.8 31 62.1 31 59.6 31.15 58.1 29.5 56.6 28 56.6 25.3 56.65 22.7 58.05 21.15 59.55 19.65 62.2 19.65
M 74.95 22.6
Q 74.1 22.6 73.5 23.35 73 24.2 73 25.4 73 28.05 74.95 28.05 76.7 28.05 78.15 27.05
L 78.15 30.1
Q 76.75 31 74.65 31 72.05 31.15 70.5 29.6 69.1 28.2 69.1 25.4 69.1 22.7 70.65 21.15 72.15 19.65 75 19.65 76.8 19.65 78.55 20.45
L 77.45 23.3 76.15 22.8 74.95 22.6
M 45.75 17.8
Q 47.15 19.15 47.1 21.15 47.1 23.55 45.7 24.85 44.35 26.15 41.7 26.15
L 40.55 26.15 40.55 30.85 36.75 30.85 36.75 16.6 41.7 16.6
Q 44.35 16.6 45.75 17.8
M 52.6 21.65
Q 53.15 20.8 54 20.15 54.8 19.65 55.7 19.65
L 56.65 19.7 56.9 19.75 56.55 23.35 55.25 23.25
Q 54 23.25 53.45 23.85 52.85 24.4 52.85 25.5
L 52.85 30.85 49.05 30.85 49.05 19.8 51.9 19.8 52.5 21.65 52.6 21.65
M 191.6 19.8
L 195.6 19.8 191.35 30.85 187.6 30.85 183.45 19.8 187.35 19.8 189.25 26.4 189.25 26.5 189.45 27.15 189.45 27.5 189.55 27.5 189.7 26.35 191.6 19.8
M 41.3 23
Q 42.2 23.05 42.7 22.55 43.2 22.05 43.2 21.2 43.2 19.75 41.55 19.75
L 40.55 19.75 40.55 23 41.3 23
M 63.45 23.25
Q 63.1 22.5 62.2 22.5 61.3 22.5 60.85 23.25 60.5 24.05 60.5 25.35 60.5 26.7 60.85 27.55 61.3 28.3 62.2 28.3 63.1 28.3 63.45 27.55 63.75 26.8 63.75 25.35 63.85 23.95 63.45 23.25
M 85.25 22.25
Q 84.55 22.25 84.1 22.7 83.7 23.05 83.55 24
L 86.85 24
Q 86.85 23.1 86.35 22.75 86 22.25 85.25 22.25
M 117.65 22.5
Q 116.8 22.5 116.35 23.25 116 24.05 116 25.35 116 26.7 116.35 27.55 116.8 28.3 117.65 28.3 118.6 28.3 118.9 27.55 119.25 26.85 119.25 25.35 119.35 23.9 118.9 23.25 118.6 22.5 117.65 22.5
M 145.15 22.65
Q 144.75 23.05 144.6 23.95
L 147.9 23.95
Q 147.9 23.15 147.4 22.7 147 22.2 146.3 22.2 145.8 22.2 145.15 22.65
M 164.4 22.75
Q 164.05 22.25 163.3 22.25 162.7 22.25 162.15 22.7 161.75 23.05 161.6 24
L 164.9 24
Q 164.9 23.1 164.4 22.75
M 202.55 27.5
Q 202.85 26.8 202.9 25.3 202.9 23.9 202.55 23.2 202.2 22.45 201.3 22.45 200.4 22.45 200 23.2 199.6 24 199.6 25.3 199.6 26.7 200 27.5 200.4 28.25 201.3 28.25 202.2 28.25 202.55 27.5
M 301.55 36.35
Q 300.55 35.4 299.7 34.95 298.65 34.35 298.25 34.35
L 297.6 34.25 296.75 35.25 296 38.6
Q 297.2 39.35 297.85 40 298.85 41.05 299.35 42
L 302.75 41.25 303.7 40.25
Q 303.65 38.45 301.55 36.35 Z"/>
</g>

<g id="icone_7_svg_0_Layer0_0_MEMBER_1_FILL">
<path fill="#54656B" stroke="none" d="
M 52.6 21.65
L 52.5 21.65 51.85 19.8 49 19.8 49 30.9 52.8 30.9 52.8 25.5
Q 52.8 24.4 53.4 23.85 54 23.25 55.2 23.25
L 56.5 23.4 56.85 19.75 56.6 19.75 55.7 19.65
Q 54.8 19.65 54 20.15 53.15 20.8 52.6 21.65
M 47.1 21.15
Q 47.1 19 45.75 17.8 44.4 16.65 41.7 16.65
L 36.75 16.65 36.75 30.9 40.55 30.9 40.55 26.2 41.65 26.2
Q 44.25 26.2 45.65 24.9 47.1 23.5 47.1 21.15
M 42.7 22.5
Q 42.2 23.1 41.3 23
L 40.55 23 40.55 19.7 41.55 19.7
Q 43.2 19.7 43.2 21.15 43.2 22.1 42.7 22.5
M 78.55 20.5
Q 76.85 19.65 75 19.65 72.1 19.65 70.7 21.2 69.1 22.75 69.1 25.45 69.1 28.15 70.5 29.65 72 31.15 74.65 31 76.8 31 78.15 30.15
L 78.15 27.05
Q 76.7 28.05 75 28.05 73.05 28.05 73.05 25.45 73.05 24.05 73.55 23.4 74.1 22.65 75 22.65
L 76.15 22.85 77.5 23.35 78.55 20.5
M 67 22.35
Q 66.25 21.1 65.05 20.35 63.8 19.65 62.2 19.65 59.55 19.65 58.1 21.1 56.65 22.65 56.65 25.3 56.65 28 58.15 29.5 59.65 31.15 62.15 31 64.8 31 66.2 29.6 67.65 28.15 67.65 25.35 67.65 23.6 67 22.35
M 60.85 23.25
Q 61.3 22.5 62.2 22.5 63.1 22.5 63.45 23.25 63.85 23.95 63.75 25.35 63.75 26.8 63.45 27.55 63.1 28.3 62.2 28.3 61.3 28.3 60.85 27.55 60.5 26.7 60.5 25.35 60.5 24.05 60.85 23.25
M 92.65 20.5
Q 91.5 21.35 91.5 22.9 91.5 24.2 92.05 24.95 92.65 25.8 94.15 26.3
L 96.2 27.2
Q 96.55 27.55 96.55 27.75 96.55 28.3 95.3 28.3
L 93.4 28.05 91.5 27.4 91.5 30.45 93.3 30.9 95.5 31
Q 97.8 31 98.95 30.15 100.2 29.25 100.2 27.5 100.2 26.85 99.9 25.95 99.65 25.3 99.05 24.9
L 95.45 23.2
Q 95.15 23 95.15 22.7 95.15 22.25 96.05 22.25
L 97.45 22.5 99.05 23 100.05 20.6 98.05 19.9 96 19.65
Q 93.85 19.65 92.65 20.5
M 90.3 24.7
Q 90.3 22.3 89 20.9 87.5 19.65 85.05 19.65 82.5 19.65 81.05 21.15 79.65 22.7 79.6 25.45 79.6 28.2 81.15 29.65 82.65 31.15 85.5 31
L 87.75 30.9
Q 88.75 30.8 89.55 30.25
L 89.55 27.5 87.75 28.15 85.9 28.35
Q 84.8 28.35 84.15 27.85 83.5 27.35 83.5 26.35
L 90.3 26.35 90.3 24.7
M 84.1 22.7
Q 84.55 22.25 85.25 22.25 85.95 22.25 86.4 22.75 86.85 23.2 86.85 24
L 83.55 24
Q 83.7 23 84.1 22.7
M 103.15 20.55
Q 101.95 21.4 101.95 22.95 101.95 24.15 102.55 24.95 103.15 25.8 104.65 26.3
L 106.7 27.2
Q 107.05 27.55 107.05 27.75 107.05 28.3 105.8 28.3
L 103.9 28.05 102 27.4 102 30.5 103.8 30.9 106 31
Q 108.3 31 109.45 30.15 110.7 29.25 110.7 27.5 110.7 26.65 110.4 25.95 110.15 25.35 109.6 24.9
L 105.95 23.15
Q 105.65 23 105.65 22.65 105.65 22.25 106.55 22.25
L 107.95 22.5 109.55 23 110.55 20.6 108.55 19.9 106.5 19.65
Q 104.35 19.65 103.15 20.55
M 121.75 29.55
Q 123.15 28.1 123.15 25.3 123.15 23.6 122.5 22.3 121.7 21 120.55 20.3 119.3 19.7 117.65 19.6 115.05 19.6 113.55 21.1 112.2 22.65 112.1 25.3 112.1 28 113.6 29.5 115.1 31.15 117.6 31 120.3 31 121.75 29.55
M 116.35 23.25
Q 116.8 22.5 117.65 22.5 118.6 22.5 118.9 23.25 119.35 23.9 119.25 25.35 119.25 26.85 118.9 27.55 118.6 28.3 117.65 28.3 116.8 28.3 116.35 27.55 116 26.7 116 25.35 116 24.05 116.35 23.25
M 129.65 22.4
Q 130 23.25 130.65 23.75 131.55 24.5 132.8 25
L 134.65 25.9 135.25 26.4 135.35 26.9
Q 135.35 27.4 135 27.7 134.65 28 133.75 28 132.85 28 131.55 27.65
L 129.25 26.8 129.25 30.2
Q 130.05 30.6 131.25 30.9
L 133.6 31
Q 135.45 31 136.6 30.5 138 29.9 138.55 28.9 139.3 27.9 139.2 26.55 139.2 25.15 138.5 24.15 137.7 23.2 135.9 22.4
L 133.55 21.15
Q 133.15 20.9 133.15 20.4 133.15 20.15 133.45 19.75 133.85 19.5 134.55 19.5 136.05 19.5 138 20.4
L 139.2 17.4
Q 136.9 16.45 134.7 16.4 132.25 16.4 130.75 17.5 129.4 18.7 129.3 20.65 129.3 21.55 129.65 22.4
M 156.5 15.7
L 152.65 15.7 152.65 30.9 156.5 30.9 156.5 15.7
M 151.35 24.7
Q 151.35 22.25 150 20.9 148.6 19.65 146.1 19.65 143.55 19.65 142.1 21.15 140.7 22.7 140.65 25.45 140.65 28.2 142.25 29.65 143.75 31.15 146.55 31
L 148.75 30.9
Q 149.8 30.85 150.6 30.25
L 150.6 27.5 148.8 28.15 146.95 28.35
Q 145.85 28.35 145.2 27.85 144.6 27.4 144.5 26.35
L 151.35 26.35 151.35 24.7
M 144.6 23.95
Q 144.75 23.05 145.15 22.65 145.7 22.25 146.3 22.2 147 22.2 147.4 22.7 147.9 23.15 147.9 23.95
L 144.6 23.95
M 182.1 19.8
L 178.25 19.8 178.25 30.85 182.1 30.85 182.1 19.8
M 181.75 15.85
Q 181.3 15.4 180.15 15.4 179.05 15.4 178.6 15.8 178.1 16.3 178.1 17.05 178.1 18.85 180.15 18.75 182.25 18.75 182.25 17.05 182.25 16.35 181.75 15.85
M 170.55 19.9
L 168.85 21.15 168.85 22.65 170.25 22.7 170.25 27.3
Q 170.25 29.3 171.1 30.15 171.85 31.05 173.85 31.05
L 175.5 30.9 176.95 30.5 176.95 27.7
Q 175.7 28.1 175.05 28.05 174.05 28.05 174.05 27
L 174.05 22.7 176.75 22.7 176.75 19.85 174.05 19.85 174.05 17.65 171.55 17.65 170.55 19.9
M 167 20.9
Q 165.6 19.65 163.1 19.65 160.55 19.65 159.1 21.15 157.7 22.7 157.65 25.45 157.65 28.2 159.25 29.65 160.75 31.15 163.55 31
L 165.75 30.9
Q 166.8 30.85 167.6 30.25
L 167.6 27.5 165.8 28.15 163.95 28.35
Q 162.85 28.35 162.2 27.85 161.6 27.4 161.5 26.35
L 168.35 26.35 168.35 24.7
Q 168.35 22.25 167 20.9
M 164.4 22.75
Q 164.9 23.1 164.9 24
L 161.6 24
Q 161.75 23 162.15 22.7 162.7 22.25 163.3 22.25 164.05 22.25 164.4 22.75
M 187.35 19.8
L 183.4 19.8 187.6 30.85 191.35 30.85 195.6 19.8 191.6 19.8 189.65 26.4 189.55 27.55 189.4 27.55 189.4 27.2 189.35 26.8 189.25 26.5 189.25 26.35 187.35 19.8
M 206.8 25.3
Q 206.8 23.7 206.1 22.3 205.25 20.95 204.15 20.3 202.9 19.65 201.3 19.6 198.65 19.6 197.15 21.1 195.75 22.65 195.75 25.3 195.75 28 197.25 29.5 198.75 31.15 201.25 31 203.9 31 205.35 29.55 206.8 28.05 206.8 25.3
M 202.55 23.2
Q 202.9 23.9 202.9 25.3 202.9 26.65 202.55 27.5 202.2 28.25 201.3 28.25 200.4 28.25 200 27.5 199.6 26.7 199.6 25.3 199.6 24 200 23.2 200.4 22.45 201.3 22.45 202.2 22.45 202.55 23.2 Z"/>
</g>
</defs>

<g transform="matrix( 1, 0, 0, 1, 0,-0.1) ">
<g transform="matrix( 1, 0, 0, 1, 0,0) ">
<use xlink:href="#icone_7_svg_0_Layer0_0_MEMBER_0_FILL"/>
</g>

<g transform="matrix( 1, 0, 0, 1, 0,0) ">
<use xlink:href="#icone_7_svg_0_Layer0_0_MEMBER_1_FILL"/>
</g>
</g>
</svg>
