
<svg xmlns="http://www.w3.org/2000/svg" version="1.1" xmlns:xlink="http://www.w3.org/1999/xlink" preserveAspectRatio="none" x="0px" y="0px" width="360px" height="45px" viewBox="0 0 360 45">
<defs>
<g id="icone_10_svg_0_Layer0_0_MEMBER_0_FILL">
<path fill="#E3E9D1" stroke="none" d="
M 325.7 34.6
L 328.8 34.35 319.3 25.75
Q 319.1 24.1 316.65 23.05 315.35 22.4 314 22.55 312.7 22.7 312.35 23.55 312.05 24.45 312.75 25.45 313.45 26.45 314.85 27.05 315.9 27.5 316.25 27.5
L 325.7 34.6
M 325.85 35.6
L 325.65 34.6 313.55 35.8
Q 311.05 36 309.25 33.85
L 298 18.75
Q 297.4 17.9 297.65 17.2 297.95 16.5 299.05 16.35
L 317.8 14.6
Q 320.5 14.45 322.1 16.5
L 333.35 31.6
Q 334 32.5 333.75 33.25 333.35 33.95 332.3 34
L 328.8 34.35
Q 328.95 34.8 328.8 35.55 328.6 36.65 327.8 39.5 327.05 42.1 325.15 45.15
L 360 45.15 360 0 0 0 0 45.15 321.95 45.15
Q 324.25 41.6 325.1 39.2 326 36.75 325.85 35.6
M 300.2 32.25
Q 299.65 30.45 300.25 27.5
L 309.6 39 321.75 38.5 319.9 41.25
Q 319.7 41.55 319.1 41.85 318.55 42.25 317.9 42.25 317 42.4 315.9 42.35 314.65 42.35 312.35 42.55
L 309.55 42.75
Q 308.65 42.85 307.95 42.55 307.25 42.15 306.75 41.45
L 305 39.05
Q 304.15 37.8 302.8 36.35 300.6 33.85 300.2 32.25
M 185.4 21.3
Q 187.25 21.3 188.25 22.55 189.3 23.75 189.3 25.8 189.3 27.85 188.25 29.05 187.2 30.2 185.3 30.2 184.15 30.2 183.3 29.7 182.45 29.1 181.9 28.1 181.4 27 181.4 25.75 181.4 23.7 182.5 22.45 183.55 21.3 185.4 21.3
M 170.85 18.5
L 171.4 18.3 171.95 18.5 172.15 19.15 171.95 19.8 171.4 20 170.85 19.8 170.65 19.15 170.85 18.5
M 166.95 24.45
Q 166.95 23.45 166.55 22.9 166.15 22.4 165.15 22.4 164 22.45 163.45 23.15 162.85 23.9 162.85 25.25
L 162.85 30 161.55 30 161.55 24.5
Q 161.55 23.5 161.1 22.95 160.65 22.45 159.75 22.45 158.5 22.45 157.9 23.2 157.35 23.9 157.35 25.55
L 157.35 30 156.05 30 156.05 21.45 157.1 21.45 157.3 22.65 157.4 22.65
Q 157.7 22.2 158.4 21.65 159.3 21.3 159.9 21.3 161.95 21.4 162.55 22.75
L 162.6 22.75
Q 163 22.15 163.75 21.75 164.4 21.35 165.35 21.35 166.8 21.35 167.55 22.1 168.25 22.8 168.25 24.5
L 168.25 30 166.95 30 166.95 24.45
M 170.75 21.5
L 172.05 21.5 172.05 30 170.75 30 170.75 21.5
M 174.9 22.55
Q 175.95 21.35 177.85 21.35
L 179.1 21.5 180.05 21.75 179.65 22.9 178.75 22.6 177.85 22.5
Q 175.2 22.5 175.2 25.85 175.2 27.35 175.85 28.25 176.45 29.1 177.75 29.1 178.85 29.1 179.95 28.65
L 179.95 29.8
Q 179 30.2 177.75 30.2 175.85 30.2 174.9 29.1 173.85 27.9 173.85 25.85 173.85 23.7 174.9 22.55
M 150.1 17.75
L 151.35 17.75 152 18.65 153.35 20.15 153.35 20.4 152.5 20.4 150.75 18.9 149.05 20.4 148.15 20.4 148.15 20.15 149.55 18.65 150.1 17.75
M 143.6 17.9
L 144.95 17.9 144.95 30.05 143.85 30.05 143.75 28.95 143.6 28.95
Q 142.75 30.2 140.95 30.2 139.3 30.2 138.3 29.05 137.35 27.95 137.35 25.75 137.45 23.65 138.3 22.5 139.3 21.3 140.95 21.3 142.7 21.4 143.6 22.55
L 143.75 22.55 143.6 17.9
M 148.05 22.5
Q 149.2 21.3 150.8 21.35 152.45 21.35 153.35 22.4 154.25 23.55 154.25 25.15
L 154.25 26 148.35 26
Q 148.35 27.45 149.15 28.25 149.9 29.05 151.15 29.05 152.55 29.05 153.9 28.45
L 153.9 29.65 152.6 30 151.1 30.15
Q 149.25 30.25 148.1 29 147 27.95 147 25.8 147 23.85 148.05 22.5
M 126.05 22.55
L 125.2 22.5
Q 122.55 22.5 122.55 25.85 122.55 27.35 123.2 28.25 123.8 29.1 125.1 29.1 126.2 29.1 127.3 28.65
L 127.3 29.8
Q 126.35 30.2 125.1 30.2 123.2 30.2 122.25 29.05 121.2 27.95 121.2 25.8 121.2 23.7 122.25 22.5 123.3 21.3 125.2 21.3
L 126.45 21.45 127.35 21.75 127 22.85 126.05 22.55
M 129.6 22.05
L 131 21.5 132.5 21.3
Q 134 21.4 134.8 22 135.55 22.75 135.55 24.2
L 135.55 30 134.55 30 134.3 28.8 134.25 28.8
Q 133.55 29.65 132.9 29.9
L 131.35 30.15
Q 130.1 30.25 129.35 29.5 128.6 28.9 128.6 27.65 128.7 25.1 132.75 24.95
L 134.2 24.9 134.2 24.4
Q 134.2 23.35 133.8 22.9 133.45 22.4 132.4 22.4 131.4 22.4 130 23.05
L 129.6 22.05
M 115.25 18.55
L 116.3 18.55 120.8 30 119.5 30 118.05 26.4 113.5 26.4 112.05 30 110.75 30 115.25 18.55
M 86.9 16.55
L 92 16.55 96.7 30.85 92.45 30.85 91.75 28.25 87.15 28.25 86.45 30.85 82.25 30.85 86.9 16.55
M 72.4 16.55
L 77.55 16.55 82.25 30.9 78 30.9 77.25 28.25 72.65 28.25 71.95 30.85 67.75 30.85 72.4 16.55
M 61.75 16.4
L 64.25 16.65
Q 64.65 16.75 66.3 17.3
L 65.1 20.3
Q 63.6 19.55 61.75 19.55 60.05 19.65 59.1 20.65 58.2 21.85 58.2 23.8 58.2 25.75 59 26.85 59.9 27.9 61.45 27.9
L 63 27.75 63 25.5 60.5 25.5 60.5 22.5 66.6 22.5 66.6 30.2
Q 64.2 31 61.1 31 57.9 31.15 56 29.15 54.25 27.35 54.25 23.7 54.25 20.2 56.2 18.3 58.2 16.4 61.75 16.4
M 44.9 20.4
Q 42.9 19.5 41.45 19.5 40.7 19.5 40.3 19.75 40 20.05 40 20.4 40 20.9 40.4 21.15
L 42.75 22.4
Q 44.55 23.2 45.35 24.15 46.05 25.15 46.05 26.55 46.1 27.85 45.45 28.9 44.75 30 43.5 30.5 42.3 31 40.5 31
L 38.1 30.85
Q 37.05 30.7 36.1 30.15
L 36.1 26.75 38.4 27.6
Q 39.45 27.95 40.6 27.95 41.5 27.95 41.85 27.65 42.25 27.4 42.25 26.85
L 42.1 26.35 41.55 25.9 39.65 25
Q 38.45 24.45 37.55 23.75 36.9 23.3 36.55 22.4 36.2 21.7 36.2 20.65 36.2 18.7 37.65 17.5 39.05 16.4 41.6 16.4 43.7 16.45 46.1 17.4
L 44.9 20.4
M 48.25 16.65
L 52.1 16.65 52.1 30.9 48.25 30.9 48.25 16.65
M 73.5 25.05
L 76.5 25.05 75 18.9 73.5 25.05
M 88 25.05
L 91 25.05 89.5 18.9 88 25.05
M 113.9 25.25
L 117.6 25.25 115.75 20 113.9 25.25
M 134.25 26.65
L 134.25 25.8 132.95 25.85
Q 131.35 25.95 130.7 26.35 130 26.75 130 27.65 130 28.45 130.45 28.75 130.95 29.15 131.65 29.15 132.9 29.15 133.55 28.5 134.25 27.8 134.25 26.65
M 150.75 22.4
Q 149.85 22.4 149.1 23.05 148.5 23.85 148.4 24.95
L 152.9 24.95
Q 152.9 23.85 152.35 23.05 151.7 22.4 150.75 22.4
M 141.1 22.4
Q 140.1 22.4 139.35 23.3 138.75 24.1 138.75 25.8 138.75 27.5 139.35 28.25 139.9 29.1 141.15 29.1 142.45 29.1 143.05 28.35 143.65 27.7 143.65 26.05
L 143.65 25.75
Q 143.65 24.2 143.05 23.15 142.45 22.4 141.1 22.4
M 187.35 23.25
Q 186.65 22.4 185.4 22.4 184.15 22.5 183.45 23.25 182.8 24.1 182.8 25.75 182.8 27.3 183.45 28.25 184.15 29.15 185.4 29.15 186.7 29.15 187.35 28.25 188 27.35 188 25.75 188 24.1 187.35 23.25 Z"/>
</g>

<g id="icone_10_svg_0_Layer0_0_MEMBER_1_FILL">
<path fill="#54656B" stroke="none" d="
M 44.9 20.4
L 46.05 17.4
Q 43.75 16.45 41.55 16.4 39.1 16.4 37.6 17.5 36.2 18.75 36.2 20.65 36.2 21.65 36.5 22.4 36.95 23.35 37.5 23.75 38.3 24.4 39.6 25
L 41.5 25.9 42.1 26.4 42.25 26.9
Q 42.25 27.4 41.85 27.7 41.5 28 40.6 28 39.7 28 38.4 27.65
L 36.1 26.8 36.1 30.2
Q 37 30.65 38.1 30.9
L 40.5 31
Q 42.3 31 43.5 30.5 44.8 29.9 45.45 28.9 46.1 27.85 46.05 26.55 46.05 25.15 45.35 24.15 44.55 23.2 42.75 22.4
L 40.45 21.15
Q 40 20.9 40 20.4 40 20.15 40.3 19.75 40.7 19.5 41.45 19.5 42.95 19.5 44.9 20.4
M 52.1 16.65
L 48.25 16.65 48.25 30.9 52.1 30.9 52.1 16.65
M 61.75 19.55
Q 63.65 19.55 65.15 20.3
L 66.35 17.3 64.3 16.65 61.75 16.4
Q 58.2 16.4 56.15 18.35 54.2 20.3 54.2 23.75 54.2 27.3 56 29.15 57.85 31.15 61.1 31 64.15 31 66.6 30.25
L 66.6 22.5 60.5 22.5 60.5 25.5 63.05 25.5 63.05 27.8 61.45 27.95
Q 59.9 27.95 59.05 26.85 58.2 25.85 58.2 23.8 58.2 21.8 59.15 20.65 60.05 19.65 61.75 19.55
M 77.55 16.55
L 72.4 16.55 67.75 30.85 71.95 30.85 72.7 28.25 77.3 28.25 78 30.85 82.25 30.85 77.55 16.55
M 76.5 25.05
L 73.5 25.05 75 18.9 76.5 25.05
M 92.05 16.55
L 86.9 16.55 82.25 30.85 86.45 30.85 87.2 28.25 91.8 28.25 92.5 30.85 96.75 30.85 92.05 16.55
M 91 25.05
L 88 25.05 89.5 18.9 91 25.05
M 116.3 18.55
L 115.25 18.55 110.75 30 112.05 30 113.5 26.4 118.05 26.4 119.5 30 120.8 30 116.3 18.55
M 117.6 25.25
L 113.9 25.25 115.8 20 117.6 25.25
M 129.6 22.05
L 130 23.05
Q 131.4 22.4 132.4 22.4 133.4 22.4 133.8 22.9 134.2 23.35 134.2 24.4
L 134.2 24.95 132.75 25
Q 128.7 25.1 128.6 27.7 128.6 28.9 129.35 29.55 130.05 30.2 131.35 30.2
L 132.9 29.95
Q 133.7 29.55 134.25 28.8
L 134.3 28.8 134.55 30 135.55 30 135.55 24.25
Q 135.55 22.75 134.8 22 134 21.4 132.5 21.3
L 131 21.5 129.6 22.05
M 134.25 26.65
Q 134.25 27.85 133.5 28.5 132.9 29.15 131.6 29.15 131 29.15 130.4 28.8 130 28.45 130 27.7 130 26.75 130.65 26.4 131.5 25.9 132.9 25.9
L 134.25 25.85 134.25 26.65
M 125.2 22.45
L 126.05 22.55 126.95 22.85 127.35 21.75 126.4 21.45 125.15 21.3
Q 123.3 21.3 122.25 22.5 121.15 23.65 121.15 25.8 121.15 27.85 122.25 29.05 123.2 30.25 125.05 30.15 126.5 30.15 127.25 29.75
L 127.25 28.6
Q 126.35 29.05 125.05 29.05 123.75 29.05 123.2 28.2 122.55 27.4 122.55 25.8 122.55 22.45 125.2 22.45
M 150.8 21.3
Q 149.15 21.3 148.05 22.5 147 23.85 147 25.8 147 27.95 148.1 29 149.25 30.25 151.1 30.15
L 152.6 30 153.9 29.65 153.9 28.45
Q 152.55 29.05 151.15 29.05 149.9 29.05 149.15 28.25 148.35 27.45 148.35 26
L 154.25 26 154.25 25.15
Q 154.25 23.5 153.35 22.35 152.4 21.3 150.8 21.3
M 149.1 23.05
Q 149.85 22.4 150.75 22.4 151.7 22.4 152.35 23.05 152.9 23.85 152.9 24.95
L 148.4 24.95
Q 148.5 23.85 149.1 23.05
M 144.95 17.9
L 143.6 17.9 143.75 22.55 143.6 22.55
Q 142.7 21.4 140.95 21.3 139.3 21.3 138.3 22.5 137.4 23.8 137.35 25.75 137.35 27.95 138.3 29.05 139.35 30.25 140.95 30.15 142.7 30.15 143.6 28.9
L 143.75 28.9 143.85 30 144.95 30 144.95 17.9
M 139.35 23.3
Q 140.05 22.4 141.1 22.4 142.4 22.4 143.05 23.2 143.65 24.05 143.65 25.8
L 143.65 26.1
Q 143.65 27.55 143.05 28.4 142.45 29.15 141.15 29.15 139.95 29.15 139.35 28.25 138.75 27.6 138.75 25.8 138.75 24.2 139.35 23.3
M 151.4 17.75
L 150.1 17.75 149.55 18.65 148.15 20.15 148.15 20.4 149.05 20.4 150.75 18.9 152.5 20.4 153.35 20.4 153.35 20.15 152 18.65 151.4 17.75
M 180.05 21.75
L 179.1 21.45 177.85 21.3
Q 175.95 21.3 174.9 22.5 173.85 23.7 173.85 25.8 173.85 27.95 174.9 29.05 175.85 30.25 177.75 30.15 179.15 30.15 179.95 29.75
L 179.95 28.65
Q 178.85 29.1 177.75 29.1 176.45 29.1 175.85 28.25 175.2 27.35 175.2 25.85 175.2 22.5 177.85 22.5
L 178.75 22.6 179.65 22.9 180.05 21.75
M 172.05 21.5
L 170.75 21.5 170.75 30 172.05 30 172.05 21.5
M 165.15 22.4
Q 166.15 22.4 166.6 22.95 167 23.5 167 24.5
L 167 30 168.25 30 168.25 24.5
Q 168.25 22.8 167.55 22.1 166.8 21.35 165.35 21.35 164.35 21.35 163.7 21.75 163 22.1 162.6 22.8
L 162.55 22.8
Q 161.95 21.35 159.9 21.35 159.1 21.35 158.4 21.7 157.8 22.1 157.4 22.7
L 157.3 22.7 157.1 21.5 156.05 21.5 156.05 30 157.35 30 157.35 25.55
Q 157.35 23.9 157.9 23.2 158.5 22.45 159.7 22.45 160.6 22.45 161.05 22.95 161.5 23.5 161.5 24.5
L 161.5 30 162.8 30 162.8 25.25
Q 162.8 24 163.4 23.15 164 22.45 165.15 22.4
M 171.95 18.5
L 171.4 18.3 170.85 18.5 170.6 19.15 170.8 19.8 171.35 20 171.95 19.8 172.15 19.15 171.95 18.5
M 188.3 22.5
Q 187.2 21.3 185.4 21.3 183.55 21.3 182.5 22.45 181.45 23.65 181.45 25.75 181.45 27.15 181.95 28.1 182.45 29.15 183.35 29.65 184.2 30.25 185.35 30.15 187.3 30.15 188.3 29 189.35 27.9 189.35 25.75 189.35 23.8 188.3 22.5
M 183.45 23.25
Q 184.15 22.5 185.4 22.4 186.65 22.4 187.35 23.25 188 24.1 188 25.75 188 27.35 187.35 28.25 186.7 29.15 185.4 29.15 184.15 29.15 183.45 28.25 182.8 27.3 182.8 25.75 182.8 24.1 183.45 23.25 Z"/>
</g>
</defs>

<g transform="matrix( 1, 0, 0, 1, 0,-0.05) ">
<g transform="matrix( 1, 0, 0, 1, 0,0) ">
<use xlink:href="#icone_10_svg_0_Layer0_0_MEMBER_0_FILL"/>
</g>

<g transform="matrix( 1, 0, 0, 1, 0,0) ">
<use xlink:href="#icone_10_svg_0_Layer0_0_MEMBER_1_FILL"/>
</g>
</g>
</svg>
