
<svg xmlns="http://www.w3.org/2000/svg" version="1.1" xmlns:xlink="http://www.w3.org/1999/xlink" preserveAspectRatio="none" x="0px" y="0px" width="360px" height="45px" viewBox="0 0 360 45">
<defs>
<g id="icone_12_svg_0_Layer0_0_MEMBER_0_FILL">
<path fill="#E3E9D1" stroke="none" d="
M 332 18.75
L 333.6 19
Q 335.15 19.4 336 20.65 336.85 21.9 336.55 23.5
L 332.15 45.05 360 45.05 360 0 0 0 0 45.05 309.65 45.05 297.85 42.75
Q 296.25 42.45 295.5 41.1 294.6 39.8 294.9 38.25
L 299.4 16
Q 299.7 14.5 301.05 13.6 301.5 13.25 302.2 13.1
L 298.6 30.75 328.35 36.75 332 18.75
M 325.4 17.4
Q 326.8 18.5 326.2 21.35 325.8 23.3 324.5 24.45 323.1 25.85 323.05 26.3 322.9 27 323.55 27.8 324.1 28.4 325 28.95
L 325.75 29.4 325.35 32 316.1 30.2
Q 316.65 27.6 316.85 27.65 320.15 27.45 320.5 25.75 320.6 25.25 319.9 23.5 319.15 21.75 319.55 20 320.05 17.3 321.9 16.65
L 325.4 17.4
M 305.35 16.4
L 306 13.45 315.25 15.35 314.65 18.25 305.35 16.4
M 304.25 22
L 304.85 18.65 314.15 20.5 313.5 23.9 304.25 22
M 313.1 26.05
L 312.35 29.45 303.1 27.55 303.8 24.2 313.1 26.05
M 246.85 23.5
L 247 24.05 247.6 24.5 249.1 25.15
Q 250.65 25.75 251.15 26.25 251.65 26.8 251.65 27.7 251.75 28.95 250.8 29.55 249.95 30.2 248.3 30.2 246.6 30.2 245.65 29.7
L 245.65 28.5 247 29 248.3 29.15
Q 249.3 29.15 249.9 28.85 250.4 28.55 250.4 27.85 250.5 27.4 250 27
L 246.6 25.4
Q 246.1 25 245.85 24.6
L 245.6 23.6
Q 245.7 22.55 246.45 21.95 247.35 21.35 248.8 21.35 250.1 21.35 251.5 21.9
L 251.05 22.95
Q 249.85 22.45 248.7 22.45 247.65 22.45 247.3 22.75 246.85 23 246.85 23.5
M 223.35 24.4
Q 223.35 23.5 222.95 22.85 222.5 22.4 221.55 22.4 220.55 22.4 219.1 23.05
L 218.7 22.05 220.1 21.5 221.6 21.3
Q 223.1 21.4 223.9 22 224.65 22.75 224.65 24.2
L 224.65 30 223.65 30 223.4 28.8 223.35 28.8
Q 222.8 29.55 222.05 29.9
L 220.5 30.15
Q 219.15 30.25 218.5 29.5 217.75 28.9 217.75 27.65 217.75 25.1 221.9 24.95
L 223.35 24.9 223.35 24.4
M 232.85 24.55
Q 232.85 23.5 232.4 22.95 231.9 22.45 230.9 22.45 229.6 22.45 228.9 23.2 228.3 23.9 228.3 25.55
L 228.3 30 227 30 227 21.45 228.05 21.45 228.25 22.65 228.3 22.7
Q 228.7 22.05 229.4 21.7 230.1 21.35 231.05 21.35 232.6 21.35 233.4 22.1 234.15 22.85 234.15 24.5
L 234.15 30 232.85 30 232.85 24.55
M 240.05 21.35
Q 241.85 21.35 242.9 22.55 243.95 23.75 243.95 25.8 243.95 27.85 242.9 29.05 241.85 30.2 239.95 30.2 238.8 30.2 237.95 29.7 237.15 29.1 236.55 28.15 236.05 27 236.05 25.75 236.05 23.7 237.1 22.5 238.25 21.3 240.05 21.35
M 204.85 21.5
L 205.05 22.65 205.15 22.65
Q 205.4 22.15 206.15 21.65 206.95 21.3 207.65 21.3 209.6 21.4 210.3 22.75
L 210.35 22.75
Q 210.65 22.15 211.45 21.75 212.1 21.35 213.1 21.35 214.55 21.35 215.3 22.1 216 22.9 216 24.5
L 216 30 214.7 30 214.7 24.45
Q 214.7 23.55 214.3 22.9 213.8 22.4 212.9 22.4 211.7 22.5 211.15 23.15 210.55 23.9 210.55 25.25
L 210.55 30 209.25 30 209.25 24.5
Q 209.25 23.5 208.8 22.95 208.35 22.45 207.45 22.45 206.25 22.45 205.65 23.2 205.1 23.8 205.1 25.55
L 205.1 30 203.8 30 203.8 21.5 204.85 21.5
M 190.1 23.5
L 190.1 18.65 191.4 18.65 191.4 30 190.1 30 190.1 24.65 184.05 24.65 184.05 30 182.75 30 182.75 18.65 184.05 18.65 184.05 23.5 190.1 23.5
M 199.85 21.5
L 201.2 21.45 201.2 30 200.1 30 199.95 28.9 199.85 28.9
Q 199.45 29.6 198.75 29.85 198.15 30.15 197.1 30.15 195.6 30.25 194.8 29.45 194 28.65 194 27.05
L 194 21.45 195.3 21.45 195.3 27
Q 195.4 28.2 195.8 28.6 196.25 29.1 197.3 29.1 198.65 29.1 199.25 28.35 199.85 27.7 199.85 26
L 199.85 21.5
M 171.05 24.55
L 170.75 23.6
Q 170.85 22.55 171.6 21.95 172.5 21.35 173.95 21.35 175.25 21.35 176.65 21.9
L 176.2 22.95
Q 175 22.45 173.85 22.45 172.9 22.45 172.45 22.75 172 23.05 172 23.55
L 172.15 24.1 172.75 24.55 174.25 25.2
Q 175.9 25.85 176.3 26.3 176.8 26.8 176.8 27.75 176.85 28.9 175.95 29.6 175.05 30.2 173.45 30.2 171.65 30.2 170.8 29.7
L 170.8 28.5 172.1 29 173.45 29.15
Q 174.45 29.15 175.05 28.85 175.55 28.55 175.55 27.85 175.65 27.35 175.15 27
L 171.8 25.35 171.05 24.55
M 162.3 22.5
Q 163.35 21.3 165.2 21.35 167 21.35 168.05 22.55 169.1 23.75 169.1 25.8 169.1 27.85 168.05 29.05 167 30.2 165.1 30.2 164.05 30.2 163.1 29.7 162.25 29.1 161.75 28.15 161.25 27.15 161.25 25.75 161.25 23.65 162.3 22.5
M 151.3 22.5
Q 150.25 22.5 149.55 23.35 148.8 24.25 148.8 25.5
L 148.8 30 147.5 30 147.5 21.45 148.55 21.45 148.65 23.05 148.8 23.05
Q 149.25 22.25 149.9 21.75 150.6 21.3 151.35 21.3
L 152.4 21.4 152.25 22.65 151.3 22.5
M 143.6 21.5
L 144.95 21.45 144.95 30 143.9 30 143.7 28.9 143.65 28.9
Q 143.15 29.6 142.55 29.85 141.9 30.15 140.9 30.15 139.35 30.2 138.6 29.45 137.8 28.7 137.8 27.05
L 137.8 21.45 139.1 21.45 139.1 27
Q 139.1 28.05 139.6 28.65 140.1 29.15 141.1 29.15 142.35 29.15 143 28.35 143.6 27.7 143.6 26
L 143.6 21.5
M 154.9 24.05
L 155.5 24.55 157 25.2
Q 158.65 25.85 159.05 26.3 159.55 26.8 159.55 27.75 159.6 28.9 158.7 29.6 157.8 30.2 156.2 30.2 154.4 30.2 153.55 29.7
L 153.55 28.5 154.85 29 156.2 29.15
Q 157.2 29.15 157.8 28.85 158.3 28.55 158.3 27.85 158.4 27.4 157.9 27
L 154.5 25.4 153.75 24.6 153.5 23.6
Q 153.6 22.55 154.35 21.95 155.25 21.35 156.75 21.35 158.05 21.35 159.4 21.9
L 159 22.95
Q 157.7 22.45 156.6 22.45 155.6 22.45 155.25 22.75 154.8 22.95 154.8 23.5
L 154.9 24.05
M 125 21.3
Q 126.6 21.3 127.5 22.4 128.4 23.45 128.4 25.15
L 128.4 26 122.5 26
Q 122.6 27.55 123.3 28.25 124.05 29.05 125.3 29.05 126.8 29.05 128.05 28.45
L 128.05 29.65 126.75 30 125.25 30.15
Q 123.5 30.25 122.25 29 121.15 27.9 121.15 25.8 121.15 23.9 122.25 22.5 123.25 21.3 125 21.3
M 112.3 18.65
L 115.45 18.65
Q 117.5 18.65 118.55 19.4 119.55 20.25 119.55 21.9 119.45 24.15 117.25 24.9
L 120.35 30 118.75 30 116 25.25 113.6 25.25 113.6 30 112.3 30 112.3 18.65
M 91.05 21.9
L 91.05 16.55 95 16.55 95 30.8 91.05 30.8 91.05 25 86.6 25 86.6 30.8 82.75 30.8 82.75 16.55 86.65 16.55 86.65 21.9 91.05 21.9
M 66.3 17.25
L 65.1 20.25
Q 63.6 19.5 61.75 19.5 60.05 19.6 59.1 20.6 58.2 21.8 58.2 23.75 58.2 25.7 59 26.8 59.9 27.85 61.45 27.85
L 63 27.75 63 25.5 60.5 25.5 60.5 22.5 66.6 22.5 66.6 30.15
Q 64.05 31 61.1 31 57.8 31.1 56 29.1 54.2 27.25 54.2 23.65 54.2 20.2 56.15 18.25 58.1 16.4 61.7 16.4
L 64.25 16.65
Q 65.1 16.8 66.3 17.25
M 73.9 16.55
Q 79.75 16.55 79.75 20.75 79.75 23.25 77.3 24.65
L 81.5 30.8 77.15 30.8 74.05 25.65 73.05 25.65 73.05 30.8 69.25 30.8 69.25 16.55 73.9 16.55
M 42.75 22.3
Q 44.7 23.25 45.35 24.1 46.05 25.1 46.05 26.5 46.1 27.8 45.45 28.85 44.8 29.85 43.5 30.45 42.3 30.95 40.5 30.95
L 38.05 30.8
Q 36.95 30.6 36.05 30.1
L 36.05 26.7 38.35 27.55
Q 39.45 27.9 40.55 27.9 41.5 27.9 41.85 27.6 42.25 27.35 42.25 26.8
L 42.1 26.3 41.55 25.85 39.65 24.95
Q 38.45 24.4 37.55 23.7 36.9 23.15 36.55 22.35 36.2 21.65 36.2 20.55 36.2 18.65 37.65 17.45 39.05 16.35 41.6 16.35 43.7 16.4 46.1 17.35
L 44.9 20.35
Q 42.9 19.45 41.45 19.45 40.7 19.45 40.3 19.7 40 20 40 20.35 40 20.85 40.45 21.1
L 42.75 22.3
M 48.25 16.55
L 52.1 16.55 52.1 30.8 48.25 30.8 48.25 16.55
M 133.8 21.3
L 136 21.75 135.6 22.9 134.7 22.6 133.8 22.5
Q 131.15 22.5 131.15 25.85 131.15 27.35 131.8 28.25 132.4 29.1 133.7 29.1 134.8 29.1 135.9 28.65
L 135.9 29.8
Q 134.95 30.2 133.7 30.2 131.8 30.2 130.85 29.05 129.8 27.95 129.8 25.8 129.8 23.7 130.85 22.5 131.9 21.3 133.8 21.3
M 73.8 22.75
Q 75.8 22.75 75.8 21 75.8 19.5 73.9 19.5
L 73.05 19.5 73.05 22.75 73.8 22.75
M 113.55 19.75
L 113.55 24.2 115.4 24.2
Q 116.8 24.2 117.5 23.65 118.1 23.05 118.1 21.9 118.2 20.85 117.5 20.25 116.75 19.75 115.3 19.75
L 113.55 19.75
M 124.95 22.4
Q 124.05 22.4 123.3 23.05 122.7 23.85 122.6 24.95
L 127.1 24.95
Q 127.1 23.85 126.55 23.05 125.9 22.4 124.95 22.4
M 167.1 23.25
Q 166.5 22.4 165.15 22.4 163.95 22.5 163.25 23.25 162.6 24.1 162.6 25.75 162.6 27.3 163.25 28.25 163.95 29.15 165.15 29.15 166.5 29.15 167.1 28.25 167.75 27.45 167.75 25.75 167.85 24.1 167.1 23.25
M 240.05 22.4
Q 238.8 22.5 238.1 23.25 237.45 24.1 237.45 25.75 237.45 27.3 238.1 28.25 238.8 29.15 240.05 29.15 241.35 29.15 242 28.25 242.6 27.45 242.6 25.75 242.65 24.15 242 23.25 241.3 22.4 240.05 22.4
M 219.8 26.4
Q 219.1 26.75 219.1 27.65 219.1 28.45 219.55 28.75 220.05 29.15 220.75 29.15 222 29.15 222.65 28.5 223.35 27.8 223.35 26.65
L 223.35 25.85 222.05 25.9
Q 220.55 25.9 219.8 26.4 Z"/>
</g>

<g id="icone_12_svg_0_Layer0_0_MEMBER_1_FILL">
<path fill="#54656B" stroke="none" d="
M 41.45 19.5
Q 42.95 19.5 44.9 20.4
L 46.1 17.4
Q 43.7 16.4 41.6 16.4 38.95 16.4 37.65 17.5 36.2 18.65 36.2 20.6 36.2 21.7 36.55 22.4 36.9 23.2 37.55 23.75 38.2 24.3 39.65 25
L 41.55 25.9 42.1 26.35 42.25 26.85
Q 42.25 27.35 41.85 27.65 41.5 27.95 40.6 27.95 39.7 27.95 38.4 27.6
L 36.1 26.75 36.1 30.15
Q 37.25 30.7 38.1 30.85
L 40.5 31
Q 42.1 31 43.5 30.5 44.85 29.8 45.45 28.85 46.1 27.8 46.05 26.5 46.05 25.1 45.35 24.1 44.6 23.2 42.75 22.3
L 40.45 21.15
Q 40 20.9 40 20.4 40 20.05 40.3 19.75 40.8 19.45 41.45 19.5
M 52.1 16.55
L 48.25 16.55 48.25 30.8 52.1 30.8 52.1 16.55
M 79.75 20.75
Q 79.75 16.55 73.9 16.55
L 69.25 16.55 69.25 30.8 73.05 30.8 73.05 25.65 74.05 25.65 77.15 30.8 81.5 30.8 77.3 24.65
Q 79.75 23.25 79.75 20.75
M 73.9 19.5
Q 75.8 19.5 75.8 21 75.8 22.75 73.8 22.75
L 73.05 22.75 73.05 19.5 73.9 19.5
M 61.75 19.5
Q 63.65 19.5 65.15 20.25
L 66.3 17.25
Q 65.1 16.8 64.25 16.65
L 61.7 16.4
Q 58.05 16.4 56.15 18.3 54.2 20.2 54.2 23.7 54.2 27.25 56 29.1 57.85 31.1 61.1 31 63.95 31 66.6 30.2
L 66.6 22.5 60.5 22.5 60.5 25.5 63.05 25.5 63.05 27.75 61.45 27.85
Q 59.9 27.85 59.05 26.8 58.2 25.8 58.2 23.75 58.2 21.75 59.15 20.65 60 19.6 61.75 19.5
M 91.05 21.9
Q 91.05 21.85 86.6 21.85
L 86.6 16.55 82.75 16.55 82.75 30.8 86.65 30.8 86.65 25 91.05 25 91.05 30.8 95 30.8 95 16.55 91.05 16.55 91.05 21.9
M 115.45 18.65
L 112.3 18.65 112.25 30 113.55 30 113.55 25.25 116 25.25 118.75 30 120.3 30 117.25 24.9
Q 119.5 24.15 119.55 21.9 119.55 20.25 118.55 19.4 117.45 18.65 115.45 18.65
M 113.6 24.15
L 113.6 19.75 115.35 19.75
Q 116.75 19.75 117.5 20.25 118.15 20.85 118.15 21.9 118.15 23.05 117.5 23.6 116.9 24.15 115.45 24.15
L 113.6 24.15
M 133.8 22.45
L 134.7 22.55 135.6 22.85 136 21.75 135.05 21.45 133.8 21.3
Q 131.95 21.3 130.85 22.5 129.8 23.7 129.8 25.8 129.8 27.95 130.85 29.05 131.8 30.25 133.7 30.15 135.1 30.15 135.9 29.75
L 135.9 28.6
Q 134.95 29.05 133.7 29.05 132.35 29.05 131.8 28.2 131.15 27.4 131.15 25.8 131.15 22.45 133.8 22.45
M 127.55 22.35
Q 126.6 21.3 125 21.3 123.3 21.3 122.25 22.5 121.2 23.85 121.2 25.8 121.2 27.95 122.3 29 123.45 30.25 125.3 30.15
L 126.8 30 128.1 29.65 128.1 28.45
Q 126.75 29.05 125.3 29.05 124.05 29.05 123.3 28.25 122.6 27.55 122.5 26
L 128.4 26 128.4 25.15
Q 128.4 23.4 127.55 22.35
M 124.95 22.4
Q 125.9 22.4 126.55 23.05 127.05 23.75 127.1 24.95
L 122.6 24.95
Q 122.7 23.85 123.3 23.05 124.05 22.4 124.95 22.4
M 154.9 24.05
L 154.8 23.5
Q 154.8 22.95 155.25 22.7 155.65 22.4 156.6 22.4 157.5 22.4 159 22.9
L 159.45 21.85
Q 158 21.35 156.75 21.3 155.25 21.3 154.4 21.9 153.55 22.5 153.55 23.55
L 153.8 24.55 154.55 25.35 157.95 27
Q 158.35 27.35 158.35 27.85 158.35 28.5 157.85 28.85 157.25 29.15 156.25 29.15
L 154.9 29 153.6 28.5 153.6 29.7
Q 154.4 30.2 156.25 30.2 157.8 30.2 158.75 29.6 159.6 28.95 159.6 27.75 159.6 26.9 159.1 26.25 158.5 25.75 157.05 25.15
L 155.55 24.5 154.9 24.05
M 148.8 23.1
L 148.65 23.1 148.55 21.5 147.5 21.5 147.5 30 148.8 30 148.8 25.5
Q 148.8 24.25 149.55 23.4 150.25 22.5 151.3 22.5
L 152.25 22.65 152.4 21.45 151.35 21.35
Q 150.6 21.35 149.9 21.8 149.2 22.35 148.8 23.1
M 144.95 21.5
L 143.6 21.5 143.6 26
Q 143.6 27.65 143 28.4 142.4 29.15 141.05 29.15 140.05 29.15 139.55 28.65 139.15 28.15 139.05 27
L 139.05 21.45 137.75 21.45 137.75 27.05
Q 137.75 28.65 138.55 29.45 139.35 30.25 140.85 30.15 141.9 30.15 142.5 29.85 143.2 29.6 143.6 28.9
L 143.7 28.9 143.85 30 144.95 30 144.95 21.5
M 170.8 23.55
L 171.05 24.55 171.8 25.35 175.2 27
Q 175.6 27.35 175.6 27.85 175.6 28.5 175.1 28.85 174.2 29.15 173.5 29.15
L 172.15 29 170.85 28.5 170.85 29.7
Q 171.7 30.2 173.5 30.2 175.05 30.2 176 29.55 176.85 29 176.85 27.7 176.85 26.9 176.35 26.25 175.75 25.75 174.3 25.15
L 172.8 24.5 172.2 24.05 172.05 23.5
Q 172.05 23 172.5 22.7 172.95 22.4 173.9 22.4 174.75 22.4 176.25 22.9
L 176.7 21.85
Q 175.25 21.35 174 21.3 172.5 21.3 171.65 21.9 170.8 22.5 170.8 23.55
M 168.1 22.55
Q 167 21.35 165.25 21.35 163.3 21.35 162.3 22.5 161.25 23.65 161.25 25.75 161.25 27.15 161.75 28.1 162.25 29.1 163.15 29.7 164 30.2 165.15 30.2 167.05 30.2 168.1 29.05 169.15 27.85 169.15 25.8 169.15 23.75 168.1 22.55
M 165.15 22.4
Q 166.5 22.4 167.1 23.25 167.85 24.1 167.75 25.75 167.75 27.45 167.1 28.25 166.5 29.15 165.15 29.15 163.95 29.15 163.25 28.25 162.6 27.3 162.6 25.75 162.6 24.1 163.25 23.25 163.95 22.5 165.15 22.4
M 190.1 23.5
L 184.05 23.5 184.05 18.65 182.75 18.65 182.75 30 184.05 30 184.05 24.65 190.1 24.65 190.1 30 191.4 30 191.4 18.65 190.1 18.65 190.1 23.5
M 195.3 21.45
L 194 21.45 194 27.05
Q 194 28.65 194.8 29.45 195.6 30.25 197.1 30.15 198.15 30.15 198.75 29.85 199.45 29.6 199.85 28.9
L 199.95 28.9 200.1 30 201.2 30 201.2 21.5 199.85 21.5 199.85 26
Q 199.85 27.65 199.25 28.4 198.65 29.15 197.3 29.15 196.3 29.15 195.8 28.65 195.4 28.15 195.3 27
L 195.3 21.45
M 204.85 21.5
L 203.75 21.5 203.75 30 205.05 30 205.05 25.55
Q 205.05 23.9 205.6 23.2 206.3 22.45 207.4 22.45 208.35 22.45 208.8 22.95 209.25 23.5 209.25 24.5
L 209.25 30 210.55 30 210.55 25.3
Q 210.55 23.9 211.15 23.15 211.7 22.45 212.9 22.45 213.85 22.45 214.3 22.95 214.65 23.45 214.65 24.5
L 214.65 30 216 30 216 24.5
Q 216 22.9 215.3 22.1 214.55 21.35 213.1 21.35 212.1 21.35 211.45 21.75 210.65 22.15 210.35 22.8
L 210.3 22.8
Q 209.6 21.35 207.65 21.35 206.8 21.35 206.15 21.7 205.45 22.1 205.15 22.7
L 205.05 22.7 204.85 21.5
M 242.95 22.55
Q 241.85 21.35 240.05 21.35 238.2 21.35 237.1 22.5 236.1 23.55 236.1 25.75 236.1 27.15 236.6 28.1 237.1 29.1 238 29.7 238.85 30.2 240 30.2 241.9 30.2 242.95 29.05 244 27.85 244 25.8 244 23.75 242.95 22.55
M 238.1 23.25
Q 238.8 22.5 240.05 22.4 241.3 22.4 242 23.25 242.65 24.15 242.6 25.75 242.6 27.45 242 28.25 241.35 29.15 240.05 29.15 238.8 29.15 238.1 28.25 237.45 27.3 237.45 25.75 237.45 24.1 238.1 23.25
M 228.25 22.65
L 228.05 21.5 227 21.5 227 30 228.3 30 228.3 25.55
Q 228.3 23.9 228.9 23.15 229.6 22.4 230.9 22.4 231.8 22.4 232.4 22.9 232.85 23.5 232.85 24.5
L 232.85 30 234.15 30 234.15 24.45
Q 234.15 22.8 233.4 22.05 232.6 21.3 231.05 21.3 230.25 21.3 229.45 21.65 228.6 22.15 228.35 22.65
L 228.25 22.65
M 222.95 22.9
Q 223.35 23.45 223.35 24.4
L 223.35 24.95 221.9 25
Q 217.75 25.1 217.75 27.7 217.75 28.9 218.5 29.55 219.15 30.2 220.5 30.2
L 222.05 29.95
Q 222.85 29.5 223.35 28.8
L 223.4 28.8 223.65 30 224.65 30 224.65 24.25
Q 224.65 22.75 223.9 22 223.1 21.4 221.6 21.3
L 220.1 21.5 218.7 22.05 219.1 23.05
Q 220.55 22.4 221.55 22.4 222.45 22.4 222.95 22.9
M 219.1 27.7
Q 219.1 26.75 219.8 26.4 220.45 25.9 222 25.9
L 223.3 25.85 223.3 26.65
Q 223.3 27.85 222.6 28.5 222 29.15 220.75 29.15 220.1 29.15 219.55 28.8 219.1 28.45 219.1 27.7
M 246.85 23.5
Q 246.85 23.05 247.35 22.7 247.8 22.4 248.75 22.4 249.6 22.4 251.1 22.9
L 251.55 21.85
Q 250.1 21.35 248.85 21.3 247.35 21.3 246.5 21.9 245.65 22.5 245.65 23.55
L 245.9 24.55
Q 246.15 25.05 246.65 25.35
L 250.05 27
Q 250.45 27.35 250.45 27.85 250.45 28.5 249.95 28.85 249.35 29.15 248.35 29.15
L 247 29 245.7 28.5 245.7 29.7
Q 246.5 30.2 248.3 30.2 249.9 30.2 250.8 29.6 251.7 29 251.7 27.75 251.7 26.9 251.2 26.25 250.55 25.7 249.1 25.15
L 247.6 24.5 247 24.05 246.85 23.5 Z"/>
</g>
</defs>

<g transform="matrix( 1, 0, 0, 1, 0,0) ">
<g transform="matrix( 1, 0, 0, 1, 0,0) ">
<use xlink:href="#icone_12_svg_0_Layer0_0_MEMBER_0_FILL"/>
</g>

<g transform="matrix( 1, 0, 0, 1, 0,0) ">
<use xlink:href="#icone_12_svg_0_Layer0_0_MEMBER_1_FILL"/>
</g>
</g>
</svg>
