
<svg xmlns="http://www.w3.org/2000/svg" version="1.1" xmlns:xlink="http://www.w3.org/1999/xlink" preserveAspectRatio="none" x="0px" y="0px" width="360px" height="45px" viewBox="0 0 360 45">
<defs>
<g id="icone_8_svg_0_Layer0_0_MEMBER_0_FILL">
<path fill="#E3E9D1" stroke="none" d="
M 301.3 24.65
L 298.35 39.25 323.95 44.45 326.9 29.8 301.3 24.65
M 329.1 18.9
Q 330.65 19.2 331.5 20.5 332.35 21.7 332 23.25
L 327.6 45.05 360 45.05 360 0 0 0 0 45.05 308.35 45.05 297.6 42.95
Q 296.15 42.65 295.25 41.25 294.4 40.1 294.7 38.5
L 299.1 16.55
Q 299.4 15.15 300.7 14.15 302.1 13.35 303.5 13.65
L 305.15 13.95 304.45 17.65 310.3 18.8 311 15.15 321.65 17.3 320.9 21 326.75 22.15 327.5 18.5 329.1 18.9
M 326.6 14.5
L 325.35 20.75 322.75 20.25 324 14 326.6 14.5
M 307.6 10.65
L 310.15 11.15 308.85 17.4 306.3 16.85 307.6 10.65
M 208.1 15.75
Q 208.6 16.2 208.6 17 208.6 18.75 206.55 18.75 204.5 18.75 204.5 17 204.5 16.25 205 15.75 205.45 15.35 206.55 15.35 207.7 15.35 208.1 15.75
M 204 19.7
L 203.65 23.3 202.35 23.15
Q 201.15 23.15 200.55 23.75 199.9 24.35 199.9 25.4
L 199.9 30.8 196.1 30.8 196.1 19.75 199 19.75 199.6 21.55 199.75 21.55
Q 200.25 20.75 201.1 20.1 201.95 19.55 202.8 19.55
L 203.75 19.65 204 19.7
M 204.6 19.75
L 208.5 19.75 208.5 30.8 204.6 30.8 204.6 19.75
M 215.35 23.85
L 217.25 23.8 217.25 23.65
Q 217.25 22.25 215.9 22.25 214.75 22.3 212.8 23.1
L 211.7 20.55
Q 213.7 19.55 216.55 19.55 218.65 19.55 219.85 20.6 221 21.7 221 23.55
L 221 30.8 218.35 30.8 217.7 29.35 217.55 29.35
Q 216.85 30.3 216 30.65 215.25 30.95 213.9 30.95 212.4 31.05 211.45 30.1 210.55 29.2 210.55 27.45 210.55 25.8 211.8 24.8 213.05 24 215.35 23.85
M 184.55 21.05
Q 186.05 19.55 188.65 19.55 190.3 19.6 191.55 20.25 192.65 20.9 193.5 22.25 194.15 23.55 194.15 25.25 194.15 28.05 192.7 29.5 191.3 31 188.6 31 186.1 31.1 184.6 29.5 183.1 28 183.1 25.25 183.2 22.6 184.55 21.05
M 169.05 15.75
Q 169.45 15.35 170.6 15.35 171.6 15.35 172.15 15.75 172.65 16.25 172.65 17 172.65 18.75 170.6 18.75 168.55 18.75 168.55 17 168.55 16.2 169.05 15.75
M 165.95 20.9
Q 167.3 22.2 167.3 24.65
L 167.3 26.3 160.45 26.3
Q 160.45 27.35 161.15 27.8 161.7 28.3 162.9 28.3
L 164.75 28.1 166.55 27.45 166.55 30.2
Q 165.65 30.8 164.7 30.8
L 162.45 30.95
Q 159.7 31.1 158.15 29.55 156.6 28.2 156.6 25.35 156.6 22.6 158.05 21.05 159.4 19.55 162.05 19.55 164.55 19.65 165.95 20.9
M 182.2 22.65
L 179.5 22.65 179.5 27
Q 179.5 28 180.5 28 181.4 28.1 182.35 27.65
L 182.35 30.4 180.95 30.85 179.3 30.95
Q 177.4 31 176.55 30.1 175.7 29.25 175.7 27.2
L 175.7 22.6 174.35 22.6 174.35 21.05 176.05 19.85 177.05 17.55 179.55 17.55 179.55 19.75 182.25 19.75 182.2 22.65
M 168.6 19.75
L 172.5 19.75 172.5 30.8 168.6 30.8 168.6 19.75
M 143.8 16.55
L 148.45 16.55
Q 154.25 16.55 154.25 20.75 154.25 23.35 151.85 24.65
L 156.05 30.8 151.7 30.8 148.65 25.65 147.65 25.65 147.65 30.8 143.8 30.8 143.8 16.55
M 121.55 21.25
L 121.6 21.25 121.4 15.65 125.25 15.65 125.25 30.85 122.4 30.85 121.55 29.5 121.4 29.5
Q 120.5 31 118.5 31 117.3 31.1 116.4 30.35 115.5 29.75 115.05 28.35 114.55 26.95 114.55 25.3 114.6 22.75 115.65 21.15 116.7 19.6 118.65 19.6 119.6 19.6 120.25 20 121 20.3 121.55 21.25
M 129.15 23.15
L 128.1 20.55
Q 130.1 19.55 133 19.55 135.1 19.55 136.3 20.6 137.4 21.7 137.4 23.55
L 137.4 30.8 134.8 30.8 134.1 29.35 134 29.35
Q 133.25 30.3 132.4 30.65 131.65 30.95 130.3 30.95 128.85 31 127.85 30.1 127 29.15 127 27.45 127 25.75 128.25 24.8 129.4 24 131.8 23.85
L 133.65 23.8 133.65 23.65
Q 133.65 22.25 132.3 22.25 131.1 22.35 129.15 23.15
M 83.8 20.65
Q 84.8 21.7 84.8 23.65
L 84.8 30.8 81 30.8 81 24.8
Q 81 23.75 80.7 23.2 80.4 22.6 79.7 22.6 78.75 22.6 78.3 23.4 77.85 24.15 77.85 26
L 77.85 30.8 74.05 30.8 74.05 19.75 76.9 19.75 77.4 21.15 77.6 21.15
Q 78.15 20.35 79 19.95 79.9 19.55 80.95 19.55 82.8 19.55 83.8 20.65
M 87.15 21.15
Q 88.15 19.55 90.1 19.6 91.05 19.6 91.7 20 92.35 20.25 93 21.25
L 93.05 21.25 92.9 15.65 96.75 15.65 96.75 30.85 93.85 30.85 93 29.5 92.85 29.5
Q 91.95 31 90 31 88.75 31.05 87.9 30.35 87 29.75 86.55 28.35 86.05 27.15 86.05 25.3 86.05 22.7 87.15 21.15
M 63.5 21.05
Q 64.85 19.55 67.5 19.6 69.95 19.6 71.35 20.9 72.75 22.15 72.75 24.65
L 72.75 26.35 65.85 26.35
Q 65.9 27.3 66.55 27.85 67.3 28.35 68.3 28.35
L 70.15 28.15 72 27.45 72 30.2
Q 71.1 30.8 70.15 30.8
L 67.9 30.95
Q 65.1 31.1 63.55 29.55 62 28.15 62 25.35 62.1 22.55 63.5 21.05
M 61.5 19.75
L 61.45 21.65 59.9 22.2
Q 60.25 22.75 60.25 23.55 60.25 25.35 58.95 26.3 57.7 27.3 55.25 27.3
L 54.25 27.2 54.1 27.7
Q 54.1 28 54.6 28.15
L 55.8 28.3 57.6 28.3
Q 61.35 28.3 61.35 31.35 61.35 33.4 59.6 34.5 58 35.6 54.75 35.6 52.6 35.6 51.15 34.8 49.85 34.05 49.85 32.55 49.95 30.6 52.35 30 51.9 29.85 51.5 29.35 51.05 28.9 51.05 28.4 51.05 28.05 51.35 27.45
L 52.55 26.55
Q 51.6 26.2 51.25 25.35 50.75 24.65 50.75 23.35 50.75 21.55 51.95 20.55 53.2 19.55 55.5 19.55
L 61.5 19.75
M 49.75 30.8
L 45.5 30.8 44.75 28.2 40.2 28.2 39.45 30.8 35.25 30.8 39.9 16.5 45 16.5 49.75 30.8
M 103.25 23.85
L 105.1 23.8 105.1 23.65
Q 105.1 22.25 103.75 22.25 102.65 22.3 100.6 23.1
L 99.5 20.55
Q 101.6 19.55 104.4 19.55 106.5 19.55 107.7 20.6 108.85 21.7 108.85 23.55
L 108.85 30.8 106.2 30.8 105.5 29.35 105.4 29.35
Q 104.7 30.3 103.85 30.65 103.1 30.95 101.75 30.95 100.25 31.05 99.3 30.1 98.4 29.1 98.4 27.45 98.4 25.8 99.65 24.8 100.9 24 103.25 23.85
M 105.05 25.9
L 104.25 25.9
Q 102.3 26.05 102.3 27.3 102.3 28.35 103.45 28.35 104.1 28.35 104.55 27.9 105.05 27.55 105.05 26.75
L 105.05 25.9
M 41 25
L 44 25 42.5 18.9 41 25
M 54.55 31.2
Q 53.85 31.2 53.5 31.5 53.2 31.7 53.1 32.2 53.1 32.6 53.6 32.95 54.4 33.25 55 33.25 56.45 33.25 57.25 32.85 58 32.55 58 32 58.05 31.55 57.5 31.35
L 54.55 31.2
M 56.3 24.65
Q 56.65 24.2 56.6 23.4 56.7 21.7 55.5 21.7 54.3 21.7 54.3 23.4 54.4 25.1 55.5 25.1 56 25.1 56.3 24.65
M 66 23.9
L 69.3 23.9
Q 69.25 23.25 68.8 22.65 68.3 22.15 67.65 22.15 67.05 22.15 66.55 22.65 66.05 23.05 66 23.9
M 92.8 23.25
Q 92.25 22.65 91.5 22.7 90.75 22.7 90.3 23.4 89.9 24.2 89.9 25.4 89.9 26.8 90.3 27.4 90.8 28.05 91.5 28.05 92.5 28.05 92.8 27.5 93.2 26.9 93.25 25.7
L 93.25 25.4
Q 93.25 24 92.8 23.25
M 133.6 26.75
L 133.6 25.9 132.75 25.9
Q 130.85 26.05 130.85 27.3 130.85 28.35 132 28.35 132.65 28.35 133.1 27.9 133.6 27.55 133.6 26.75
M 121.8 25.65
L 121.8 25.35
Q 121.8 24 121.35 23.25 120.9 22.65 120.05 22.65 119.3 22.75 118.9 23.35 118.45 24.1 118.45 25.35 118.45 26.85 118.9 27.35 119.25 28 120.05 28 121.05 28 121.4 27.45 121.75 26.8 121.8 25.65
M 150.35 21
Q 150.35 19.5 148.4 19.5
L 147.6 19.5 147.6 22.75 148.35 22.75
Q 150.35 22.75 150.35 21
M 163.35 22.65
Q 162.85 22.15 162.2 22.15 161.6 22.15 161.1 22.65 160.6 23.05 160.55 23.9
L 163.85 23.9
Q 163.75 23.05 163.35 22.65
M 189.9 23.15
Q 189.6 22.4 188.65 22.4 187.8 22.4 187.35 23.15 187 24.05 187 25.25 187 26.65 187.35 27.5 187.8 28.25 188.65 28.25 189.6 28.25 189.9 27.5 190.3 26.7 190.3 25.25 190.3 23.8 189.9 23.15
M 217.25 26.75
L 217.25 25.9 216.35 25.9
Q 214.5 26.05 214.5 27.3 214.5 28.35 215.6 28.35 216.25 28.35 216.75 27.9 217.25 27.5 217.25 26.75 Z"/>
</g>

<g id="icone_8_svg_0_Layer0_0_MEMBER_1_FILL">
<path fill="#54656B" stroke="none" d="
M 148.5 16.55
L 143.75 16.55 143.75 30.8 147.6 30.8 147.6 25.7 148.6 25.7 151.65 30.8 156.05 30.8 151.9 24.65
Q 154.3 23.3 154.3 20.75 154.3 16.55 148.5 16.55
M 148.4 19.5
Q 150.35 19.5 150.35 21 150.35 22.75 148.35 22.75
L 147.6 22.75 147.6 19.5 148.4 19.5
M 44.75 28.2
L 45.5 30.8 49.75 30.8 45.05 16.5 39.9 16.5 35.25 30.8 39.45 30.8 40.2 28.2 44.75 28.2
M 44 25
L 41 25 42.5 18.9 44 25
M 61.5 21.65
L 61.5 19.75 55.5 19.6
Q 53.1 19.6 51.95 20.6 50.75 21.6 50.75 23.4 50.75 24.6 51.25 25.4 51.7 26.25 52.6 26.6
L 51.4 27.5
Q 51.1 27.95 51.1 28.4 51.1 28.95 51.5 29.35 51.9 29.85 52.35 30 49.95 30.6 49.85 32.55 49.85 34.05 51.2 34.8 52.55 35.6 54.75 35.6 58 35.6 59.6 34.45 61.35 33.45 61.35 31.3 61.35 28.25 57.6 28.25
L 55.8 28.25 54.6 28.1
Q 54.1 27.95 54.1 27.65
L 54.25 27.15 55.25 27.25
Q 57.85 27.25 59 26.25 60.25 25.35 60.25 23.5 60.25 22.75 59.95 22.15
L 61.5 21.65
M 54.35 23.4
Q 54.35 21.7 55.5 21.7 56.7 21.7 56.6 23.4 56.6 24.3 56.3 24.65 56.05 25.2 55.5 25.1 54.35 25.1 54.35 23.4
M 53.5 31.5
Q 53.9 31.15 54.55 31.15
L 56.05 31.15 57.55 31.35
Q 58.05 31.5 58.05 31.95 58.05 32.55 57.25 32.85 56.4 33.25 55 33.25 54.4 33.25 53.6 32.95 53.1 32.6 53.1 32.2 53.1 31.75 53.5 31.5
M 67.5 19.55
Q 64.85 19.55 63.5 21.05 62.1 22.55 62 25.4 62 28.15 63.55 29.6 65.05 31.1 67.85 31
L 70.1 30.85
Q 71.1 30.8 72 30.25
L 72 27.5 70.2 28.1 68.3 28.3
Q 67.2 28.3 66.55 27.8 65.9 27.3 65.9 26.3
L 72.75 26.3 72.75 24.65
Q 72.75 22.25 71.35 20.85 69.95 19.65 67.5 19.55
M 69.3 23.9
L 66 23.9
Q 66.1 23.05 66.55 22.65 66.9 22.15 67.65 22.15 68.3 22.15 68.8 22.65 69.2 23.05 69.3 23.9
M 84.85 23.65
Q 84.85 21.8 83.8 20.65 82.8 19.55 80.95 19.55 79.9 19.55 79 19.95 78.15 20.35 77.6 21.15
L 77.35 21.15 76.85 19.75 74 19.75 74 30.8 77.8 30.8 77.8 26
Q 77.8 24.2 78.25 23.35 78.75 22.55 79.65 22.55 80.4 22.55 80.65 23.2 81 23.8 81 24.8
L 81 30.8 84.85 30.8 84.85 23.65
M 90.15 19.6
Q 88.1 19.6 87.15 21.15 86.05 22.6 86.05 25.3 86.05 27.15 86.55 28.35 86.95 29.7 87.9 30.35 88.8 31.1 90 30.95 91.95 30.95 92.9 29.45
L 93.05 29.45 93.9 30.8 96.75 30.8 96.75 15.7 92.9 15.7 93.1 21.25 93.05 21.25
Q 92.4 20.3 91.75 20 91.05 19.6 90.15 19.6
M 91.5 22.65
Q 92.3 22.65 92.8 23.25 93.25 24.15 93.25 25.4
L 93.25 25.7
Q 93.2 26.9 92.8 27.5 92.5 28 91.5 28 90.75 28 90.3 27.4 89.9 26.7 89.9 25.4 89.9 24.05 90.3 23.4 90.75 22.75 91.5 22.65
M 105.05 23.65
L 105.05 23.8 103.2 23.9
Q 100.9 24 99.65 24.85 98.4 25.8 98.4 27.5 98.4 29.25 99.3 30.15 100.15 31 101.75 31 103.1 31 103.85 30.7 104.65 30.4 105.4 29.4
L 105.5 29.4 106.2 30.85 108.85 30.85 108.85 23.6
Q 108.85 21.65 107.7 20.65 106.5 19.6 104.4 19.6 101.45 19.6 99.5 20.6
L 100.6 23.15
Q 102.55 22.3 103.75 22.25 105.05 22.25 105.05 23.65
M 104.25 25.9
L 105.05 25.9 105.05 26.8
Q 105.05 27.45 104.55 27.95 104.2 28.35 103.45 28.35 102.3 28.35 102.3 27.3 102.3 26.05 104.25 25.9
M 121.65 21.25
L 121.55 21.25
Q 120.9 20.3 120.3 19.95 119.55 19.6 118.7 19.55 116.8 19.55 115.7 21.1 114.6 22.65 114.6 25.3 114.6 27.15 115.1 28.35 115.55 29.75 116.45 30.35 117.35 31.1 118.55 30.95 120.5 30.95 121.45 29.45
L 121.6 29.45 122.45 30.8 125.3 30.8 125.3 15.7 121.45 15.7 121.65 21.25
M 121.8 25.4
L 121.8 25.65
Q 121.75 26.75 121.4 27.5 121.05 28 120.05 28 119.3 28 118.9 27.4 118.45 26.75 118.45 25.4 118.45 24.05 118.9 23.4 119.3 22.75 120.05 22.65 120.85 22.65 121.35 23.25 121.8 24 121.8 25.4
M 128.05 20.6
L 129.15 23.15
Q 131.15 22.3 132.3 22.3 133.65 22.3 133.65 23.7
L 133.65 23.85 131.8 23.9
Q 129.4 24 128.25 24.85 127 25.75 127 27.5 127 29.3 127.85 30.15 128.7 31 130.3 31 131.65 31 132.4 30.7 133.15 30.4 134 29.4
L 134.05 29.4 134.75 30.85 137.4 30.85 137.4 23.6
Q 137.4 21.65 136.25 20.65 135.05 19.6 132.95 19.6 130 19.6 128.05 20.6
M 133.6 26.75
Q 133.6 27.5 133.1 27.95 132.75 28.35 132 28.35 130.85 28.35 130.85 27.3 130.85 26.05 132.75 25.9
L 133.6 25.9 133.6 26.75
M 172.5 19.75
L 168.6 19.75 168.6 30.8 172.5 30.8 172.5 19.75
M 167.3 24.65
Q 167.3 22.25 165.9 20.85 164.5 19.65 162.05 19.55 159.4 19.55 158 21.1 156.6 22.65 156.55 25.4 156.55 28.15 158.1 29.6 159.6 31.1 162.4 31
L 164.65 30.85
Q 165.65 30.8 166.55 30.25
L 166.55 27.5 164.75 28.1 162.85 28.3
Q 161.75 28.3 161.1 27.8 160.5 27.35 160.4 26.3
L 167.3 26.3 167.3 24.65
M 162.2 22.15
Q 162.85 22.15 163.35 22.65 163.8 23.25 163.85 23.9
L 160.55 23.9
Q 160.65 23.05 161.1 22.65 161.55 22.15 162.2 22.15
M 168.55 17
Q 168.55 18.75 170.6 18.75 172.65 18.75 172.65 17 172.65 16.25 172.15 15.75 171.7 15.35 170.6 15.35 169.45 15.35 169.05 15.75 168.55 16.2 168.55 17
M 188.65 19.55
Q 186.15 19.55 184.55 21.05 183.2 22.6 183.1 25.25 183.1 28 184.6 29.5 186.1 31.1 188.6 31 191.3 31 192.7 29.5 194.15 28.05 194.15 25.25 194.15 23.55 193.5 22.25 192.7 20.95 191.55 20.25 190.3 19.6 188.65 19.55
M 187.35 23.15
Q 187.8 22.4 188.65 22.4 189.6 22.4 189.9 23.15 190.3 23.8 190.3 25.25 190.3 26.7 189.9 27.5 189.6 28.25 188.65 28.25 187.8 28.25 187.35 27.5 187 26.65 187 25.25 187 24.05 187.35 23.15
M 182.25 22.65
L 182.25 19.75 179.55 19.75 179.55 17.55 177.05 17.55 176.05 19.85 174.35 21.05 174.35 22.6 175.7 22.6 175.7 27.2
Q 175.7 29.25 176.55 30.1 177.4 31 179.3 30.95
L 180.95 30.85 182.4 30.4 182.4 27.65
Q 181.15 28.05 180.55 28 179.5 28 179.55 27
L 179.55 22.65 182.25 22.65
M 217.25 23.65
L 217.25 23.85 215.4 23.9
Q 213 24 211.85 24.85 210.6 25.75 210.6 27.5 210.6 29.3 211.5 30.15 212.3 31 213.9 31 215.25 31 216.05 30.7 216.75 30.45 217.6 29.4
L 217.7 29.4 218.35 30.85 221 30.85 221 23.6
Q 221 21.65 219.85 20.65 218.65 19.6 216.55 19.6 213.6 19.6 211.65 20.6
L 212.75 23.15
Q 214.7 22.3 215.85 22.25 217.25 22.25 217.25 23.65
M 217.25 25.9
L 217.25 26.8
Q 217.25 27.35 216.75 27.95 216.35 28.35 215.6 28.35 214.5 28.35 214.5 27.3 214.5 26.05 216.35 25.9
L 217.25 25.9
M 208.5 19.75
L 204.6 19.75 204.6 30.8 208.5 30.8 208.5 19.75
M 203.75 19.65
L 202.8 19.55
Q 201.95 19.55 201.1 20.1 200.25 20.75 199.75 21.55
L 199.6 21.55 199 19.75 196.1 19.75 196.1 30.8 199.9 30.8 199.9 25.45
Q 199.9 24.35 200.5 23.8 201.1 23.2 202.3 23.2
L 203.6 23.35 204 19.75 203.75 19.65
M 208.6 17
Q 208.6 16.2 208.1 15.75 207.7 15.35 206.55 15.35 205.45 15.35 205 15.75 204.5 16.25 204.5 17 204.5 18.75 206.55 18.75 208.6 18.75 208.6 17 Z"/>
</g>
</defs>

<g transform="matrix( 1, 0, 0, 1, 0,0) ">
<g transform="matrix( 1, 0, 0, 1, 0,0) ">
<use xlink:href="#icone_8_svg_0_Layer0_0_MEMBER_0_FILL"/>
</g>

<g transform="matrix( 1, 0, 0, 1, 0,0) ">
<use xlink:href="#icone_8_svg_0_Layer0_0_MEMBER_1_FILL"/>
</g>
</g>
</svg>
