
<svg xmlns="http://www.w3.org/2000/svg" version="1.1" xmlns:xlink="http://www.w3.org/1999/xlink" preserveAspectRatio="none" x="0px" y="0px" width="360px" height="45px" viewBox="0 0 360 45">
<defs>
<g id="icone_5_svg_0_Layer0_0_MEMBER_0_FILL">
<path fill="#E3E9D1" stroke="none" d="
M 360 45.05
L 360 0 0 0 0 45.1 311.65 45.1 294.8 41.3
Q 294.15 41.15 293.75 40.45 293.25 39.65 293.4 39.15
L 296.4 25.85
Q 296.6 25.2 297.25 25.65
L 309.45 36
Q 310.05 36.5 311.05 36.75 312.05 36.95 312.8 36.75
L 328.35 32.75
Q 329.25 32.45 329 33.25
L 326.25 45.05 360 45.05
M 183.4 22.25
L 184.75 22.25 184.75 27.8
Q 184.75 28.95 185.25 29.4 185.7 29.9 186.75 29.9 188.15 29.9 188.65 29.15 189.3 28.45 189.3 26.75
L 189.3 22.25 190.6 22.25 190.6 30.85 189.55 30.85 189.35 29.75 189.3 29.75
Q 188.75 30.4 188.15 30.7 187.35 31 186.55 31 185 31 184.25 30.25 183.4 29.5 183.4 27.9
L 183.4 22.25
M 193.05 19.95
Q 193.05 19.55 193.25 19.3
L 193.8 19.1 194.35 19.3 194.55 19.95 194.35 20.6 193.8 20.8 193.25 20.6
Q 193.05 20.45 193.05 19.95
M 193.1 22.25
L 194.45 22.25 194.45 30.8 193.1 30.8 193.1 22.25
M 168.5 23.25
Q 167.35 23.25 166.05 23.85
L 165.65 22.85 167.05 22.3 168.55 22.1
Q 170.05 22.2 170.85 22.8 171.6 23.55 171.6 25
L 171.6 30.8 170.6 30.8 170.35 29.6 170.3 29.6
Q 169.65 30.4 169 30.75
L 167.4 31
Q 166.1 31 165.4 30.35 164.65 29.7 164.65 28.5 164.75 25.9 168.8 25.75
L 170.25 25.75 170.25 25.2
Q 170.25 24.15 169.85 23.7 169.55 23.25 168.5 23.25
M 174.35 23.35
Q 175.25 22.15 177 22.15 178.85 22.15 179.65 23.5
L 179.8 23.5 180 22.25 181 22.25 181 34.6 179.65 34.6 179.8 29.75 179.65 29.75
Q 178.8 31 177 31 175.3 31 174.35 29.85 173.4 28.6 173.4 26.6 173.5 24.45 174.35 23.35
M 148.05 23.25
Q 147 23.25 146.6 23.5 146.15 23.8 146.15 24.3
L 146.3 24.9 146.9 25.35 148.4 26
Q 150.05 26.65 150.45 27.1 150.95 27.6 150.95 28.55 151 29.7 150.1 30.4 149.2 31 147.6 31 145.8 31 144.95 30.5
L 144.95 29.3 146.25 29.8 147.6 29.95
Q 148.6 29.95 149.2 29.65 149.7 29.35 149.7 28.65 149.8 28.2 149.3 27.8
L 145.9 26.2 145.15 25.35 144.9 24.35
Q 145 23.25 145.8 22.75 146.65 22.15 148.15 22.15 149.45 22.15 150.85 22.7
L 150.4 23.75
Q 149.1 23.25 148.05 23.25
M 143.25 22.65
L 142.75 23.75
Q 141.55 23.25 140.4 23.25 139.45 23.25 139 23.55 138.55 23.85 138.55 24.35
L 138.7 24.9
Q 138.85 25.2 139.3 25.35
L 140.8 26
Q 142.45 26.65 142.85 27.1 143.35 27.6 143.35 28.55 143.4 29.7 142.5 30.4 141.6 31 140 31 138.2 31 137.35 30.5
L 137.35 29.3 138.65 29.8 140 29.95
Q 141 29.95 141.6 29.65 142.1 29.35 142.1 28.65 142.2 28.2 141.7 27.8
L 138.3 26.2 137.55 25.35 137.3 24.35
Q 137.4 23.3 138.15 22.75 139.05 22.15 140.55 22.15 141.75 22.15 143.25 22.65
M 156.35 22.15
Q 158 22.15 158.95 23.15 159.8 24.3 159.8 25.95
L 159.8 26.8 153.95 26.8
Q 153.95 28.25 154.75 29.05 155.5 29.85 156.75 29.85 158.15 29.85 159.5 29.25
L 159.5 30.45 158.2 30.8 156.7 30.95
Q 154.85 31.05 153.7 29.8 152.55 28.75 152.55 26.6 152.55 24.75 153.6 23.3 154.7 22.15 156.35 22.15
M 127.4 22.55
L 127 23.65 126.1 23.35 125.2 23.25
Q 122.55 23.25 122.55 26.6 122.55 28.2 123.2 29 123.75 29.85 125.1 29.85 126.2 29.85 127.3 29.4
L 127.3 30.6
Q 126.35 31 125.1 31 123.2 31 122.25 29.9 121.2 28.7 121.2 26.65 121.2 24.5 122.25 23.35 123.25 22.15 125.2 22.15
L 126.45 22.25 127.4 22.55
M 132.6 22.15
Q 134.2 22.15 135.15 23.2 136.05 24.25 136.05 26
L 136.05 26.85 130.15 26.85
Q 130.15 28.3 130.95 29.1 131.75 29.9 132.95 29.9 134.25 29.9 135.7 29.25
L 135.7 30.5 134.4 30.85 132.9 31
Q 131 31 129.9 29.85 128.8 28.75 128.8 26.65 128.8 24.65 129.85 23.35 130.85 22.15 132.6 22.15
M 115.25 19.4
L 116.3 19.35 120.8 30.8 119.5 30.8 118.05 27.2 113.5 27.2 112.05 30.8 110.75 30.8 115.25 19.4
M 83.55 19.75
L 87.4 19.75 87.4 30.8 83.55 30.8 83.55 19.75
M 87.55 17
Q 87.55 18.75 85.5 18.75 83.4 18.75 83.4 17 83.4 16.25 83.9 15.75 84.35 15.35 85.5 15.35 86.5 15.35 87.05 15.75 87.55 16.25 87.55 17
M 90.05 15.65
L 93.85 15.65 93.85 30.8 90.05 30.8 90.05 15.65
M 81.9 23.55
L 81.9 30.8 79.25 30.8 78.55 29.35 78.45 29.35
Q 77.65 30.35 76.9 30.65 76.1 30.95 74.8 30.95 73.25 31 72.35 30.1 71.45 29.2 71.45 27.45 71.45 25.75 72.7 24.8 73.85 24 76.25 23.85
L 78.1 23.8 78.1 23.65
Q 78.1 22.25 76.75 22.25 75.6 22.3 73.65 23.1
L 72.55 20.55
Q 74.55 19.55 77.45 19.55 79.55 19.55 80.75 20.6 81.9 21.75 81.9 23.55
M 66.05 19.55
Q 68 19.6 69 20.55 69.9 21.55 69.95 23.65
L 69.95 30.8 66.1 30.8 66.1 24.8
Q 66.1 23.75 65.8 23.15 65.5 22.55 64.85 22.55 64 22.55 63.55 23.3 63.15 24.05 63.15 25.65
L 63.15 30.85 59.3 30.85 59.3 24.85
Q 59.3 23.8 59.05 23.2 58.7 22.6 58.1 22.6 57.25 22.6 56.75 23.4 56.35 24.05 56.35 26
L 56.35 30.8 52.55 30.8 52.55 19.75 55.4 19.75 55.9 21.15 56.15 21.15
Q 56.6 20.4 57.4 19.95 58.3 19.55 59.3 19.55 61.65 19.65 62.65 21
L 62.95 21
Q 63.4 20.4 64.25 19.95 65.15 19.55 66.05 19.55
M 45.25 19.65
L 40.55 19.65 40.55 21.9 44.85 21.9 44.85 25 40.55 25 40.55 27.7 45.25 27.7 45.25 30.8 36.75 30.8 36.75 16.55 45.25 16.55 45.25 19.65
M 46.15 24
L 51.65 24 51.65 27 46.15 27 46.15 24
M 329.4 27.05
Q 330.9 27.35 329.85 28.4 329.4 28.85 328.8 29
L 313.65 33.2
Q 313.05 33.4 311.95 33.1 310.9 32.9 310.3 32.45
L 304.5 27.35
Q 298.85 22.35 298.4 22.1 297.45 21.2 297.75 20.4 297.9 19.95 298.8 20.1
L 329.4 27.05
M 76.45 28.35
Q 77.1 28.35 77.55 27.9 78.05 27.55 78.05 26.75
L 78.05 25.9 77.25 25.9
Q 75.3 26.05 75.3 27.3 75.3 28.35 76.45 28.35
M 113.9 26
L 117.6 26 115.75 20.8 113.9 26
M 134.1 23.9
Q 133.6 23.25 132.5 23.25 131.55 23.25 130.85 23.9 130.25 24.75 130.2 25.75
L 134.7 25.75
Q 134.7 24.6 134.1 23.9
M 157.95 23.85
Q 157.35 23.25 156.35 23.25 155.4 23.25 154.65 23.85 154.05 24.7 154 25.75
L 158.5 25.75
Q 158.5 24.65 157.95 23.85
M 177.15 23.25
Q 176.05 23.25 175.4 24.1 174.8 25 174.8 26.6 174.8 28.3 175.4 29.05 176 29.95 177.2 29.95 178.5 29.95 179.1 29.25 179.7 28.5 179.7 26.85
L 179.7 26.55
Q 179.7 24.75 179.1 24 178.45 23.25 177.15 23.25
M 170.3 27.4
L 170.3 26.6 169 26.65
Q 167.4 26.75 166.75 27.15 166.05 27.55 166.05 28.45 166.05 29.25 166.5 29.55 166.9 29.9 167.7 29.9 168.95 30 169.6 29.25 170.3 28.65 170.3 27.4 Z"/>
</g>

<g id="icone_5_svg_0_Layer0_0_MEMBER_1_FILL">
<path fill="#54656B" stroke="none" d="
M 51.65 24
L 46.15 24 46.15 27 51.65 27 51.65 24
M 40.55 19.65
L 45.25 19.65 45.25 16.55 36.75 16.55 36.75 30.85 45.25 30.85 45.25 27.75 40.55 27.75 40.55 25 44.85 25 44.85 21.9 40.55 21.9 40.55 19.65
M 69 20.55
Q 68.05 19.6 66.1 19.6 65.05 19.6 64.25 20 63.4 20.4 62.95 21
L 62.6 21
Q 61.7 19.65 59.25 19.55 58.3 19.55 57.35 19.95 56.65 20.4 56.1 21.15
L 55.85 21.15 55.35 19.75 52.5 19.75 52.5 30.8 56.3 30.8 56.3 26
Q 56.3 24.2 56.75 23.35 57.1 22.65 58.05 22.55 58.7 22.55 59 23.2 59.25 23.65 59.25 24.8
L 59.25 30.8 63.1 30.8 63.1 25.7
Q 63.1 24.2 63.5 23.3 63.95 22.55 64.8 22.55 65.5 22.55 65.75 23.2 66.05 23.6 66.05 24.8
L 66.05 30.8 69.9 30.8 69.9 23.7
Q 69.9 21.6 69 20.55
M 81.9 30.8
L 81.9 23.55
Q 81.9 21.7 80.7 20.65 79.5 19.6 77.4 19.6 74.45 19.6 72.5 20.6
L 73.6 23.15
Q 75.6 22.3 76.75 22.3 78.1 22.3 78.1 23.7
L 78.1 23.85 76.25 23.9
Q 73.85 24 72.7 24.85 71.45 25.75 71.45 27.5 71.45 29.25 72.3 30.15 73.15 31 74.75 31 75.85 31 76.85 30.7 77.65 30.4 78.45 29.35
L 78.55 29.35 79.25 30.8 81.9 30.8
M 77.55 27.9
Q 77.15 28.45 76.45 28.35 75.3 28.35 75.3 27.3 75.3 26.05 77.25 25.9
L 78.05 25.9 78.05 26.75
Q 78.05 27.45 77.55 27.9
M 87.4 19.75
L 83.55 19.75 83.55 30.8 87.4 30.8 87.4 19.75
M 87.55 17
Q 87.55 16.25 87.05 15.75 86.6 15.35 85.5 15.35 84.35 15.35 83.9 15.75 83.4 16.25 83.4 17 83.4 18.75 85.5 18.75 87.55 18.75 87.55 17
M 93.85 15.65
L 90.05 15.65 90.05 30.8 93.85 30.8 93.85 15.65
M 116.3 19.4
L 115.25 19.4 110.75 30.8 112.05 30.8 113.5 27.2 118.05 27.2 119.5 30.8 120.8 30.8 116.3 19.4
M 117.6 26
L 113.9 26 115.75 20.8 117.6 26
M 135.15 23.15
Q 134.15 22.15 132.6 22.15 130.9 22.15 129.8 23.3 128.75 24.65 128.75 26.6 128.75 28.7 129.85 29.8 131.1 31.05 132.85 30.95
L 134.35 30.8 135.7 30.45 135.7 29.25
Q 134.5 29.85 132.95 29.85 131.7 29.85 130.95 29.05 130.15 28.25 130.15 26.8
L 136.05 26.8 136.05 25.95
Q 136.05 24.3 135.15 23.15
M 132.5 23.25
Q 133.6 23.25 134.1 23.9 134.6 24.5 134.7 25.75
L 130.2 25.75
Q 130.25 24.75 130.85 23.9 131.55 23.25 132.5 23.25
M 127.4 22.55
L 126.4 22.25 125.15 22.1
Q 123.3 22.1 122.25 23.3 121.15 24.45 121.15 26.6 121.15 28.65 122.25 29.85 123.2 31.05 125.05 30.95 126.5 30.95 127.25 30.55
L 127.25 29.4
Q 126.35 29.85 125.05 29.85 123.75 29.85 123.2 29 122.55 28.2 122.55 26.6 122.55 23.25 125.2 23.25
L 126.05 23.35 127 23.65 127.4 22.55
M 158.95 23.15
Q 158 22.1 156.35 22.1 154.65 22.1 153.6 23.3 152.65 24.55 152.55 26.6 152.55 28.75 153.7 29.8 154.85 31.05 156.7 30.95
L 158.2 30.8 159.5 30.45 159.5 29.25
Q 158.3 29.85 156.75 29.85 155.5 29.85 154.75 29.05 153.95 28.25 153.95 26.8
L 159.8 26.8 159.8 25.95
Q 159.8 24.2 158.95 23.15
M 156.35 23.25
Q 157.35 23.25 157.95 23.85 158.5 24.65 158.5 25.75
L 154 25.75
Q 154.1 24.65 154.7 23.85 155.4 23.25 156.35 23.25
M 142.8 23.7
L 143.25 22.65
Q 141.85 22.2 140.55 22.1 139.05 22.1 138.2 22.7 137.35 23.3 137.35 24.35
L 137.6 25.35 138.35 26.15 141.75 27.75
Q 142.15 28.15 142.15 28.6 142.15 29.35 141.65 29.6 140.95 29.95 140.05 29.95
L 138.7 29.8 137.4 29.3 137.4 30.5
Q 138.25 31 140.05 31 141.5 31 142.55 30.35 143.4 29.8 143.4 28.5 143.4 27.7 142.9 27.05 142.3 26.55 140.85 25.95
L 139.35 25.3
Q 138.95 25.25 138.75 24.85
L 138.6 24.3
Q 138.6 23.8 139.05 23.5 139.45 23.2 140.4 23.2 141.3 23.2 142.8 23.7
M 146.2 24.3
Q 146.2 23.9 146.65 23.5 147.05 23.25 148.05 23.25 149.05 23.25 150.4 23.7
L 150.85 22.65
Q 149.4 22.15 148.15 22.1 146.65 22.1 145.8 22.7 144.95 23.3 144.95 24.35
L 145.2 25.35 145.95 26.15 149.35 27.75
Q 149.75 28.15 149.75 28.6 149.75 29.35 149.25 29.6 148.55 29.95 147.65 29.95
L 146.3 29.8 145 29.3 145 30.5
Q 145.85 31 147.65 31 149.1 31 150.15 30.4 151 29.75 151 28.5 151 27.7 150.5 27.05 149.9 26.55 148.45 25.95
L 146.95 25.3 146.35 24.85 146.2 24.3
M 177 22.15
Q 175.25 22.15 174.35 23.35 173.45 24.55 173.4 26.6 173.4 28.6 174.35 29.85 175.3 31 177 31 178.7 31 179.65 29.75
L 179.8 29.75 179.65 34.6 181 34.6 181 22.25 180 22.25 179.8 23.5 179.65 23.5
Q 178.85 22.15 177 22.15
M 175.4 24.1
Q 176.05 23.25 177.15 23.25 178.5 23.25 179.1 24 179.6 24.65 179.7 26.55
L 179.7 26.85
Q 179.7 28.55 179.1 29.2 178.55 29.9 177.2 29.9 175.95 29.9 175.4 29.05 174.8 28.3 174.8 26.6 174.8 25 175.4 24.1
M 166.05 23.85
Q 167.35 23.25 168.5 23.25 169.45 23.25 169.85 23.65 170.25 24.2 170.25 25.15
L 170.25 25.75 168.8 25.8
Q 164.75 25.9 164.65 28.5 164.65 29.7 165.4 30.35 166.1 31 167.4 31
L 169 30.75
Q 169.8 30.3 170.3 29.6
L 170.35 29.6 170.6 30.8 171.6 30.8 171.6 25
Q 171.6 23.55 170.85 22.8 170.05 22.2 168.55 22.1
L 167.05 22.3 165.65 22.85 166.05 23.85
M 170.3 26.65
L 170.3 27.4
Q 170.3 28.65 169.55 29.3 168.95 29.95 167.65 29.95 167 29.95 166.5 29.55 166.05 29.3 166.05 28.45 166.05 27.55 166.75 27.15 167.4 26.75 169 26.65
L 170.3 26.65
M 194.45 22.25
L 193.1 22.25 193.1 30.8 194.45 30.8 194.45 22.25
M 193.25 19.3
Q 193.05 19.55 193.05 19.95 193.05 20.45 193.25 20.6
L 193.8 20.8 194.35 20.6 194.55 19.95 194.35 19.3 193.8 19.1 193.25 19.3
M 190.6 22.3
L 189.3 22.3 189.3 26.8
Q 189.3 28.4 188.65 29.2 188.15 29.95 186.75 29.95 185.75 29.95 185.25 29.45 184.75 28.95 184.75 27.8
L 184.75 22.25 183.4 22.25 183.4 27.9
Q 183.4 29.55 184.25 30.3 184.95 31 186.55 31 187.35 31 188.15 30.7 188.75 30.4 189.3 29.75
L 189.35 29.75 189.55 30.85 190.6 30.85 190.6 22.3 Z"/>
</g>
</defs>

<g transform="matrix( 1, 0, 0, 1, 0,-0.05) ">
<g transform="matrix( 1, 0, 0, 1, 0,0) ">
<use xlink:href="#icone_5_svg_0_Layer0_0_MEMBER_0_FILL"/>
</g>

<g transform="matrix( 1, 0, 0, 1, 0,0) ">
<use xlink:href="#icone_5_svg_0_Layer0_0_MEMBER_1_FILL"/>
</g>
</g>
</svg>
