
<svg xmlns="http://www.w3.org/2000/svg" version="1.1" xmlns:xlink="http://www.w3.org/1999/xlink" preserveAspectRatio="none" x="0px" y="0px" width="360px" height="45px" viewBox="0 0 360 45">
<defs>
<g id="icone_13_svg_0_Layer0_0_FILL">
<path fill="#E3E9D1" stroke="none" d="
M 332.35 38.25
Q 332.75 39.15 332.5 39.85
L 331.5 45.05 360 45.05 360 0 0 0 0 45.05 292.55 45.05 291.6 39.85
Q 291.25 37.9 293 36.95
L 299.4 32.5 303.4 32.5 296.45 37.8 303.75 37.8
Q 304.1 37.8 304.25 38.2
L 305.9 42.7 318.2 42.7 319.8 38.2
Q 320.2 37.8 320.3 37.8
L 327.65 37.8 320.7 32.5 324.7 32.5 331.25 36.95
Q 332.05 37.45 332.35 38.25
M 322.75 23.25
L 316 23.25 316 33.75 308.25 33.75 308.25 23.25 301.4 23.25 312.1 13.2 322.75 23.25 Z"/>
</g>

<g id="Illustrator_Symbols_Symbol_3_0_Layer0_0_MEMBER_0_FILL">
<path fill="#54656B" stroke="none" d="
M 72.7 11.9
L 71.95 11.9 71.35 13.05 72.4 13.35
Q 72.7 13.6 72.7 13.85 72.7 14.3 72.4 14.35
L 71.55 14.5 70.8 14.45 70.8 15.2 71.5 15.3
Q 72.55 15.3 73.1 14.9 73.65 14.55 73.65 13.85 73.65 12.9 72.35 12.6
L 72.7 11.9
M 72.65 4.95
L 73.45 5.05 74.3 5.3 74.7 4.3 73.8 4 72.65 3.9
Q 71 3.9 70 4.95 69.05 6.05 69.05 7.95 69.05 9.95 69.95 10.9 70.85 11.8 71.95 11.85
L 72 11.8 72.75 11.8 72.7 11.9
Q 73.75 11.9 74.55 11.55
L 74.55 10.5
Q 73.65 10.95 72.55 10.95 71.45 10.95 70.85 10.15 70.25 9.4 70.25 7.95 70.25 4.95 72.65 4.95
M 78.65 -12
L 77.5 -12.1
Q 75.85 -12.1 74.85 -11.05 73.9 -9.95 73.9 -8.05 73.9 -6.05 74.8 -5.1 75.64140625 -4.25859375 76.75 -4.1
L 76.2 -2.95 77.25 -2.65
Q 77.55 -2.4 77.55 -2.15 77.55 -1.7 77.25 -1.65
L 76.4 -1.5 75.65 -1.55 75.65 -0.8 76.35 -0.7
Q 77.4 -0.7 77.95 -1.1 78.5 -1.45 78.5 -2.15 78.5 -3.1 77.2 -3.4
L 77.55 -4.1
Q 78.6 -4.1 79.4 -4.45
L 79.4 -5.5
Q 78.5 -5.05 77.4 -5.05 76.3 -5.05 75.7 -5.85 75.1 -6.6 75.1 -8.05 75.1 -11.05 77.5 -11.05
L 78.3 -10.95 79.15 -10.7 79.55 -11.7 78.65 -12
M -13.35 -5.1
Q -14.35 -5.1 -15.3 -4.7 -16.2 -4.3 -16.65 -3.5
L -16.9 -3.5 -17.4 -4.9 -20.25 -4.9 -20.25 6.15 -16.45 6.15 -16.45 1.35
Q -16.45 -0.45 -16 -1.3 -15.55 -2.1 -14.6 -2.1 -13.9 -2.1 -13.6 -1.5 -13.3 -0.95 -13.3 0.15
L -13.3 6.15 -9.45 6.15 -9.45 -1
Q -9.45 -2.95 -10.5 -4 -11.4 -5.1 -13.35 -5.1
M -22.95 -4.9
L -26.8 -4.9 -26.8 6.15 -22.95 6.15 -22.95 -4.9
M -24.85 -5.95
Q -22.8 -5.95 -22.8 -7.65 -22.8 -8.45 -23.3 -8.9 -23.75 -9.35 -24.85 -9.35 -25.85 -9.35 -26.4 -8.9 -26.9 -8.5 -26.9 -7.65 -26.9 -5.85 -24.85 -5.95
M -41.45 -4.7
Q -42.3 -4.2 -42.7 -3.5
L -42.95 -3.5 -43.45 -4.9 -46.3 -4.9 -46.3 6.15 -42.5 6.15 -42.5 1.35
Q -42.5 -0.4 -42.1 -1.3 -41.65 -2 -40.75 -2.1 -40.1 -2.1 -39.8 -1.5 -39.55 -1.05 -39.55 0.15
L -39.55 6.15 -35.7 6.15 -35.7 1
Q -35.7 -0.45 -35.3 -1.35 -34.85 -2.1 -34 -2.1 -33.25 -2.1 -33.05 -1.5 -32.75 -0.95 -32.75 0.15
L -32.75 6.15 -28.9 6.15 -28.9 -1
Q -28.9 -3.15 -29.85 -4.1 -30.7 -5 -32.75 -5.1 -33.65 -5.1 -34.6 -4.7 -35.4 -4.3 -35.9 -3.65
L -36.2 -3.65
Q -37.05 -5 -39.55 -5.1 -40.5 -5.1 -41.45 -4.7
M -52.45 -9
L -52.25 -3.45 -52.3 -3.45
Q -52.9 -4.35 -53.6 -4.7 -54.1 -5 -55.2 -5.1 -57.15 -5.1 -58.2 -3.55 -59.2 -2.1 -59.3 0.65 -59.3 2.3 -58.8 3.7 -58.35 5 -57.45 5.7 -56.55 6.4 -55.35 6.3 -53.35 6.3 -52.45 4.8
L -52.3 4.8 -51.45 6.15 -48.6 6.15 -48.6 -9 -52.45 -9
M -55 -1.3
Q -54.6 -1.95 -53.85 -2 -52.9 -2 -52.55 -1.4 -52.1 -0.7 -52.1 0.7
L -52.1 1
Q -52.1 2.15 -52.5 2.8 -52.8 3.35 -53.8 3.35 -54.55 3.35 -55 2.7 -55.45 2.05 -55.45 0.7 -55.45 -0.55 -55 -1.3
M -64.8 -8.15
L -69.95 -8.15 -74.6 6.15 -70.4 6.15 -69.65 3.5 -65.05 3.5 -64.35 6.15 -60.1 6.15 -64.8 -8.15
M -65.85 0.35
L -68.85 0.35 -67.35 -5.8 -65.85 0.35
M -90.2 -8.1
L -94.1 -8.1 -94.1 6.15 -90.2 6.15 -90.2 -8.1
M -84.15 -0.9
Q -84.15 -2.85 -83.2 -4.05 -82.3 -5.05 -80.6 -5.15 -78.7 -5.15 -77.2 -4.4
L -76 -7.4
Q -76.8 -7.75 -78.05 -8.05
L -80.6 -8.3
Q -84.15 -8.3 -86.15 -6.4 -88.1 -4.45 -88.1 -1 -88.1 2.6 -86.3 4.45 -84.5 6.4 -81.2 6.3 -78.1 6.3 -75.7 5.5
L -75.7 -2.2 -81.85 -2.2 -81.85 0.8 -79.3 0.8 -79.3 3.05 -80.9 3.2
Q -82.4 3.2 -83.3 2.15 -84.1 1.05 -84.15 -0.9
M -102.3 -4.3
Q -102.3 -4.65 -102 -4.95 -101.5 -5.25 -100.9 -5.2 -99.4 -5.2 -97.45 -4.3
L -96.25 -7.3
Q -98.35 -8.2 -100.75 -8.3 -103.3 -8.3 -104.7 -7.2 -106.05 -6.05 -106.15 -4.1 -106.15 -3.15 -105.8 -2.3 -105.5 -1.6 -104.8 -0.95 -104.15 -0.4 -102.7 0.3
L -100.8 1.2 -100.25 1.65 -100.1 2.15
Q -100.1 2.75 -100.5 2.95 -100.8 3.25 -101.75 3.25 -102.85 3.25 -103.95 2.9
L -106.25 2.05 -106.25 5.45
Q -105.15 6 -104.25 6.15
L -101.85 6.3
Q -100 6.3 -98.85 5.8 -97.5 5.2 -96.9 4.2 -96.15 3.2 -96.25 1.85 -96.25 0.35 -96.95 -0.55 -97.7 -1.55 -99.55 -2.35
L -101.9 -3.55
Q -102.3 -3.8 -102.3 -4.3
M 12.3 2.9
L 12.8 1.85
Q 11.6 1.25 9.95 1.25 8.4 1.25 7.25 1.9 6.2 2.6 5.5 3.8 4.9 5 4.9 6.6 4.9 9.05 6.15 10.55 7.5 11.95 9.7 11.9 11.4 11.9 12.4 11.55
L 12.4 10.5
Q 10.95 10.9 9.9 10.9 8.1 10.9 7.15 9.8 6.3 8.7 6.2 6.6 6.2 4.65 7.2 3.5 8.2 2.45 9.9 2.35 11.05 2.35 12.3 2.9
M 19.4 4.95
Q 18.5 3.9 16.8 3.9 15.15 3.9 14.15 4.95 13.2 6.05 13.2 7.9 13.2 9.25 13.65 10.05 14.1 11 14.9 11.5 15.85 11.95 16.75 11.9 18.5 11.9 19.4 10.9 20.45 9.9 20.35 7.9 20.35 6.05 19.4 4.95
M 16.75 4.9
Q 17.95 4.9 18.55 5.65 19.15 6.4 19.15 7.9 19.15 9.4 18.55 10.2 17.95 10.95 16.75 11 15.65 11 15 10.2 14.4 9.4 14.4 7.9 14.4 6.4 15 5.65 15.6 4.9 16.75 4.9
M 32.5 4.55
Q 31.9 3.9 30.5 3.9 29.7 3.9 29 4.25 28.35 4.6 28 5.2
L 27.95 5.2
Q 27.35 3.85 25.55 3.9 24.8 3.9 24.2 4.2 23.65 4.5 23.25 5.1
L 23.2 5.1 23 4 22.05 4 22.05 11.8 23.2 11.8 23.2 7.75
Q 23.2 6.25 23.75 5.55 24.2 4.9 25.35 4.9 26.25 4.9 26.6 5.35 27 5.75 27 6.75
L 27 11.8 28.2 11.8 28.2 7.45
Q 28.2 6.25 28.7 5.5 29.3 4.9 30.35 4.9 31.25 4.9 31.6 5.35 32.05 5.8 31.95 6.75
L 31.95 11.8 33.15 11.8 33.15 6.75
Q 33.15 5.2 32.5 4.55
M 41.7 4
L 40.55 4 40.55 8.1
Q 40.55 9.7 39.95 10.3 39.5 11 38.2 11 37.25 11 36.8 10.5 36.45 10 36.4 9.1
L 36.4 4 35.2 4 35.2 9.15
Q 35.2 10.6 35.9 11.3 36.65 12 38.05 11.9
L 39.5 11.65
Q 40.15 11.4 40.5 10.8
L 40.6 10.8 40.75 11.8 41.7 11.8 41.7 4
M 47.2 4.9
Q 48.25 4.9 48.6 5.35 49 5.75 49 6.8
L 49 11.8 50.2 11.8 50.2 6.75
Q 50.2 5.2 49.5 4.55 48.8 3.9 47.35 3.9 46.65 3.9 45.9 4.2 45.25 4.5 44.9 5.1
L 44.85 5.1 44.65 4 43.7 4 43.7 11.8 44.85 11.8 44.85 7.75
Q 44.85 6.25 45.45 5.55 46.05 4.9 47.2 4.9
M 53.25 4
L 52.1 4 52.1 11.8 53.25 11.8 53.25 4
M 52.7 1.1
Q 52.45 1.1 52.2 1.3
L 52 1.9 52.2 2.5
Q 52.4 2.8 52.7 2.7 53 2.7 53.15 2.5
L 53.35 1.9 53.15 1.3
Q 52.9 1.1 52.7 1.1
M 59.6 5.05
L 60.45 5.3 60.85 4.3 59.95 4 58.8 3.9
Q 57.15 3.9 56.15 4.95 55.2 6.05 55.2 7.95 55.2 9.95 56.1 10.9 57.15 11.95 58.75 11.9 60 11.9 60.7 11.55
L 60.7 10.5
Q 59.8 10.95 58.7 10.95 57.6 10.95 57 10.15 56.4 9.4 56.4 7.95 56.4 4.95 58.8 4.95
L 59.6 5.05
M 63.65 4.05
L 62.35 4.55 62.75 5.45
Q 63.95 4.85 64.95 4.85 65.85 4.85 66.2 5.3 66.6 5.7 66.6 6.65
L 66.6 7.15 65.25 7.2
Q 61.5 7.3 61.5 9.65 61.5 10.8 62.15 11.35 62.95 11.95 63.95 11.9
L 65.4 11.7
Q 66.05 11.45 66.6 10.7
L 66.65 10.7 66.9 11.8 67.75 11.8 67.75 6.5
Q 67.75 5.15 67.1 4.5 66.5 3.9 65 3.9
L 63.65 4.05
M 64.2 11
Q 63.5 11 63.1 10.65 62.75 10.3 62.75 9.7 62.75 8.9 63.35 8.5 63.95 8.05 65.4 8.05
L 66.55 8 66.55 8.7
Q 66.55 9.75 65.95 10.4 65.35 11 64.2 11
M 80.65 1.15
L 80.4 1.8
Q 80.25 2.05 79.85 2
L 78.25 1.3 77.65 1.15
Q 77.05 1.15 76.6 1.65 76.2 2.05 76.1 3
L 76.8 3 77.05 2.35 77.6 2.15 78.1 2.25 79.2 2.85 79.8 3
Q 80.55 3 80.9 2.5 81.35 2 81.35 1.15
L 80.65 1.15
M 81.6 11.8
L 81.6 6.5
Q 81.6 5.15 80.95 4.5 80.35 3.9 78.85 3.9
L 77.5 4.05 76.2 4.55 76.6 5.45
Q 77.8 4.85 78.8 4.85 79.7 4.85 80.05 5.3 80.45 5.7 80.45 6.65
L 80.45 7.15 79.1 7.2
Q 75.35 7.3 75.35 9.65 75.35 10.8 76 11.35 76.8 11.95 77.8 11.9
L 79.25 11.7
Q 79.9 11.45 80.45 10.7
L 80.5 10.7 80.75 11.8 81.6 11.8
M 79.25 8.05
L 80.4 8 80.4 8.7
Q 80.4 9.75 79.8 10.4 79.2 11 78.05 11 77.35 11 76.95 10.65 76.6 10.3 76.6 9.7 76.6 8.9 77.2 8.5 77.8 8.05 79.25 8.05
M 89.1 4.95
Q 88.2 3.9 86.5 3.9 84.85 3.9 83.85 4.95 82.9 6.05 82.9 7.9 82.9 9.25 83.35 10.05 83.8 11 84.6 11.5 85.55 11.95 86.45 11.9 88.2 11.9 89.1 10.9 90.15 9.9 90.05 7.9 90.05 6.05 89.1 4.95
M 86.45 4.9
Q 87.65 4.9 88.25 5.65 88.85 6.4 88.85 7.9 88.85 9.4 88.25 10.2 87.65 10.95 86.45 11 85.35 11 84.7 10.2 84.1 9.4 84.1 7.9 84.1 6.4 84.7 5.65 85.3 4.9 86.45 4.9
M 100.55 -11
Q 99.65 -9.85 99.65 -8 99.65 -6.1 100.65 -5.1 101.75 -4 103.35 -4.1
L 104.7 -4.2 105.9 -4.55 105.9 -5.6
Q 104.65 -5.05 103.4 -5.05 102.25 -5.05 101.55 -5.8 100.9 -6.5 100.85 -7.85
L 106.25 -7.85 106.25 -8.6
Q 106.25 -10.25 105.4 -11.15 104.5 -12.1 103.05 -12.1 101.5 -12.1 100.55 -11
M 104.5 -10.55
Q 105 -9.9 105 -8.8
L 100.9 -8.8
Q 101.05 -9.95 101.55 -10.5 102.15 -11.15 103.05 -11.15 104 -11.15 104.5 -10.55
M 88.7 -11.05
Q 87.75 -9.95 87.75 -8.1 87.75 -6.75 88.2 -5.95 88.65 -5 89.45 -4.5 90.4 -4.05 91.3 -4.1 93.05 -4.1 93.95 -5.1 95 -6.1 94.9 -8.1 94.9 -9.95 93.95 -11.05 93.05 -12.1 91.35 -12.1 89.7 -12.1 88.7 -11.05
M 88.95 -8.1
Q 88.95 -9.6 89.55 -10.35 90.15 -11.1 91.3 -11.1 92.5 -11.1 93.1 -10.35 93.7 -9.6 93.7 -8.1 93.7 -6.6 93.1 -5.8 92.5 -5.05 91.3 -5 90.2 -5 89.55 -5.8 88.95 -6.6 88.95 -8.1
M 82.5 -14.85
Q 81.9 -14.85 81.45 -14.35 81.05 -13.95 80.95 -13
L 81.65 -13 81.9 -13.65 82.45 -13.85 82.95 -13.75 84.05 -13.15 84.65 -13
Q 85.4 -13 85.75 -13.5 86.2 -14 86.2 -14.85
L 85.5 -14.85 85.25 -14.2
Q 85.1 -13.95 84.7 -14
L 83.1 -14.7 82.5 -14.85
M 80.2 -6.35
Q 80.2 -5.2 80.85 -4.65 81.65 -4.05 82.65 -4.1
L 84.1 -4.3
Q 84.75 -4.55 85.3 -5.3
L 85.35 -5.3 85.6 -4.2 86.45 -4.2 86.45 -9.5
Q 86.45 -10.85 85.8 -11.5 85.2 -12.1 83.7 -12.1
L 82.35 -11.95 81.05 -11.45 81.45 -10.55
Q 82.65 -11.15 83.65 -11.15 84.55 -11.15 84.9 -10.7 85.3 -10.3 85.3 -9.35
L 85.3 -8.85 83.95 -8.8
Q 80.2 -8.7 80.2 -6.35
M 81.45 -6.3
Q 81.45 -7.1 82.05 -7.5 82.65 -7.95 84.1 -7.95
L 85.25 -8 85.25 -7.3
Q 85.25 -6.25 84.65 -5.6 84.05 -5 82.9 -5 82.2 -5 81.8 -5.35 81.45 -5.7 81.45 -6.3
M 67.55 -10.55
Q 68.75 -11.15 69.75 -11.15 70.65 -11.15 71 -10.7 71.4 -10.3 71.4 -9.35
L 71.4 -8.85 70.05 -8.8
Q 66.3 -8.7 66.3 -6.35 66.3 -5.2 66.95 -4.65 67.75 -4.05 68.75 -4.1
L 70.2 -4.3
Q 70.85 -4.55 71.4 -5.3
L 71.45 -5.3 71.7 -4.2 72.55 -4.2 72.55 -9.5
Q 72.55 -10.85 71.9 -11.5 71.3 -12.1 69.8 -12.1
L 68.45 -11.95 67.15 -11.45 67.55 -10.55
M 67.55 -6.3
Q 67.55 -7.1 68.15 -7.5 68.75 -7.95 70.2 -7.95
L 71.35 -8 71.35 -7.3
Q 71.35 -6.25 70.75 -5.6 70.15 -5 69 -5 68.3 -5 67.9 -5.35 67.55 -5.7 67.55 -6.3
M 66.05 -10.95
L 66.2 -12.05 65.3 -12.1
Q 64.6 -12.1 63.95 -11.7 63.4 -11.35 62.9 -10.55
L 62.85 -10.55 62.7 -12 61.75 -12 61.75 -4.2 62.9 -4.2 62.9 -8.35
Q 62.9 -9.5 63.6 -10.3 64.35 -11.05 65.2 -11.05
L 66.05 -10.95
M 48.4 -12
L 47.25 -12 47.25 -4.2 48.4 -4.2 48.4 -12
M 50.25 -10.05
L 50.45 -9.15 51.15 -8.45 54.25 -7
Q 54.7 -6.65 54.6 -6.2 54.6 -5.6 54.1 -5.3 53.65 -5 52.7 -5
L 51.45 -5.15 50.25 -5.6 50.25 -4.5
Q 51.2 -4.05 52.65 -4.1 54.25 -4.1 54.95 -4.6 55.85 -5.2 55.75 -6.3 55.75 -7.1 55.25 -7.6 54.85 -8.05 53.4 -8.6
L 52.05 -9.2 51.5 -9.6 51.35 -10.15
Q 51.35 -10.6 51.8 -10.85 52.25 -11.15 53.05 -11.15 54.15 -11.15 55.2 -10.65
L 55.6 -11.6
Q 54.45 -12.1 53.15 -12.1 51.85 -12.1 51 -11.55 50.25 -11 50.25 -10.05
M 47.35 -14.7
L 47.15 -14.1 47.35 -13.5
Q 47.55 -13.2 47.85 -13.3 48.15 -13.3 48.3 -13.5
L 48.5 -14.1 48.3 -14.7
Q 48.05 -14.9 47.85 -14.9 47.6 -14.9 47.35 -14.7
M 58.45 -13.8
L 57.75 -13.8 57.25 -12.1 56.15 -11.65 56.15 -11.05 57.25 -11.05 57.25 -6.4
Q 57.25 -4 59.55 -4.1
L 60.75 -4.25 60.75 -5.15 60.3 -5.05 59.7 -5
Q 59.1 -5 58.8 -5.4 58.45 -5.85 58.45 -6.45
L 58.45 -11.05 60.7 -11.05 60.7 -12 58.45 -12 58.45 -13.8
M 35.3 -12
L 35.3 -4.2 36.45 -4.2 36.45 -12 35.3 -12
M 39.8 -12
L 38.85 -12 38.85 -4.2 40 -4.2 40 -8.25
Q 40 -9.75 40.6 -10.45 41.2 -11.1 42.35 -11.1 43.4 -11.1 43.75 -10.65 44.15 -10.25 44.15 -9.2
L 44.15 -4.2 45.35 -4.2 45.35 -9.25
Q 45.35 -10.8 44.65 -11.45 43.95 -12.1 42.5 -12.1 41.8 -12.1 41.05 -11.8 40.4 -11.5 40.05 -10.9
L 40 -10.9 39.8 -12
M 29 -11.75
Q 28.35 -11.4 28 -10.8
L 27.95 -10.8
Q 27.35 -12.15 25.55 -12.1 24.8 -12.1 24.2 -11.8 23.65 -11.5 23.25 -10.9
L 23.2 -10.9 23 -12 22.05 -12 22.05 -4.2 23.2 -4.2 23.2 -8.25
Q 23.2 -9.75 23.75 -10.45 24.2 -11.1 25.35 -11.1 26.25 -11.1 26.6 -10.65 27 -10.25 27 -9.25
L 27 -4.2 28.2 -4.2 28.2 -8.55
Q 28.2 -9.75 28.7 -10.5 29.3 -11.1 30.35 -11.1 31.25 -11.1 31.6 -10.65 32.05 -10.2 31.95 -9.25
L 31.95 -4.2 33.15 -4.2 33.15 -9.25
Q 33.15 -10.8 32.5 -11.45 31.9 -12.1 30.5 -12.1 29.7 -12.1 29 -11.75
M 35.4 -13.5
Q 35.6 -13.2 35.9 -13.3
L 36.35 -13.5 36.55 -14.1 36.35 -14.7
Q 36.1 -14.9 35.9 -14.9 35.65 -14.9 35.4 -14.7
L 35.2 -14.1 35.4 -13.5
M 9.15 -14.65
L 8.15 -14.65 4.05 -4.2 5.25 -4.2 6.55 -7.5 10.7 -7.5 12 -4.2 13.25 -4.2 9.15 -14.65
M 6.95 -8.55
L 8.65 -13.3 10.35 -8.55 6.95 -8.55
M 20.05 -15.25
L 18.9 -15.25 18.9 -11.55 18.95 -10.95 18.85 -10.95
Q 18.1 -12.15 16.45 -12.1 14.95 -12.1 14.05 -11.05 13.3 -9.95 13.2 -8.05 13.2 -6.1 14.05 -5.1 14.95 -4 16.45 -4.1 18.1 -4.1 18.9 -5.2
L 18.95 -5.2 19.1 -4.2 20.05 -4.2 20.05 -15.25
M 18.3 -10.4
Q 18.9 -9.7 18.9 -8.05
L 18.9 -7.8
Q 18.9 -6.3 18.35 -5.7 17.75 -5 16.6 -5 15.55 -5 14.95 -5.8 14.45 -6.6 14.4 -8.05 14.4 -9.45 14.95 -10.3 15.5 -11.05 16.55 -11.15 17.8 -11.15 18.3 -10.4 Z"/>
</g>
</defs>

<g transform="matrix( 1, 0, 0, 1, 0,0) ">
<g transform="matrix( 1, 0, 0, 1, 0,0) ">
<use xlink:href="#icone_13_svg_0_Layer0_0_FILL"/>
</g>

<g id="Symbol_3" transform="matrix( 0.9999847412109375, 0, 0, 0.9999847412109375, 142.35,24.65) ">
<g transform="matrix( 1, 0, 0, 1, 0,0) ">
<use xlink:href="#Illustrator_Symbols_Symbol_3_0_Layer0_0_MEMBER_0_FILL"/>
</g>
</g>
</g>
</svg>
